<svg width="100%" height="100%" viewBox="0 0 100 100" fill="none" xmlns="http://www.w3.org/2000/svg">
<path d="M73.2558 100H26.7442C6.23256 100 0 93.7674 0 73.2558V26.7442C0 6.23256 6.23256 0 26.7442 0H33.7209C41.8605 0 44.4186 2.65116 47.6744 6.97674L54.6512 16.2791C56.186 18.3256 56.4186 18.6047 59.3023 18.6047H73.2558C93.7674 18.6047 100 24.8372 100 45.3488V73.2558C100 93.7674 93.7674 100 73.2558 100ZM26.7442 6.97674C10.1395 6.97674 6.97674 10.1395 6.97674 26.7442V73.2558C6.97674 89.8605 10.1395 93.0233 26.7442 93.0233H73.2558C89.8605 93.0233 93.0233 89.8605 93.0233 73.2558V45.3488C93.0233 28.7442 89.8605 25.5814 73.2558 25.5814H59.3023C53.3488 25.5814 51.3953 23.5349 49.0698 20.4651L42.093 11.1628C39.6744 7.95349 38.9767 6.97674 33.7209 6.97674H26.7442Z" fill="#27273D"/>
</svg>
