<svg width="100%" height="100%" viewBox="0 0 30 30" fill="none" xmlns="http://www.w3.org/2000/svg">
<path d="M12.081 -6.92446e-05C8.98467 -6.92446e-05 5.88775 1.13777 3.53393 3.41707C-1.17373 7.97555 -1.17912 15.4161 3.52854 19.9745C7.65553 23.9707 14.065 24.4634 18.7559 21.4531L25.8947 28.3657C26.8367 29.2779 28.3521 29.2779 29.2941 28.3657C30.2361 27.4535 30.2361 25.9862 29.2941 25.0739L22.1606 18.1614C25.2658 13.6197 24.7537 7.41146 20.6282 3.41616C18.2744 1.13697 15.1773 -0.000976562 12.0811 -0.000976562L12.081 -6.92446e-05ZM12.0756 3.08265C14.3456 3.08367 16.6152 3.9255 18.3564 5.61148C21.8387 8.98345 21.8441 14.4083 18.3618 17.7808C14.8794 21.1527 9.27705 21.1527 5.79459 17.7808C2.31225 14.4088 2.31225 8.98402 5.79459 5.61148C7.53576 3.92544 9.80534 3.08151 12.0754 3.08265H12.0756ZM5.67061 14.3423C5.61323 14.3445 5.55734 14.3605 5.50797 14.3889C5.4586 14.4173 5.41731 14.4571 5.38785 14.5049C5.35839 14.5526 5.34168 14.6067 5.33923 14.6622C5.33678 14.7177 5.34867 14.773 5.37383 14.823C6.57676 17.2616 9.15032 18.9454 12.1241 18.9454C12.7693 18.9454 13.3946 18.8641 13.9911 18.7155C14.0651 18.6959 14.1302 18.6531 14.1763 18.5937C14.2223 18.5343 14.2466 18.4617 14.2454 18.3875C14.2442 18.3132 14.2174 18.2415 14.1694 18.1836C14.1214 18.1257 14.0549 18.0849 13.9803 18.0676C10.9925 17.4214 8.24901 16.1519 5.8973 14.4101C5.8324 14.3623 5.75206 14.3383 5.67061 14.3423Z" fill="white"/>
</svg>
