<svg width="259" height="500" viewBox="0 0 259 500" fill="none" xmlns="http://www.w3.org/2000/svg">
<path fill-rule="evenodd" clip-rule="evenodd" d="M166.702 92.3388C163.778 92.4729 161.349 92.6892 161.303 92.8205C161.177 93.1805 146.589 116.323 146.316 116.596C146.182 116.73 143.455 111.502 140.022 104.53C134.416 93.1453 133.92 92.24 133.364 92.3906C133.034 92.4805 131.998 92.6892 131.064 92.855C129.613 93.1128 129.401 93.222 129.608 93.6062C129.939 94.2206 152.8 128.621 153.062 128.9C153.584 129.455 161.922 122.111 163.87 119.38C165.61 116.942 166.37 114.205 169.272 99.9176C169.957 96.5439 170.578 93.5212 170.652 93.2006C170.754 92.759 171.102 92.551 172.084 92.3464C173.625 92.0258 173.524 92.0258 166.702 92.3388ZM118.108 94.5267C116.847 94.7464 116.511 94.9151 116.403 95.3829C116.33 95.7029 114.745 103.725 112.881 113.209L109.493 130.454L115.063 145.574C118.126 153.889 120.632 160.85 120.632 161.042C120.632 161.233 105.682 203.098 87.409 254.075C65.2842 315.799 54.2889 346.82 54.4928 346.939C55.9813 347.805 94.1239 353.198 111.909 355.057C159.178 359.995 186.594 359.206 219.86 351.952C228.294 350.113 242.832 346.079 246.346 344.603L247.344 344.184L246.124 340.974C218.419 268.056 178.152 161.094 178.152 160.416C178.152 159.415 179.691 143.738 179.957 142.035L180.127 140.945L176.618 144.354C164.61 156.019 161.194 157.707 155.391 154.839C152.136 153.231 145.573 147.405 143.595 144.367C140.968 140.332 131.49 119.75 122.186 97.8728C120.52 93.9552 120.672 94.0803 118.108 94.5267ZM137.595 480.484C128.146 489.524 122.539 491.333 120.224 486.088L119.612 484.701L116.706 489.118C109.487 500.091 109.719 501.478 118.315 498.732C123.88 496.955 125.927 495.598 134.126 488.258C136.076 486.513 137.7 485.243 137.738 485.437C137.775 485.63 137.972 487.672 138.175 489.974C138.559 494.326 138.673 494.635 139.888 494.644C140.482 494.648 141.052 484.554 140.76 479.212L140.668 477.543L137.595 480.484ZM224.391 481.904C224.708 493.892 224.769 494.649 225.409 494.644C226.55 494.636 226.655 494.327 227.075 489.756C227.299 487.305 227.516 485.266 227.556 485.226C227.596 485.187 229.285 486.628 231.309 488.43C239.505 495.724 241.139 496.822 246.453 498.6C255.476 501.618 255.826 500.257 248.785 489.537C245.445 484.451 245.361 484.366 245.093 485.793C244.693 487.927 241.88 489.511 239.605 488.884C236.628 488.064 232.631 485.255 227.773 480.572C226.006 478.868 224.496 477.474 224.417 477.474C224.338 477.474 224.326 479.467 224.391 481.904Z" fill="#504F68"/>
<path fill-rule="evenodd" clip-rule="evenodd" d="M151.224 24.3632C142.104 37.2852 131.573 46.4866 125.905 46.4866C124.784 46.4866 124.771 46.6503 125.554 50.7662C126.522 55.8462 127.213 58.5509 128.063 60.5937L128.886 62.5701H137.281C145.955 62.5701 146.674 62.6496 147.824 63.7262C148.903 64.7365 148.494 66.082 146.802 67.0958C146.577 67.2306 143.142 67.4019 139.169 67.4773L131.945 67.6134L134.618 70.2968L137.29 72.9801L137.528 75.0671C138.592 84.4108 137.985 89.848 135.711 91.3289C135.25 91.6295 134.683 91.9979 134.451 92.1478C134.091 92.38 134.937 94.259 140.088 104.688L146.149 116.955L147.109 115.456C150.969 109.425 160.984 93.4034 161.129 93.0248C161.286 92.6143 161.105 92.5569 159.658 92.5569C157.718 92.5569 157.048 91.9294 156.163 89.2855C154.884 85.4605 155.91 71.6332 157.822 66.932C159.817 62.0249 160.479 54.887 159.476 49.0766C158.061 40.878 156.513 34.1271 154.95 29.3277C153.761 25.6776 153.011 22.5444 153.238 22.1767C153.314 22.053 153.275 21.9521 153.151 21.9521C153.027 21.9521 152.16 23.0371 151.224 24.3632ZM94.819 54.1407C92.6297 55.2242 90.587 58.5468 91.2359 59.9697C91.5932 60.7554 92.3029 61.0657 95.0077 61.6199C96.132 61.8507 98.1561 62.3517 99.505 62.7339L101.959 63.4284L102.627 64.957C103.582 67.138 105.948 69.5345 109.031 71.4418L111.638 73.0547L112.9 76.0587C127.861 111.663 140.245 139.222 143.595 144.367C145.573 147.404 152.136 153.231 155.391 154.839C161.681 157.947 164.806 156.137 180.747 140.153C196.109 124.749 199.934 119.424 202.268 110.195C205.209 98.5622 201.11 92.5424 189.329 91.1914C183.104 90.4775 170.979 91.7816 170.652 93.2003C170.578 93.5209 169.957 96.5436 169.272 99.9173C166.37 114.205 165.61 116.942 163.87 119.38C161.928 122.101 153.58 129.459 153.068 128.899C152.677 128.47 134.304 100.795 129.577 93.5113C118.881 77.0352 116.219 72.5164 115.463 69.5656C113.849 63.2522 110.358 58.6698 105.186 56.0742C100.129 53.5367 97.1582 52.9825 94.819 54.1407ZM27.6806 69.1807C25.1382 73.1294 22.8197 78.6716 22.5778 81.3798C22.3871 83.5117 23.2081 85.6125 35.9946 115.728C44.7751 136.408 47.1655 142.16 49.506 148.241C53.0746 157.515 55.7642 160.708 60.0066 160.708C63.1405 160.708 64.8294 159.585 95.3387 137.208L106.438 129.067L107.837 129.776C108.607 130.166 109.308 130.415 109.394 130.328C109.587 130.136 116.54 94.9169 116.411 94.7876C116.118 94.4946 111.233 94.3011 109.229 94.5029C103.772 95.0537 102.123 96.035 91.8724 104.836C85.3385 110.445 65.0955 128.433 60.1607 133.015L59.254 133.856L58.5865 133.039C57.0876 131.201 47.9885 118.294 45.3266 114.229C37.8542 102.818 35.96 98.7024 33.2076 87.8999L32.4661 84.9899L34.0306 82.9803C39.3773 76.112 45.1206 68.2015 45.1206 67.7067C45.1206 67.5802 41.4435 67.4773 36.9489 67.4773H28.7779L27.6806 69.1807ZM215.226 352.911C207.762 354.486 196.165 356.246 187.829 357.067C184.996 357.347 184.301 357.497 184.366 357.814C184.411 358.031 193.397 383.792 204.335 415.06L224.222 471.909L224.247 474.624L224.272 477.338L227.859 480.689C236.431 488.698 240.987 490.677 243.976 487.689C245.587 486.077 245.666 484.779 244.273 482.814C241.188 478.464 240.974 477.954 239.619 471.699C237.537 462.097 233.944 444.482 231.734 433.04C230.589 427.117 229.414 421.045 229.123 419.545C224.294 394.716 219.989 366.333 219.416 355.552C219.315 353.64 219.159 352.089 219.069 352.105C218.98 352.121 217.25 352.484 215.226 352.911ZM99.9141 353.792C99.9141 353.869 101.392 361.09 103.199 369.837C115.433 429.085 123.122 467.975 124.265 476.384C124.411 477.461 123.999 478.292 121.373 482.213C119.504 485.004 119.495 486 121.324 487.724C124.413 490.637 129.21 488.494 137.657 480.428L140.805 477.421V473.002C140.805 468.35 137.057 357.506 136.894 357.343C136.843 357.291 135.156 357.127 133.146 356.977C123.82 356.284 103.353 354.282 100.8 353.813C100.313 353.724 99.9141 353.714 99.9141 353.792Z" fill="#E8BEAC"/>
<path fill-rule="evenodd" clip-rule="evenodd" d="M133.085 0.677761C123.981 2.43027 118.347 6.27874 113.541 14.0261C107.649 23.526 104.328 39.5909 105.647 52.2116C106.072 56.2908 106.147 56.5403 107.087 57.0261C108.208 57.6059 110.693 59.9776 111.681 61.4122L112.48 62.5704H120.645C125.136 62.5704 128.811 62.5131 128.811 62.4419C128.811 62.3714 128.501 61.6133 128.122 60.7571C127.306 58.9127 126.644 56.3779 125.693 51.4604C124.756 46.6175 124.762 46.4869 125.905 46.4869C131.573 46.4869 142.104 37.2855 151.224 24.3636C152.16 23.0374 153.027 21.9525 153.151 21.9525C153.275 21.9525 153.315 22.0534 153.239 22.1771C153.011 22.5447 153.761 25.6779 154.95 29.3281C156.513 34.1274 158.061 40.8783 159.476 49.077C160.479 54.8873 159.817 62.0252 157.822 66.9324C155.131 73.5499 154.84 88.375 157.336 91.6713L158.007 92.5572L160.787 92.5483C165.526 92.5331 173.523 92.0528 176.38 91.6126C194.268 88.8532 204.013 93.8723 203.088 105.369C202.28 115.428 197.917 122.662 184.093 136.869L180.031 141.042L179.092 150.255C178.575 155.322 178.152 159.882 178.152 160.389C178.152 161.197 214.135 256.992 214.645 257.542C215.83 258.819 229.886 252.735 233.519 249.371C239.591 243.749 239.913 238.518 234.714 229.943C227.425 217.924 228.652 214.082 243.032 203.911C255.538 195.063 259.318 189.388 258.04 181.379C256.745 173.267 252.17 166.949 239.592 155.907C226.469 144.385 226.379 144.072 232.135 130.041C236.663 119.004 237.442 116.057 237.432 110.004C237.411 97.4084 230.611 90.3417 210.393 81.9033C189.062 73.0012 186.536 70.3786 187.959 58.6176C189.904 42.5479 188.146 33.1351 181.29 22.9068C170.317 6.53581 150.389 -2.65311 133.085 0.677761ZM115.033 67.9544C115.134 68.217 115.381 69.1354 115.582 69.9951C116.032 71.9169 118.213 75.7598 123.982 84.7878C126.377 88.536 128.535 91.9394 128.778 92.3513C129.296 93.2289 129.303 93.2296 132.025 92.672C135.814 91.8952 137.307 90.594 137.72 87.7047C138.017 85.6267 137.933 78.276 137.579 75.348L137.293 72.9963L134.555 70.237L131.817 67.4776H123.333C115.365 67.4776 114.86 67.5066 115.033 67.9544Z" fill="#443C64"/>
<path fill-rule="evenodd" clip-rule="evenodd" d="M1.79177 62.9516C-0.349109 63.7255 -0.624839 65.6909 1.25344 66.7938C2.17669 67.3363 2.66457 67.3425 53.0706 67.4123L103.955 67.4835L102.957 65.4711C101.367 62.2667 106.821 62.5673 50.8274 62.5915C13.19 62.6081 2.52636 62.6862 1.79177 62.9516ZM113.768 65.0247L114.963 67.478H130.135C139.186 67.478 145.681 67.3708 146.234 67.2119C149.009 66.4158 149.131 63.8797 146.443 62.8617C145.931 62.6675 140.187 62.5708 129.124 62.5708H112.573L113.768 65.0247Z" fill="#ECD4C4"/>
</svg>
