<svg width="100%" height="100%" id="svg" version="1.1" xmlns="http://www.w3.org/2000/svg" xmlns:xlink="http://www.w3.org/1999/xlink" viewBox="0, 0, 400,551.004016064257"><g id="svgg"><path id="path0" d="M180.691 84.003 L 171.958 84.077 169.848 86.495 C 168.687 87.825,167.459 89.381,167.118 89.954 L 166.499 90.996 167.252 91.456 C 169.752 92.981,171.205 94.484,172.527 96.913 C 175.498 102.373,174.423 105.286,167.100 111.619 C 162.002 116.028,160.643 117.933,160.643 120.668 C 160.643 124.503,156.672 123.479,154.864 119.177 C 153.858 116.783,154.322 115.346,157.040 112.442 C 160.556 108.686,160.293 107.069,155.590 103.507 C 154.168 102.430,152.327 100.930,151.499 100.173 L 149.994 98.797 149.879 99.576 C 149.785 100.216,154.433 148.578,154.610 148.796 C 154.640 148.833,155.361 148.624,156.213 148.331 C 168.673 144.044,183.957 150.201,192.484 162.942 L 193.754 164.840 197.145 163.141 C 199.010 162.206,200.535 161.328,200.535 161.189 C 200.535 161.049,199.210 143.865,197.590 123.001 C 195.971 102.137,194.645 84.782,194.645 84.434 C 194.645 83.808,194.618 83.803,192.035 83.865 C 190.599 83.900,185.494 83.962,180.691 84.003 M121.409 89.593 C 121.033 94.106,121.652 96.523,123.629 98.264 C 125.452 99.868,125.504 99.723,124.612 95.529 C 124.402 94.543,124.229 92.736,124.227 91.513 C 124.222 87.638,124.098 87.282,122.747 87.282 L 121.601 87.282 121.409 89.593 M93.067 96.165 C 87.791 98.202,72.348 104.535,72.141 104.746 C 72.101 104.786,73.864 119.157,76.057 136.680 C 78.251 154.203,80.048 168.578,80.050 168.624 C 80.052 168.669,80.175 168.631,80.323 168.540 C 81.063 168.083,90.402 168.334,93.173 168.885 C 105.765 171.392,116.319 170.629,125.569 166.544 C 130.828 164.221,131.735 163.615,131.582 162.530 C 131.508 162.007,130.666 153.688,129.710 144.043 C 127.761 124.379,127.858 125.199,127.589 126.000 C 127.110 127.432,123.924 128.280,121.141 127.717 C 112.828 126.038,106.705 116.842,110.545 111.804 C 113.992 107.282,113.207 105.082,106.902 101.597 C 103.542 99.740,100.756 97.203,99.792 95.123 L 99.181 93.804 93.067 96.165 M124.922 115.060 C 122.001 117.919,122.204 120.040,125.718 123.372 C 128.035 125.569,127.895 125.862,127.311 120.048 C 126.582 112.793,126.792 113.230,124.922 115.060 M201.428 177.717 C 201.197 177.864,201.214 178.048,201.495 178.433 C 201.856 178.927,201.874 178.917,201.874 178.231 C 201.874 177.436,201.873 177.434,201.428 177.717 M204.630 218.474 C 204.466 218.842,204.009 219.863,203.615 220.742 C 200.399 227.926,194.649 234.245,188.128 237.762 C 185.360 239.256,183.752 239.753,177.740 240.971 C 170.555 242.428,165.460 244.115,165.463 245.036 C 165.464 245.561,166.230 249.957,166.696 252.115 C 167.417 255.451,170.286 256.683,181.526 258.485 C 188.193 259.554,207.847 261.586,208.191 261.242 C 208.280 261.153,205.464 223.437,205.017 218.742 C 204.929 217.815,204.925 217.812,204.630 218.474 " stroke="none" fill="#65c09d" fill-rule="evenodd"></path><path id="path1" d="M128.139 18.407 C 127.328 21.044,124.355 26.843,122.674 29.066 C 121.144 31.090,118.990 33.289,113.691 38.237 L 111.318 40.452 111.891 45.594 C 113.131 56.719,114.330 63.792,114.783 62.661 C 115.029 62.047,115.218 62.265,117.635 65.963 C 119.058 68.141,120.642 70.472,121.155 71.144 L 122.088 72.366 122.088 69.707 C 122.088 65.333,123.206 62.363,126.506 57.970 C 127.390 56.794,128.187 55.728,128.278 55.601 C 128.369 55.474,128.911 55.660,129.483 56.015 C 131.223 57.094,132.333 57.413,134.049 57.325 C 134.935 57.280,136.286 55.993,136.949 54.563 L 137.543 53.280 139.636 55.890 C 142.711 59.727,143.886 61.980,146.302 68.675 C 146.443 69.066,146.885 68.038,147.939 64.861 C 148.733 62.469,149.578 60.132,149.818 59.668 C 150.158 59.011,150.215 58.433,150.075 57.056 C 149.232 48.758,146.998 37.086,145.476 33.021 C 145.069 31.935,145.006 31.892,143.145 31.437 C 135.196 29.494,129.050 23.502,129.050 17.696 C 129.050 16.410,128.659 16.714,128.139 18.407 M131.650 65.046 C 126.232 70.740,125.318 74.323,128.541 77.235 C 132.190 80.531,135.775 78.666,134.607 74.079 C 134.256 72.702,134.260 72.557,134.646 72.554 C 134.881 72.552,135.516 72.478,136.057 72.388 C 137.018 72.229,137.056 72.256,137.713 73.553 C 138.083 74.283,138.830 75.270,139.372 75.747 L 140.358 76.612 141.153 75.856 C 144.660 72.524,142.770 66.245,137.504 63.731 C 134.346 62.224,134.333 62.227,131.650 65.046 M377.061 70.466 C 375.859 71.047,375.642 73.066,376.682 74.007 C 377.625 74.861,378.750 74.838,379.641 73.947 C 381.546 72.043,379.502 69.285,377.061 70.466 M144.523 78.497 C 138.796 84.208,132.604 84.430,124.987 79.199 C 123.609 78.253,123.153 79.508,123.587 83.054 C 123.781 84.631,124.052 88.004,124.191 90.551 C 124.526 96.697,125.215 99.049,127.223 100.899 C 128.724 102.281,129.636 103.704,130.153 105.467 C 131.143 108.844,139.383 115.111,141.856 114.368 C 144.924 113.447,148.891 106.326,149.802 100.102 C 149.968 98.967,149.903 98.754,148.995 97.490 C 146.832 94.480,146.514 91.979,147.662 86.996 L 148.335 84.071 147.502 80.255 C 147.043 78.156,146.649 76.439,146.627 76.439 C 146.605 76.439,145.658 77.365,144.523 78.497 M361.300 78.301 C 359.976 79.624,360.858 81.928,362.688 81.928 C 363.916 81.928,364.515 81.581,364.902 80.648 C 365.815 78.445,362.994 76.607,361.300 78.301 M380.207 80.759 C 379.015 82.274,380.007 84.337,381.928 84.337 C 383.917 84.337,384.844 82.045,383.472 80.522 C 382.778 79.752,380.891 79.889,380.207 80.759 M346.801 85.543 C 345.664 86.339,345.882 88.778,347.134 89.258 C 349.455 90.149,351.411 87.749,349.914 85.846 C 349.267 85.025,347.751 84.877,346.801 85.543 M365.596 87.595 C 363.627 88.764,364.271 91.834,366.485 91.834 C 369.191 91.834,369.577 87.890,366.917 87.417 C 366.485 87.340,365.890 87.420,365.596 87.595 M382.829 92.300 L 381.856 92.686 382.772 94.801 L 383.688 96.915 383.113 97.693 C 380.686 100.976,384.249 105.484,387.868 103.710 C 391.296 102.029,390.824 97.607,387.086 96.389 C 385.743 95.951,385.684 95.888,384.928 94.087 C 383.967 91.796,384.010 91.832,382.829 92.300 M350.834 95.092 C 348.841 96.057,349.687 99.170,351.941 99.170 C 352.708 99.170,353.099 98.994,353.582 98.432 C 355.225 96.522,353.133 93.979,350.834 95.092 M369.165 97.940 L 368.182 98.394 369.378 101.071 C 370.291 103.114,370.506 103.843,370.287 104.150 C 367.904 107.485,369.296 111.111,372.959 111.111 C 377.625 111.111,378.359 104.185,373.770 103.451 C 372.815 103.298,372.757 103.220,371.624 100.576 C 370.190 97.228,370.345 97.394,369.165 97.940 M355.489 104.193 C 354.564 104.531,354.548 104.389,355.841 107.372 L 356.931 109.883 356.377 110.868 C 354.808 113.660,356.551 116.732,359.705 116.732 C 364.679 116.732,365.016 109.864,360.084 109.022 L 358.920 108.824 357.864 106.353 C 356.772 103.797,356.715 103.746,355.489 104.193 M286.345 116.860 C 281.557 118.059,273.202 122.791,271.627 125.194 C 270.803 126.452,271.985 129.340,275.442 134.515 L 277.556 137.680 276.960 140.795 C 276.632 142.507,276.259 144.439,276.130 145.087 L 275.897 146.266 266.128 149.837 C 247.610 156.605,239.292 159.182,238.071 158.529 C 237.577 158.264,235.298 159.422,219.758 167.829 C 199.183 178.959,201.084 177.361,203.176 181.769 C 203.916 183.329,204.858 185.628,205.269 186.877 C 205.680 188.127,206.175 189.332,206.369 189.555 C 206.562 189.777,207.347 190.859,208.113 191.958 C 212.502 198.258,218.861 199.537,226.912 195.739 C 238.810 190.127,259.618 173.846,281.009 153.414 C 283.090 151.426,286.146 148.546,287.799 147.015 C 292.891 142.298,298.892 134.824,299.582 132.339 C 300.677 128.393,298.948 123.190,295.290 119.433 C 292.593 116.661,290.055 115.931,286.345 116.860 M219.547 146.473 C 208.911 148.832,205.915 149.910,201.935 152.810 L 199.988 154.229 200.159 156.432 C 200.253 157.643,200.406 159.237,200.500 159.973 L 200.669 161.312 214.650 154.203 C 230.735 146.025,229.135 147.004,228.389 145.797 C 227.652 144.605,228.142 144.568,219.547 146.473 M26.147 178.016 C 19.735 190.994,17.365 195.911,14.003 203.213 C 12.069 207.415,11.470 208.450,10.060 210.040 C 2.768 218.257,2.828 222.107,10.305 225.713 C 16.062 228.489,29.904 229.759,39.893 228.428 C 57.000 226.147,79.353 221.491,99.420 216.029 C 101.604 215.435,103.420 214.989,103.456 215.038 C 103.492 215.087,103.978 216.452,104.536 218.072 C 108.735 230.254,113.604 238.987,117.158 240.707 C 122.225 243.160,135.855 237.689,147.791 228.412 C 153.634 223.870,157.869 218.226,159.549 212.744 C 160.259 210.426,160.240 210.414,158.335 212.003 C 151.182 217.967,138.502 222.231,134.362 220.065 C 133.638 219.686,125.544 214.488,125.216 214.191 C 125.096 214.082,126.541 214.460,128.429 215.031 C 134.750 216.943,139.298 217.538,140.428 216.600 C 141.661 215.576,139.976 213.046,137.599 212.351 C 136.209 211.944,132.225 209.866,128.225 207.460 L 125.393 205.756 132.643 205.726 C 147.277 205.664,148.757 204.466,138.420 201.047 L 134.538 199.763 136.491 199.747 C 138.619 199.731,139.759 199.073,139.759 197.863 C 139.759 197.033,130.766 191.324,126.190 189.249 C 120.690 186.755,119.669 187.171,113.712 194.338 C 110.848 197.784,110.348 198.261,108.873 198.950 C 102.236 202.054,76.848 202.237,59.973 199.302 C 56.954 198.777,52.565 198.020,50.219 197.621 C 47.837 197.216,45.908 196.759,45.850 196.586 C 45.338 195.050,52.585 184.331,56.964 180.148 L 59.080 178.126 53.971 175.034 C 45.257 169.762,41.151 168.056,33.963 166.720 L 31.916 166.340 26.147 178.016 M152.550 497.498 C 147.148 506.779,147.916 510.129,155.673 511.133 C 158.735 511.529,160.438 512.123,162.453 513.498 C 168.937 517.924,180.591 519.529,184.371 516.517 C 186.055 515.176,185.267 513.951,180.054 509.805 C 175.778 506.406,171.510 502.463,168.991 499.587 L 166.934 497.239 166.131 497.975 C 161.946 501.807,155.374 501.348,153.553 497.096 L 153.227 496.335 152.550 497.498 M104.555 518.220 C 107.000 535.603,111.679 544.409,118.474 544.413 C 126.244 544.417,126.360 537.025,118.828 521.954 C 116.307 516.909,116.384 517.010,115.599 517.709 C 112.670 520.321,108.243 520.395,105.458 517.879 L 104.369 516.895 104.555 518.220 " stroke="none" fill="#f47c64" fill-rule="evenodd"></path><path id="path2" d="M362.214 75.462 L 339.556 86.613 336.323 90.228 L 333.091 93.842 311.020 105.087 L 288.950 116.332 290.250 116.503 C 293.111 116.878,297.661 121.077,298.678 124.281 C 298.924 125.057,298.076 125.481,319.143 114.065 L 338.554 103.546 342.838 103.839 C 345.399 104.013,347.958 104.352,349.202 104.681 C 352.239 105.484,353.656 105.196,358.285 102.834 C 362.339 100.766,365.340 99.459,376.037 95.101 C 390.426 89.240,396.516 86.415,397.095 85.333 C 398.007 83.629,396.658 77.810,394.288 73.226 C 392.663 70.085,386.728 64.198,385.274 64.287 C 385.054 64.300,374.676 69.329,362.214 75.462 M379.208 70.445 C 380.606 71.081,380.815 72.774,379.641 73.947 C 377.930 75.659,375.237 73.741,376.175 71.477 C 376.658 70.312,377.950 69.871,379.208 70.445 M364.180 78.009 C 364.941 78.588,365.265 79.771,364.902 80.648 C 363.993 82.842,360.643 82.125,360.643 79.738 C 360.643 78.119,362.883 77.024,364.180 78.009 M383.472 80.522 C 384.439 81.596,384.157 83.722,382.987 84.171 C 380.674 85.058,378.716 82.654,380.207 80.759 C 380.891 79.889,382.778 79.752,383.472 80.522 M349.914 85.846 C 351.411 87.749,349.455 90.149,347.134 89.258 C 346.448 88.995,345.860 87.616,346.055 86.728 C 346.418 85.076,348.867 84.516,349.914 85.846 M368.189 87.996 C 368.975 88.709,368.850 90.586,367.969 91.279 C 366.475 92.455,364.382 91.492,364.399 89.637 C 364.419 87.620,366.687 86.638,368.189 87.996 M352.970 95.076 C 355.040 96.020,354.249 99.170,351.941 99.170 C 351.175 99.170,350.783 98.994,350.300 98.432 C 348.669 96.536,350.666 94.027,352.970 95.076 M232.554 145.074 L 193.757 164.844 192.485 162.944 C 180.696 145.329,159.515 141.937,143.891 155.162 C 128.126 168.508,112.511 172.733,93.173 168.886 C 75.041 165.278,56.587 175.174,47.137 193.569 C 45.375 197.000,45.198 196.767,50.219 197.621 C 52.565 198.020,56.954 198.777,59.973 199.302 C 76.848 202.237,102.236 202.054,108.873 198.950 C 110.348 198.261,110.848 197.784,113.712 194.338 C 119.725 187.105,120.711 186.721,126.462 189.378 L 128.401 190.274 129.936 188.880 C 136.265 183.128,146.091 183.566,151.909 189.858 C 160.668 199.333,155.055 214.586,142.211 216.208 C 141.425 216.308,140.461 216.556,140.069 216.760 C 138.672 217.490,134.529 216.874,128.429 215.030 C 126.541 214.460,125.096 214.082,125.216 214.191 C 125.544 214.488,133.638 219.686,134.362 220.065 C 138.502 222.231,151.182 217.967,158.335 212.003 C 160.240 210.414,160.259 210.426,159.549 212.744 C 157.869 218.226,153.634 223.870,147.791 228.412 C 135.855 237.689,122.225 243.160,117.158 240.707 C 113.604 238.987,108.735 230.254,104.536 218.072 C 103.978 216.452,103.492 215.087,103.456 215.038 C 103.420 214.989,101.604 215.435,99.420 216.029 C 81.315 220.957,57.327 226.071,43.841 227.878 L 41.229 228.228 41.384 229.174 C 43.128 239.839,46.603 248.606,51.946 255.823 C 52.491 256.560,53.559 258.514,54.319 260.167 C 65.047 283.498,89.732 294.426,110.977 285.251 C 117.148 282.586,119.901 280.431,129.585 270.688 C 147.326 252.838,161.081 244.349,177.740 240.971 C 183.752 239.753,185.360 239.256,188.128 237.762 C 206.305 227.958,213.113 201.766,202.845 181.144 L 201.205 177.851 239.023 157.405 C 259.823 146.160,276.841 136.890,276.841 136.806 C 276.841 136.721,276.049 135.454,275.081 133.989 C 272.844 130.603,271.441 127.700,271.391 126.354 C 271.370 125.777,271.352 125.304,271.352 125.305 C 271.352 125.305,253.893 134.201,232.554 145.074 " stroke="none" fill="#e08341" fill-rule="evenodd"></path><path id="path3" d="M127.845 4.446 C 116.123 6.169,106.682 14.876,102.441 27.876 C 99.821 35.906,100.708 50.079,104.759 64.926 C 107.283 74.179,106.963 76.815,102.586 82.806 C 96.437 91.223,97.645 96.480,106.902 101.597 C 113.207 105.082,113.992 107.282,110.545 111.804 C 106.705 116.842,112.828 126.038,121.141 127.717 C 123.923 128.280,127.099 127.435,127.596 126.000 C 127.849 125.269,127.665 123.689,129.814 145.040 C 130.810 154.940,131.698 163.113,131.789 163.203 C 132.211 163.626,140.029 158.431,143.891 155.162 C 146.575 152.891,151.989 149.603,154.016 149.015 C 154.645 148.832,154.770 150.487,152.125 123.989 L 149.789 100.589 149.285 102.570 C 147.849 108.207,144.462 113.586,141.856 114.368 C 139.383 115.111,131.143 108.844,130.153 105.467 C 129.638 103.708,128.672 102.192,127.294 100.979 C 126.549 100.324,125.857 99.390,125.538 98.610 C 125.011 97.324,125.011 97.324,125.139 98.327 C 125.301 99.590,125.127 99.582,123.629 98.264 C 120.526 95.532,120.502 84.441,123.590 79.708 L 124.252 78.694 124.977 79.192 C 132.759 84.539,138.843 84.226,144.903 78.166 L 147.238 75.831 147.808 77.009 C 148.813 79.085,148.811 81.771,147.800 86.347 C 146.009 94.453,147.262 97.246,155.460 103.419 C 160.306 107.069,160.584 108.655,157.040 112.442 C 154.322 115.346,153.858 116.783,154.864 119.177 C 156.672 123.479,160.643 124.503,160.643 120.668 C 160.643 117.933,162.002 116.028,167.100 111.619 C 174.423 105.286,175.498 102.373,172.527 96.913 C 171.206 94.486,169.749 92.979,167.259 91.460 L 166.513 91.005 167.072 90.014 C 167.380 89.469,168.832 87.650,170.299 85.973 C 176.608 78.759,176.653 75.062,170.517 68.005 C 165.553 62.296,165.505 62.165,164.393 51.320 C 162.612 33.951,160.966 27.991,155.748 20.007 C 148.366 8.714,138.030 2.950,127.845 4.446 M129.050 17.696 C 129.050 23.502,135.196 29.494,143.145 31.437 C 145.006 31.892,145.069 31.935,145.476 33.021 C 146.998 37.086,149.232 48.758,150.075 57.056 C 150.215 58.433,150.158 59.011,149.818 59.668 C 149.578 60.132,148.733 62.469,147.939 64.861 C 146.885 68.038,146.443 69.066,146.302 68.675 C 143.886 61.980,142.711 59.727,139.636 55.890 L 137.543 53.280 136.949 54.563 C 135.490 57.713,133.002 58.197,129.483 56.015 C 128.911 55.660,128.369 55.474,128.278 55.601 C 128.187 55.728,127.390 56.794,126.506 57.970 C 123.206 62.363,122.088 65.333,122.088 69.707 L 122.088 72.366 121.155 71.144 C 120.642 70.472,119.058 68.141,117.635 65.963 C 115.218 62.265,115.029 62.047,114.783 62.661 C 114.330 63.792,113.131 56.719,111.891 45.594 L 111.318 40.452 113.691 38.237 C 118.990 33.289,121.144 31.090,122.674 29.066 C 124.355 26.843,127.328 21.044,128.139 18.407 C 128.659 16.714,129.050 16.410,129.050 17.696 M137.504 63.731 C 142.770 66.245,144.660 72.524,141.153 75.856 L 140.358 76.612 139.372 75.747 C 138.830 75.270,138.083 74.283,137.713 73.553 C 137.056 72.256,137.018 72.229,136.057 72.388 C 135.516 72.478,134.881 72.552,134.646 72.554 C 134.260 72.557,134.256 72.702,134.607 74.079 C 135.775 78.666,132.190 80.531,128.541 77.235 C 125.318 74.323,126.232 70.740,131.650 65.046 C 134.333 62.227,134.346 62.224,137.504 63.731 M194.645 84.441 C 194.645 84.793,195.850 100.590,197.323 119.545 C 198.795 138.500,200.000 154.057,200.000 154.115 C 200.000 154.173,200.873 153.584,201.941 152.806 C 206.008 149.842,209.192 148.724,220.498 146.293 L 227.743 144.735 225.756 140.440 C 224.664 138.077,221.023 129.759,217.666 121.954 C 206.693 96.442,201.449 85.978,198.826 84.357 C 197.432 83.495,194.645 83.551,194.645 84.441 M69.697 108.553 C 66.736 109.494,62.987 111.569,61.540 113.068 C 58.827 115.880,47.820 135.496,36.111 158.389 C 31.469 167.464,31.802 166.421,33.481 166.643 C 39.604 167.456,45.559 169.900,54.117 175.114 C 59.661 178.492,59.049 178.293,60.394 177.155 C 60.972 176.665,61.908 175.954,62.473 175.575 C 63.808 174.679,72.456 162.831,76.816 155.925 L 78.189 153.751 75.323 130.825 C 72.888 111.339,72.395 107.902,72.039 107.920 C 71.808 107.932,70.755 108.217,69.697 108.553 M126.759 114.926 C 127.005 116.767,127.711 123.977,127.711 124.647 C 127.711 125.174,127.426 124.992,125.718 123.372 C 122.204 120.040,122.001 117.919,124.922 115.060 C 126.507 113.509,126.569 113.504,126.759 114.926 M138.286 184.913 C 135.175 185.407,132.227 186.805,129.915 188.883 C 128.247 190.384,128.176 190.206,131.112 191.880 C 135.928 194.624,139.759 197.275,139.759 197.863 C 139.759 199.073,138.619 199.731,136.491 199.747 L 134.538 199.763 138.420 201.047 C 148.733 204.458,147.275 205.657,132.732 205.724 C 128.793 205.742,125.570 205.779,125.570 205.806 C 125.562 206.207,135.988 211.880,137.599 212.351 C 139.250 212.833,140.830 214.380,140.830 215.512 L 140.830 216.382 142.236 216.205 C 155.055 214.589,160.663 199.307,151.904 189.858 C 148.530 186.218,142.912 184.178,138.286 184.913 M160.633 246.940 C 149.153 252.741,141.978 258.230,129.585 270.692 C 115.680 284.674,108.526 288.392,95.385 288.466 C 92.128 288.484,91.590 288.546,91.692 288.889 C 91.758 289.110,92.597 294.290,93.558 300.402 C 99.011 335.077,102.550 362.255,104.139 381.660 C 105.467 397.871,105.500 423.834,104.255 472.691 C 103.703 494.360,103.625 514.319,104.086 515.835 C 105.421 520.225,112.485 521.037,116.099 517.216 C 120.885 512.156,138.999 423.700,141.748 391.963 C 142.354 384.957,142.672 373.692,142.973 348.461 C 143.350 316.911,143.782 306.058,145.005 297.323 C 146.002 290.202,147.618 286.707,151.558 283.148 C 154.408 280.573,154.923 280.821,156.418 285.487 C 157.089 287.579,158.786 292.845,160.189 297.189 C 167.743 320.564,174.521 343.134,177.275 354.083 C 179.363 362.380,179.444 362.926,179.627 369.880 C 179.825 377.367,179.738 377.069,182.757 380.594 C 184.044 382.096,184.706 383.082,184.617 383.364 C 176.069 410.338,164.479 449.880,159.966 467.470 C 158.739 472.256,156.833 479.439,155.731 483.432 C 151.991 496.991,152.521 499.822,158.931 500.545 C 163.694 501.083,166.184 499.077,169.933 491.685 C 184.902 462.167,216.446 387.607,219.314 374.967 C 221.516 365.258,216.539 326.194,205.599 267.336 C 204.970 263.949,204.446 261.157,204.434 261.132 C 204.423 261.106,202.306 260.890,199.730 260.651 C 181.462 258.957,169.695 256.710,167.640 254.524 C 167.069 253.916,166.420 251.309,165.713 246.787 C 165.534 245.646,165.310 244.712,165.214 244.712 C 165.119 244.712,163.057 245.715,160.633 246.940 " stroke="none" fill="#443c64" fill-rule="evenodd"></path><path id="path4" d="" stroke="none" fill="#7078a8" fill-rule="evenodd"></path><path id="path5" d="" stroke="none" fill="#707c4c" fill-rule="evenodd"></path><path id="path6" d="" stroke="none" fill="#743c4c" fill-rule="evenodd"></path><path id="path7" d="" stroke="none" fill="#443c68" fill-rule="evenodd"></path><path id="path8" d="" stroke="none" fill="#443c68" fill-rule="evenodd"></path></g></svg>