<svg id="svg" version="1.1" xmlns="http://www.w3.org/2000/svg" xmlns:xlink="http://www.w3.org/1999/xlink" width="400" height="861.744966442953" viewBox="0, 0, 400,861.744966442953"><g id="svgg"><path id="path0" d="M255.800 5.176 C 253.831 5.704,250.800 7.144,250.800 7.551 C 250.800 7.760,249.899 8.486,248.798 9.163 C 247.698 9.840,246.488 10.756,246.110 11.197 C 245.731 11.639,245.265 12.000,245.073 12.000 C 244.881 12.000,244.235 12.348,243.639 12.772 C 243.042 13.197,241.754 13.863,240.777 14.251 C 239.800 14.640,238.784 15.170,238.520 15.430 C 236.985 16.941,224.803 16.769,223.600 15.219 C 223.490 15.077,222.320 14.657,221.000 14.284 C 213.175 12.074,211.366 11.600,210.751 11.600 C 210.374 11.600,210.003 11.408,209.924 11.172 C 209.566 10.098,194.357 10.065,193.616 11.137 C 193.497 11.309,192.323 11.686,191.008 11.974 C 188.228 12.584,182.375 14.618,182.034 15.093 C 181.905 15.271,180.559 15.986,179.041 16.681 C 177.524 17.377,175.820 18.318,175.255 18.773 C 174.689 19.228,174.098 19.600,173.942 19.600 C 173.442 19.600,168.669 22.559,167.658 23.497 C 167.122 23.993,166.461 24.400,166.189 24.400 C 165.917 24.400,164.974 25.120,164.094 26.000 C 163.214 26.880,162.338 27.602,162.147 27.605 C 161.684 27.611,156.000 33.377,156.000 33.840 C 156.000 34.039,155.469 34.703,154.821 35.315 C 154.173 35.927,153.240 37.232,152.749 38.216 C 152.258 39.199,151.572 40.317,151.223 40.701 C 150.875 41.086,150.295 42.120,149.935 43.000 C 148.251 47.117,147.600 48.963,147.600 49.620 C 147.600 50.012,147.435 50.393,147.233 50.467 C 146.022 50.907,144.584 64.581,144.968 72.000 C 145.268 77.784,146.733 90.100,147.156 90.398 C 147.314 90.509,148.136 94.560,148.982 99.400 C 149.828 104.240,150.701 108.318,150.921 108.461 C 151.534 108.861,151.515 115.691,150.900 115.898 C 150.625 115.991,150.400 116.354,150.400 116.705 C 150.400 117.441,147.963 121.174,147.473 121.190 C 147.294 121.195,146.574 121.635,145.873 122.167 C 145.173 122.698,143.790 123.451,142.800 123.839 C 141.810 124.227,140.900 124.691,140.778 124.871 C 140.655 125.050,138.315 125.851,135.578 126.651 C 132.840 127.451,130.510 128.220,130.400 128.359 C 130.290 128.499,128.130 129.207,125.600 129.933 C 123.070 130.659,120.280 131.583,119.400 131.986 C 117.489 132.862,113.511 134.526,111.700 135.208 C 110.985 135.477,110.400 135.853,110.400 136.043 C 110.400 136.234,109.815 136.658,109.100 136.987 C 106.920 137.990,105.474 138.950,103.800 140.508 C 102.920 141.326,101.975 141.997,101.699 141.998 C 101.424 141.999,100.552 142.900,99.762 144.000 C 98.972 145.100,98.172 146.000,97.984 146.000 C 97.797 146.000,96.477 147.755,95.051 149.900 C 92.764 153.341,91.753 155.366,90.909 158.200 C 90.777 158.640,90.522 159.099,90.341 159.220 C 89.131 160.028,87.414 172.115,87.815 177.000 C 88.212 181.835,89.747 188.400,90.480 188.400 C 90.656 188.400,90.800 188.579,90.800 188.798 C 90.800 189.442,93.450 194.991,94.059 195.622 C 94.366 195.940,95.240 197.190,96.002 198.400 C 96.765 199.610,97.976 201.213,98.694 201.961 C 99.412 202.710,100.000 203.536,100.000 203.796 C 100.000 204.057,100.809 205.064,101.797 206.035 C 102.785 207.006,103.595 207.985,103.597 208.211 C 103.599 208.437,104.180 209.247,104.889 210.011 C 106.343 211.577,107.235 212.983,108.430 215.592 C 108.881 216.578,109.422 217.490,109.633 217.620 C 110.889 218.396,110.843 227.200,109.583 227.200 C 109.424 227.200,109.187 227.515,109.058 227.900 C 108.616 229.212,107.214 231.397,105.786 233.000 C 103.569 235.489,98.800 241.608,98.800 241.962 C 98.800 242.138,98.266 242.841,97.612 243.524 C 96.959 244.208,96.169 245.379,95.856 246.127 C 95.544 246.875,94.936 247.827,94.506 248.243 C 94.076 248.660,93.073 250.535,92.276 252.410 C 91.480 254.286,90.553 256.373,90.216 257.048 C 87.999 261.493,86.950 274.770,88.340 280.800 C 89.434 285.547,90.163 288.209,90.420 288.400 C 90.567 288.510,91.190 290.040,91.803 291.800 C 92.933 295.043,93.902 297.236,94.367 297.600 C 94.508 297.710,95.230 299.150,95.973 300.800 C 96.715 302.450,97.655 304.122,98.061 304.516 C 98.467 304.909,98.800 305.428,98.800 305.668 C 98.800 305.908,99.430 306.981,100.200 308.053 C 100.970 309.125,101.600 310.074,101.600 310.162 C 101.600 310.671,109.030 318.396,109.529 318.405 C 109.678 318.408,110.567 319.123,111.505 319.994 C 113.664 321.998,114.758 322.602,115.282 322.078 C 115.733 321.627,117.268 313.993,117.992 308.600 C 118.258 306.620,118.623 304.640,118.804 304.200 C 119.403 302.735,121.572 279.641,122.203 268.000 C 122.341 265.470,122.605 263.040,122.791 262.600 C 122.977 262.160,123.511 254.780,123.977 246.200 C 125.478 218.578,126.048 209.817,126.399 209.000 C 126.587 208.560,126.852 206.580,126.986 204.600 C 128.146 187.558,130.178 180.514,135.304 175.768 C 136.592 174.575,137.833 173.600,138.061 173.600 C 138.290 173.600,138.954 173.271,139.538 172.868 C 141.345 171.622,145.179 170.480,150.600 169.573 C 153.460 169.094,156.160 168.553,156.600 168.369 C 157.040 168.186,159.290 167.749,161.600 167.398 C 167.129 166.558,173.648 165.261,174.400 164.851 C 174.730 164.671,175.990 164.299,177.200 164.024 C 181.054 163.148,188.593 161.072,188.800 160.829 C 188.910 160.700,190.620 160.079,192.600 159.449 C 194.580 158.820,197.100 157.885,198.200 157.371 C 200.403 156.343,205.992 154.000,206.242 154.000 C 206.329 154.000,206.400 155.072,206.400 156.381 C 206.400 161.327,211.078 166.091,217.451 167.636 C 218.523 167.896,219.571 168.264,219.780 168.454 C 220.272 168.902,227.322 168.906,227.820 168.459 C 228.029 168.271,229.100 167.887,230.200 167.604 C 234.326 166.543,238.302 162.950,239.243 159.430 C 239.482 158.533,239.825 157.620,240.004 157.400 C 240.184 157.180,240.551 155.180,240.821 152.955 L 241.311 148.909 247.155 148.238 C 256.278 147.191,264.783 146.417,267.276 146.408 C 268.528 146.404,269.664 146.220,269.800 146.000 C 269.951 145.756,273.004 145.600,277.624 145.600 C 281.791 145.600,285.200 145.525,285.200 145.433 C 285.200 144.820,283.555 141.600,283.241 141.600 C 283.028 141.600,282.730 141.195,282.579 140.700 C 282.427 140.205,281.695 138.945,280.952 137.899 C 280.208 136.854,279.600 135.927,279.600 135.839 C 279.600 135.752,278.966 134.987,278.192 134.140 C 277.418 133.293,276.464 132.240,276.073 131.800 C 275.273 130.899,272.374 128.288,269.190 125.600 C 268.018 124.610,266.394 123.215,265.581 122.500 C 264.768 121.785,264.014 121.200,263.904 121.200 C 263.663 121.200,260.000 117.565,260.000 117.326 C 260.000 116.957,257.778 114.400,257.458 114.400 C 257.269 114.400,256.770 114.839,256.347 115.376 C 254.934 117.173,247.664 121.597,246.116 121.602 C 245.722 121.604,244.884 121.874,244.254 122.202 C 243.624 122.531,242.814 122.800,242.454 122.800 C 241.867 122.799,241.814 123.568,241.934 130.300 C 242.119 140.637,241.699 148.413,240.971 148.133 C 240.668 148.017,239.831 148.282,239.110 148.721 C 232.657 152.654,216.685 152.854,209.900 149.086 C 208.155 148.117,208.155 148.116,209.191 145.896 C 210.496 143.096,212.719 135.364,213.016 132.587 C 213.169 131.158,213.453 129.891,213.647 129.771 C 214.136 129.469,214.093 123.705,213.600 123.400 C 213.380 123.264,213.200 122.524,213.200 121.755 C 213.200 117.512,212.078 114.883,209.530 113.152 C 206.879 111.352,199.600 104.236,199.600 103.444 C 199.600 103.169,199.156 102.559,198.614 102.087 C 193.573 97.703,195.101 94.182,206.909 82.974 C 207.619 82.300,209.242 80.590,210.516 79.174 C 211.791 77.758,213.293 76.128,213.854 75.551 C 214.416 74.974,215.084 74.126,215.338 73.668 C 215.592 73.209,216.474 71.881,217.298 70.716 C 221.483 64.800,221.526 60.025,217.433 55.600 C 208.716 46.177,211.268 36.552,223.984 30.892 C 225.203 30.350,227.280 29.410,228.600 28.803 C 236.817 25.024,243.255 27.307,250.316 36.501 C 254.167 41.516,261.600 57.288,261.600 60.445 C 261.600 60.907,261.988 61.282,262.636 61.445 C 263.802 61.737,266.800 60.974,266.800 60.384 C 266.800 60.173,267.118 60.000,267.507 60.000 C 267.896 60.000,268.877 59.550,269.686 59.000 C 270.495 58.450,271.262 58.000,271.389 58.000 C 272.165 58.000,276.447 52.866,277.612 50.539 C 278.367 49.032,279.096 47.710,279.234 47.600 C 279.655 47.263,281.146 41.958,281.635 39.054 C 282.706 32.701,281.199 19.726,279.237 18.406 C 279.068 18.293,278.432 17.342,277.823 16.293 C 277.214 15.243,276.080 13.803,275.303 13.093 C 274.526 12.382,273.525 11.397,273.078 10.905 C 272.630 10.413,271.530 9.635,270.632 9.176 C 269.735 8.717,268.820 8.129,268.600 7.871 C 267.237 6.267,258.551 4.439,255.800 5.176 M288.800 94.368 C 288.800 94.571,288.285 94.849,287.657 94.988 C 284.137 95.761,279.600 100.642,279.600 103.656 C 279.600 104.065,279.420 104.400,279.200 104.400 C 278.965 104.400,278.800 105.800,278.800 107.800 C 278.800 109.670,278.966 111.200,279.168 111.200 C 279.371 111.200,279.664 111.780,279.820 112.489 C 280.462 115.412,283.450 118.769,286.400 119.881 C 287.390 120.254,288.329 120.748,288.486 120.979 C 288.913 121.608,296.488 121.535,296.700 120.900 C 296.792 120.625,297.181 120.400,297.565 120.400 C 297.949 120.400,299.067 119.867,300.050 119.216 L 301.838 118.032 305.019 119.296 C 306.768 119.991,308.290 120.667,308.400 120.799 C 308.649 121.097,312.780 122.800,313.253 122.800 C 313.444 122.800,313.603 121.675,313.606 120.300 C 313.617 115.807,315.605 115.756,324.200 120.028 L 329.000 122.414 329.898 121.307 C 331.084 119.845,331.134 119.945,328.506 118.586 C 327.245 117.934,326.030 117.193,325.806 116.940 C 325.583 116.687,323.871 115.816,322.002 115.005 C 320.134 114.195,318.514 113.391,318.402 113.220 C 318.291 113.048,316.671 112.238,314.802 111.420 C 312.934 110.601,311.314 109.796,311.202 109.631 C 311.091 109.467,309.991 108.874,308.758 108.315 C 306.541 107.309,306.513 107.274,306.244 105.249 C 306.095 104.122,305.799 103.200,305.586 103.200 C 305.374 103.200,305.200 102.867,305.200 102.460 C 305.200 102.053,304.660 100.975,304.000 100.063 C 303.340 99.152,302.800 98.225,302.800 98.003 C 302.800 97.782,302.601 97.600,302.358 97.600 C 302.115 97.600,301.373 97.144,300.710 96.586 C 300.047 96.028,298.716 95.361,297.752 95.103 C 296.789 94.845,296.000 94.491,296.000 94.317 C 296.000 94.143,294.380 94.000,292.400 94.000 C 290.420 94.000,288.800 94.166,288.800 94.368 M334.400 125.200 C 334.083 125.396,333.956 125.689,334.118 125.852 C 334.281 126.014,334.623 125.937,334.880 125.680 C 335.484 125.076,335.147 124.738,334.400 125.200 M340.400 127.800 C 339.630 128.325,338.739 128.764,338.420 128.777 C 337.969 128.795,337.947 128.907,338.320 129.280 C 338.912 129.872,338.954 132.258,338.378 132.613 C 337.978 132.861,343.942 136.000,344.812 136.000 C 345.038 136.000,346.523 136.613,348.111 137.362 C 349.700 138.111,351.714 139.017,352.586 139.377 C 353.458 139.737,354.268 140.175,354.386 140.351 C 354.504 140.527,356.125 141.249,357.989 141.956 C 359.854 142.664,361.474 143.377,361.589 143.542 C 361.705 143.706,362.700 144.164,363.800 144.558 C 367.911 146.032,370.209 147.005,370.508 147.396 C 370.693 147.640,371.167 147.324,371.703 146.600 C 372.192 145.940,372.953 145.029,373.396 144.575 C 375.417 142.503,375.565 140.830,373.729 140.806 C 373.469 140.803,372.997 140.540,372.680 140.223 C 372.363 139.906,370.419 138.888,368.361 137.961 C 366.303 137.034,364.382 136.039,364.092 135.749 C 363.802 135.459,362.807 134.997,361.882 134.723 C 360.957 134.448,357.774 133.003,354.808 131.512 C 348.572 128.375,348.978 128.451,346.571 129.978 C 342.739 132.408,340.274 131.851,341.790 128.897 C 342.212 128.073,342.623 127.265,342.702 127.100 C 342.993 126.497,341.764 126.871,340.400 127.800 M160.800 231.967 C 160.800 233.048,160.657 233.993,160.481 234.067 C 160.306 234.140,159.761 238.160,159.271 243.000 C 158.000 255.545,156.805 265.270,156.420 266.200 C 156.238 266.640,155.418 271.851,154.598 277.780 C 153.778 283.709,152.962 288.839,152.786 289.180 C 152.610 289.521,152.257 291.150,152.001 292.800 C 151.066 298.854,149.158 308.882,148.818 309.531 C 148.626 309.899,148.259 311.280,148.002 312.600 C 147.168 316.888,145.595 323.380,145.191 324.200 C 144.616 325.366,142.800 331.622,142.800 332.435 C 142.800 333.016,143.367 333.180,146.300 333.445 C 153.875 334.131,172.400 333.411,172.400 332.430 C 172.400 332.279,173.795 331.923,175.500 331.638 C 186.198 329.852,187.466 329.051,189.174 323.000 C 189.857 320.580,190.581 318.240,190.783 317.800 C 193.911 310.987,193.755 300.720,190.410 293.382 C 190.005 292.492,189.315 290.673,188.877 289.340 C 188.440 288.007,187.632 285.945,187.083 284.758 C 186.533 283.571,185.495 281.160,184.775 279.400 C 184.054 277.640,182.775 274.726,181.933 272.924 C 181.090 271.122,180.400 269.502,180.400 269.325 C 180.400 269.147,179.654 267.471,178.741 265.601 C 177.829 263.730,176.225 260.400,175.176 258.200 C 169.816 246.952,161.364 230.028,161.100 230.015 C 160.935 230.007,160.800 230.885,160.800 231.967 M188.293 665.100 C 188.178 665.705,187.398 674.570,186.558 684.800 C 185.717 695.030,184.921 703.490,184.787 703.600 C 184.586 703.766,182.639 726.140,181.724 738.800 C 181.589 740.670,181.359 742.290,181.213 742.400 C 181.067 742.510,180.159 752.500,179.194 764.600 C 178.230 776.700,177.322 786.690,177.177 786.800 C 177.032 786.910,176.784 788.800,176.626 791.000 C 176.467 793.200,176.193 795.720,176.016 796.600 C 175.385 799.739,173.866 805.004,173.526 805.230 C 173.335 805.356,172.544 807.420,171.767 809.816 C 170.991 812.212,170.183 814.379,169.973 814.633 C 169.576 815.111,167.068 822.671,166.602 824.793 C 166.456 825.457,166.193 826.000,166.018 826.000 C 165.035 826.000,163.047 838.091,163.277 842.672 C 163.589 848.893,166.979 853.600,171.147 853.600 C 171.836 853.600,172.400 853.780,172.400 854.000 C 172.400 854.220,173.030 854.400,173.800 854.400 C 174.570 854.400,175.200 854.220,175.200 854.000 C 175.200 853.780,175.722 853.600,176.360 853.600 C 181.952 853.600,188.400 845.036,188.400 837.609 C 188.400 836.980,188.578 836.407,188.795 836.333 C 189.252 836.179,189.830 826.967,190.386 811.000 C 190.755 800.427,191.558 792.923,192.376 792.413 C 192.750 792.180,193.674 789.049,193.524 788.526 C 193.472 788.347,193.627 787.840,193.868 787.400 C 194.108 786.960,194.437 785.970,194.599 785.200 C 194.760 784.430,195.031 783.620,195.200 783.400 C 195.369 783.180,195.633 782.415,195.786 781.700 C 195.938 780.985,196.210 780.400,196.388 780.400 C 196.567 780.400,196.831 779.905,196.974 779.300 C 197.481 777.161,199.780 770.197,200.044 770.000 C 200.191 769.890,200.960 767.750,201.752 765.245 C 202.545 762.740,203.354 760.490,203.550 760.245 C 203.747 760.000,204.665 757.415,205.591 754.500 C 206.517 751.585,207.438 749.200,207.637 749.200 C 207.837 749.200,208.000 748.986,208.000 748.724 C 208.000 747.882,210.907 739.021,211.387 738.400 C 211.643 738.070,212.548 735.550,213.400 732.800 C 214.252 730.050,215.080 727.709,215.241 727.597 C 215.579 727.362,218.400 718.900,218.400 718.121 C 218.400 717.835,218.544 717.600,218.720 717.600 C 219.070 717.600,219.297 716.992,221.251 710.800 C 221.979 708.490,222.681 706.510,222.808 706.400 C 223.134 706.120,224.190 703.141,225.218 699.600 C 225.697 697.950,226.247 696.501,226.441 696.379 C 226.634 696.257,227.421 694.020,228.190 691.406 C 228.959 688.793,229.745 686.552,229.937 686.427 C 230.128 686.302,231.057 683.590,232.000 680.400 C 232.943 677.210,233.868 674.540,234.057 674.467 C 235.374 673.955,233.181 673.798,224.500 673.783 C 214.413 673.767,210.580 673.371,204.800 671.753 C 201.315 670.777,193.567 667.105,189.842 664.664 C 188.534 663.807,188.537 663.806,188.293 665.100 M284.918 679.300 C 285.052 682.655,285.474 694.760,285.857 706.200 C 286.240 717.640,286.699 727.060,286.876 727.133 C 287.054 727.207,287.200 728.826,287.200 730.731 C 287.200 736.883,288.962 782.361,289.864 799.500 C 290.006 802.195,290.248 804.400,290.402 804.400 C 290.556 804.400,290.804 806.286,290.953 808.592 C 291.359 814.872,292.833 821.504,294.138 822.920 C 294.392 823.196,295.303 824.812,296.162 826.511 C 297.022 828.210,297.846 829.600,297.995 829.600 C 298.144 829.600,298.853 830.507,299.572 831.617 C 300.291 832.726,301.311 833.916,301.839 834.263 C 302.368 834.609,302.800 835.132,302.800 835.426 C 302.800 835.719,303.473 836.463,304.294 837.080 C 305.116 837.696,306.340 838.740,307.013 839.400 C 307.686 840.060,309.219 841.048,310.418 841.596 C 311.618 842.143,312.721 842.762,312.870 842.971 C 313.430 843.757,318.150 843.411,319.211 842.505 C 319.755 842.041,320.606 841.332,321.103 840.930 C 323.865 838.695,324.362 829.980,322.192 821.802 C 321.609 819.604,320.979 817.710,320.792 817.595 C 320.605 817.480,319.984 815.948,319.411 814.193 C 318.269 810.693,314.359 803.507,312.913 802.250 C 312.411 801.813,312.000 801.296,312.000 801.101 C 312.000 800.766,310.090 798.029,309.556 797.600 C 308.523 796.769,307.481 793.511,307.295 790.532 C 307.096 787.341,308.836 776.181,309.624 775.600 C 309.773 775.490,310.581 771.170,311.420 766.000 C 312.259 760.830,313.057 756.510,313.193 756.400 C 313.329 756.290,314.119 751.430,314.950 745.600 C 315.780 739.770,316.607 734.719,316.786 734.375 C 317.241 733.505,318.119 726.488,317.859 725.809 C 317.741 725.502,317.796 725.195,317.980 725.126 C 318.293 725.008,318.850 721.105,320.051 710.600 C 320.327 708.180,320.681 706.110,320.837 706.000 C 321.227 705.725,322.929 689.786,322.697 688.576 C 322.595 688.039,322.633 687.600,322.782 687.600 C 323.010 687.600,324.008 678.735,324.002 676.763 C 324.000 676.226,323.703 676.176,322.100 676.443 C 313.868 677.814,292.577 676.491,289.800 674.436 C 289.259 674.035,286.279 673.200,285.391 673.200 C 284.723 673.200,284.691 673.614,284.918 679.300 " stroke="none" fill="#443c64" fill-rule="evenodd"></path><path id="path1" d="M233.600 27.044 C 233.270 27.170,232.280 27.591,231.400 27.981 C 230.520 28.370,228.881 28.990,227.757 29.357 C 218.107 32.517,209.691 42.233,212.384 47.105 C 212.595 47.487,213.335 49.018,214.029 50.507 C 214.723 51.996,216.039 54.066,216.954 55.107 C 221.401 60.165,221.908 62.088,219.881 66.201 C 219.339 67.301,218.591 68.861,218.218 69.668 C 217.238 71.787,212.002 77.941,207.043 82.800 C 196.943 92.696,194.832 95.756,196.234 98.465 C 197.786 101.467,203.122 107.530,207.302 111.042 C 212.381 115.310,212.661 115.668,213.143 118.498 C 214.306 125.340,213.979 133.433,212.394 137.000 C 212.004 137.880,211.121 140.490,210.434 142.800 C 209.746 145.110,209.007 147.060,208.792 147.133 C 208.293 147.303,208.276 148.400,208.772 148.400 C 208.977 148.400,210.352 148.959,211.828 149.642 C 217.660 152.342,231.852 152.601,235.370 150.073 C 236.372 149.353,240.457 147.936,240.966 148.132 C 241.706 148.416,242.126 140.625,241.938 130.100 C 241.801 122.439,241.804 122.399,242.662 122.400 C 245.616 122.401,252.703 118.789,255.589 115.811 C 256.341 115.035,257.151 114.400,257.388 114.400 C 257.624 114.400,258.153 113.778,258.562 113.019 C 258.971 112.259,259.597 111.309,259.953 110.908 C 261.150 109.558,263.599 103.777,263.600 102.300 C 263.600 101.915,263.760 101.600,263.956 101.600 C 266.318 101.600,266.353 70.869,263.994 67.800 C 263.825 67.580,263.471 66.320,263.207 65.000 C 262.943 63.680,262.505 62.240,262.233 61.800 C 261.962 61.360,261.501 60.100,261.209 59.000 C 260.917 57.900,260.166 55.883,259.539 54.517 C 258.913 53.151,258.400 51.849,258.400 51.624 C 258.400 51.198,256.026 46.111,255.498 45.404 C 255.332 45.182,254.652 43.938,253.988 42.641 C 251.790 38.346,246.404 31.682,243.933 30.200 C 239.075 27.286,235.682 26.249,233.600 27.044 M338.200 111.676 C 336.818 112.457,333.693 115.662,332.931 117.080 C 332.371 118.121,332.013 118.387,331.400 118.214 C 330.960 118.091,329.790 117.893,328.800 117.776 L 327.000 117.562 328.872 118.575 C 331.319 119.898,331.369 120.029,330.026 121.635 C 328.945 122.929,328.847 122.965,328.141 122.327 C 327.732 121.957,325.957 120.977,324.198 120.149 C 322.439 119.321,320.910 118.531,320.800 118.393 C 320.516 118.037,315.919 116.800,314.881 116.800 C 313.720 116.800,313.428 118.112,313.727 121.990 C 314.004 125.574,316.292 135.600,316.833 135.600 C 317.035 135.600,317.200 135.847,317.200 136.148 C 317.200 136.450,317.742 138.565,318.404 140.848 C 319.067 143.132,319.814 146.800,320.066 149.000 C 320.317 151.200,320.637 153.090,320.777 153.200 C 320.917 153.310,321.718 158.710,322.557 165.200 C 323.396 171.690,324.209 177.090,324.363 177.200 C 324.518 177.310,325.047 180.190,325.539 183.600 C 327.064 194.152,328.129 200.591,328.384 200.800 C 328.689 201.049,329.335 203.830,330.741 210.938 C 332.064 217.627,331.757 217.364,338.200 217.349 C 344.572 217.335,347.199 216.272,353.674 211.089 C 354.317 210.575,351.770 201.520,350.779 200.800 C 350.628 200.690,349.819 198.440,348.980 195.800 C 348.142 193.160,347.327 190.910,347.168 190.800 C 347.009 190.690,346.189 188.350,345.346 185.600 C 344.503 182.850,343.631 180.406,343.407 180.169 C 343.183 179.932,342.292 177.322,341.427 174.369 C 340.562 171.416,339.733 168.910,339.586 168.800 C 339.439 168.690,338.626 166.260,337.779 163.400 C 336.932 160.540,336.095 158.140,335.919 158.067 C 335.486 157.886,335.512 156.400,335.948 156.400 C 336.140 156.400,336.995 155.680,337.848 154.800 C 338.702 153.921,339.609 153.201,339.864 153.200 C 340.120 153.200,340.753 152.705,341.270 152.100 C 341.788 151.495,342.929 150.479,343.806 149.843 C 344.683 149.206,345.850 148.272,346.400 147.766 C 346.950 147.260,348.915 145.530,350.768 143.921 C 352.620 142.311,354.192 140.816,354.262 140.597 C 354.384 140.215,348.688 137.600,347.733 137.600 C 347.477 137.600,347.207 137.461,347.133 137.292 C 347.060 137.122,345.740 136.480,344.200 135.864 C 339.187 133.861,337.353 132.870,338.115 132.577 C 338.995 132.240,339.008 130.492,338.138 129.531 C 337.519 128.847,337.525 128.799,338.238 128.786 C 338.657 128.778,339.895 128.158,340.989 127.408 C 343.365 125.780,343.506 125.832,342.428 127.945 C 340.586 131.555,341.673 132.306,345.768 130.255 C 349.400 128.436,348.641 128.339,354.740 131.400 C 360.776 134.429,360.670 134.409,361.410 132.637 C 361.724 131.887,362.150 131.212,362.358 131.137 C 362.748 130.996,365.600 124.999,365.600 124.321 C 365.600 124.113,365.857 123.686,366.171 123.372 C 367.791 121.752,369.532 114.400,368.297 114.400 C 366.611 114.400,363.699 116.999,360.341 121.500 C 359.480 122.655,358.600 123.600,358.387 123.600 C 358.174 123.600,358.000 123.790,358.000 124.021 C 358.000 124.855,355.783 127.200,355.000 127.195 C 352.116 127.175,351.941 126.669,354.031 124.384 C 357.247 120.868,355.225 116.731,350.897 117.972 C 349.614 118.340,349.600 118.329,349.600 116.972 C 349.600 114.806,348.365 113.845,345.950 114.131 C 344.410 114.314,344.000 114.241,344.000 113.784 C 344.000 111.750,340.391 110.438,338.200 111.676 M334.908 125.652 C 334.667 125.893,334.241 125.949,333.961 125.776 C 333.586 125.544,333.655 125.389,334.227 125.181 C 335.174 124.837,335.498 125.062,334.908 125.652 M275.800 146.049 C 266.158 146.308,248.894 147.733,247.400 148.394 C 246.960 148.589,245.404 148.862,243.942 149.001 L 241.283 149.255 240.786 153.327 C 240.204 158.099,239.581 160.080,238.057 162.000 C 237.446 162.770,236.839 163.689,236.708 164.043 C 236.465 164.696,235.156 165.516,231.200 167.492 C 228.175 169.003,219.751 169.149,216.800 167.741 C 215.810 167.269,214.329 166.605,213.508 166.265 C 209.675 164.678,206.000 159.951,206.000 156.608 C 206.000 153.976,205.801 153.916,202.611 155.594 C 201.363 156.251,199.589 157.051,198.670 157.372 C 193.214 159.280,192.084 159.695,191.000 160.192 C 190.340 160.494,187.730 161.303,185.200 161.990 C 182.670 162.677,180.240 163.402,179.800 163.603 C 178.259 164.304,164.446 167.200,162.643 167.200 C 162.157 167.200,161.589 167.362,161.380 167.560 C 161.171 167.759,159.020 168.220,156.600 168.585 C 150.181 169.555,144.342 170.750,143.792 171.206 C 143.529 171.425,142.501 171.849,141.508 172.148 C 139.839 172.650,136.319 174.760,135.830 175.551 C 135.611 175.905,139.331 178.400,140.077 178.400 C 140.311 178.400,142.234 179.288,144.351 180.373 C 150.436 183.492,158.785 187.195,159.742 187.199 C 159.930 187.199,160.931 187.625,161.965 188.145 C 163.000 188.665,165.546 189.678,167.623 190.397 C 169.701 191.115,171.580 191.838,171.800 192.003 C 172.316 192.390,183.308 195.600,184.118 195.600 C 184.457 195.600,184.793 195.755,184.867 195.944 C 185.014 196.322,192.594 198.123,197.000 198.825 C 198.540 199.071,200.081 199.416,200.425 199.592 C 203.995 201.424,231.350 201.456,233.800 199.631 C 234.020 199.467,235.820 198.929,237.800 198.436 C 242.410 197.287,245.264 196.330,245.913 195.716 C 246.196 195.449,247.006 195.060,247.713 194.853 C 250.685 193.982,254.303 192.459,255.743 191.474 C 256.592 190.893,258.257 189.958,259.443 189.397 C 260.629 188.836,261.600 188.219,261.600 188.027 C 261.600 187.835,262.142 187.489,262.804 187.259 C 263.466 187.028,265.311 185.862,266.904 184.667 C 268.497 183.473,270.347 182.159,271.015 181.748 C 271.682 181.337,272.582 180.681,273.015 180.291 C 273.447 179.901,275.799 177.890,278.242 175.822 C 282.799 171.964,291.977 162.555,292.462 161.245 C 292.611 160.841,293.010 160.405,293.349 160.275 C 293.688 160.145,294.453 159.265,295.047 158.319 C 295.642 157.374,296.728 156.049,297.459 155.377 L 298.789 154.153 296.695 151.915 C 291.531 146.399,289.022 145.695,275.800 146.049 M97.047 359.112 C 96.642 360.275,94.956 363.065,94.110 363.974 C 93.669 364.448,92.887 365.654,92.372 366.654 C 91.857 367.655,91.026 368.862,90.525 369.337 C 90.024 369.812,89.611 370.323,89.607 370.473 C 89.597 370.873,87.078 374.931,86.549 375.400 C 86.301 375.620,85.447 376.790,84.652 378.000 C 83.857 379.210,82.404 381.280,81.423 382.600 C 80.443 383.920,79.631 385.112,79.620 385.250 C 79.609 385.387,78.970 386.187,78.200 387.028 C 77.430 387.869,76.800 388.722,76.800 388.925 C 76.800 389.128,76.080 390.014,75.200 390.894 C 74.320 391.774,73.599 392.698,73.598 392.947 C 73.597 393.196,72.783 394.300,71.789 395.400 C 70.796 396.500,69.312 398.188,68.491 399.151 C 63.789 404.673,58.916 409.238,56.400 410.480 C 54.970 411.185,53.710 411.865,53.600 411.989 C 53.308 412.321,51.380 413.144,48.205 414.294 C 46.668 414.850,45.048 415.534,44.605 415.813 C 44.162 416.091,41.820 416.987,39.400 417.802 C 36.980 418.618,34.940 419.446,34.867 419.642 C 34.793 419.839,34.560 420.000,34.348 420.000 C 32.107 420.000,24.000 425.687,24.000 427.259 C 24.000 427.566,23.500 428.444,22.889 429.209 C 21.863 430.494,20.789 432.670,19.587 435.900 C 19.321 436.615,18.978 437.200,18.825 437.200 C 18.672 437.200,18.142 438.235,17.646 439.500 C 17.151 440.765,15.768 443.793,14.573 446.229 C 13.274 448.877,12.400 451.189,12.400 451.980 L 12.400 453.302 14.087 453.033 C 15.644 452.784,19.994 450.318,20.004 449.679 C 20.007 449.525,20.682 448.680,21.504 447.800 C 22.327 446.920,23.675 445.300,24.500 444.200 C 25.325 443.100,26.675 441.413,27.500 440.451 C 28.325 439.489,29.090 438.475,29.200 438.197 C 29.310 437.919,30.210 437.040,31.200 436.243 C 32.190 435.446,33.198 434.634,33.439 434.438 C 33.923 434.046,37.090 433.388,40.200 433.033 C 41.506 432.885,41.992 432.934,41.600 433.176 C 40.903 433.607,35.072 438.998,32.548 441.545 C 30.549 443.563,28.790 444.590,26.223 445.236 C 24.063 445.780,23.678 446.983,25.500 447.492 C 28.419 448.309,36.297 447.326,37.200 446.033 C 37.310 445.876,38.975 444.957,40.900 443.992 C 42.825 443.027,44.400 442.110,44.400 441.953 C 44.400 441.797,45.795 440.984,47.500 440.145 C 49.205 439.307,50.949 438.302,51.375 437.911 C 51.802 437.520,52.345 437.200,52.582 437.200 C 53.445 437.200,61.197 429.119,62.872 426.474 C 63.291 425.811,64.077 424.980,64.617 424.625 C 65.158 424.271,65.600 423.760,65.600 423.490 C 65.600 423.220,66.365 422.158,67.300 421.132 C 68.235 420.105,69.720 418.418,70.600 417.382 C 71.480 416.346,73.245 414.813,74.522 413.975 C 75.799 413.137,77.207 411.990,77.651 411.426 C 78.095 410.862,78.706 410.400,79.009 410.400 C 79.312 410.400,80.237 409.590,81.065 408.600 C 81.892 407.610,82.745 406.800,82.960 406.800 C 83.327 406.800,85.244 404.959,95.600 394.657 C 100.837 389.447,109.157 380.653,113.720 375.504 C 114.644 374.462,115.949 373.022,116.620 372.304 C 118.242 370.570,118.582 369.634,117.693 369.343 C 116.518 368.958,106.207 363.823,106.086 363.562 C 106.023 363.426,104.583 362.615,102.886 361.758 C 101.189 360.901,99.739 360.061,99.664 359.892 C 99.275 359.010,97.289 358.419,97.047 359.112 M316.800 504.152 C 315.590 504.637,313.430 505.372,312.000 505.786 C 310.570 506.200,309.130 506.746,308.800 507.001 C 308.470 507.255,305.860 508.148,303.000 508.985 C 300.140 509.823,297.260 510.740,296.600 511.023 C 295.940 511.305,293.150 512.097,290.400 512.782 C 287.650 513.467,285.100 514.194,284.733 514.397 C 283.793 514.917,276.924 516.254,271.006 517.070 C 266.868 517.640,266.028 517.868,266.175 518.380 C 266.274 518.721,266.664 520.620,267.043 522.600 C 267.423 524.580,267.855 526.290,268.004 526.400 C 268.153 526.510,268.960 530.470,269.797 535.200 C 270.634 539.930,271.466 544.070,271.646 544.400 C 271.956 544.971,273.141 552.125,274.659 562.600 C 275.042 565.240,275.476 567.490,275.624 567.600 C 275.861 567.777,277.944 583.514,278.641 590.400 C 278.786 591.830,279.041 593.180,279.209 593.400 C 279.772 594.139,282.158 622.403,282.619 633.800 C 282.752 637.100,283.012 640.160,283.197 640.600 C 283.381 641.040,283.733 647.520,283.979 655.000 C 284.225 662.480,284.524 669.597,284.643 670.815 L 284.859 673.030 288.922 673.969 C 291.156 674.486,293.258 675.052,293.592 675.228 C 297.861 677.470,321.932 677.725,324.106 675.551 C 325.378 674.279,326.872 642.658,326.380 627.400 C 326.110 619.018,325.016 608.027,324.409 607.600 C 324.252 607.490,323.815 605.690,323.438 603.600 C 322.553 598.709,321.118 592.657,320.782 592.400 C 320.638 592.290,319.844 590.040,319.019 587.400 C 318.193 584.760,317.286 582.233,317.004 581.784 C 316.442 580.889,314.260 574.232,313.798 572.000 C 313.638 571.230,313.348 570.401,313.153 570.158 C 311.294 567.841,311.334 540.807,313.198 539.600 C 313.368 539.490,314.191 535.170,315.027 530.000 C 315.863 524.830,316.664 520.510,316.808 520.400 C 316.951 520.290,317.556 516.960,318.152 513.000 C 318.747 509.040,319.337 505.215,319.462 504.500 C 319.725 502.993,319.702 502.990,316.800 504.152 M202.528 518.649 C 202.984 520.382,203.489 521.893,203.651 522.007 C 203.951 522.217,205.051 526.025,206.480 531.799 C 206.916 533.558,207.398 535.088,207.552 535.199 C 207.804 535.381,209.252 541.111,210.483 546.800 C 210.745 548.010,211.078 549.090,211.223 549.200 C 211.523 549.428,212.912 556.654,213.799 562.600 C 214.648 568.297,214.572 574.023,213.589 578.285 C 212.665 582.292,211.611 585.706,211.207 586.000 C 211.056 586.110,210.262 588.248,209.443 590.752 C 208.624 593.255,207.694 595.563,207.377 595.880 C 207.060 596.198,206.800 596.655,206.800 596.896 C 206.800 597.558,203.901 605.370,203.570 605.600 C 203.412 605.710,202.630 607.772,201.833 610.182 C 201.035 612.592,200.246 614.662,200.079 614.782 C 199.775 615.000,197.507 621.945,197.004 624.196 C 196.857 624.854,196.599 625.484,196.430 625.596 C 196.000 625.883,194.634 630.640,193.557 635.600 C 193.056 637.910,192.521 639.890,192.368 640.000 C 191.754 640.441,189.200 655.721,189.200 658.950 C 189.200 659.941,189.020 660.864,188.800 661.000 C 188.580 661.136,188.400 661.897,188.400 662.690 C 188.400 663.484,188.498 664.036,188.617 663.917 C 188.736 663.797,190.041 664.497,191.517 665.470 C 194.863 667.678,198.179 669.274,201.800 670.421 C 203.340 670.909,204.821 671.482,205.090 671.695 C 206.898 673.121,226.719 674.603,232.363 673.733 L 234.526 673.400 235.919 668.600 C 236.686 665.960,237.426 663.710,237.564 663.600 C 237.887 663.342,239.258 658.487,240.444 653.400 C 240.957 651.200,241.497 649.310,241.645 649.200 C 241.933 648.985,244.800 634.807,244.800 633.595 C 244.800 633.194,244.952 632.807,245.139 632.733 C 245.475 632.601,246.896 624.436,248.261 614.800 C 248.651 612.050,249.081 609.710,249.217 609.600 C 249.452 609.411,251.699 591.828,252.259 585.800 C 252.402 584.260,252.645 582.910,252.799 582.800 C 253.101 582.585,254.043 572.730,254.998 559.800 C 255.715 550.084,256.394 532.868,256.398 524.300 L 256.400 518.000 253.300 517.999 C 246.131 517.995,215.363 516.566,204.949 515.752 L 201.699 515.498 202.528 518.649 " stroke="none" fill="#f47c64" fill-rule="evenodd"></path><path id="path2" d="M298.040 155.244 C 297.601 155.770,296.139 157.550,294.793 159.200 C 288.732 166.630,273.718 181.200,272.123 181.200 C 271.851 181.200,271.456 181.522,271.245 181.916 C 271.034 182.310,270.353 182.890,269.731 183.207 C 269.109 183.523,267.610 184.526,266.400 185.436 C 265.190 186.346,263.210 187.604,262.000 188.232 C 260.790 188.861,259.451 189.696,259.025 190.087 C 258.598 190.479,258.058 190.800,257.825 190.801 C 257.591 190.802,256.371 191.422,255.114 192.180 C 253.857 192.938,252.057 193.825,251.114 194.150 C 247.674 195.337,243.790 196.877,243.381 197.216 C 242.815 197.685,234.019 199.920,231.455 200.245 C 230.325 200.389,229.147 200.707,228.838 200.953 C 228.045 201.585,207.676 201.571,206.360 200.938 C 205.832 200.684,203.780 200.260,201.800 199.997 C 197.159 199.379,188.317 197.620,187.800 197.211 C 187.580 197.037,185.450 196.410,183.066 195.818 C 178.710 194.735,176.083 193.925,174.600 193.207 C 174.160 192.994,172.000 192.259,169.800 191.573 C 167.600 190.887,165.440 190.100,165.000 189.824 C 164.293 189.382,162.714 188.761,156.604 186.523 C 155.727 186.201,154.917 185.815,154.804 185.665 C 154.692 185.515,153.520 184.967,152.200 184.448 C 149.797 183.502,140.329 179.076,139.200 178.370 C 138.870 178.164,137.853 177.610,136.940 177.138 L 135.280 176.279 134.186 177.140 C 133.584 177.613,133.238 178.000,133.416 178.000 C 133.594 178.000,133.360 178.405,132.896 178.900 C 131.944 179.916,130.010 183.876,130.004 184.820 C 130.002 185.161,129.827 185.613,129.617 185.823 C 128.799 186.641,126.400 206.370,126.400 212.280 C 126.400 213.232,126.231 214.323,126.025 214.705 C 125.818 215.087,125.370 220.530,125.029 226.800 C 123.312 258.375,122.720 267.869,122.421 268.600 C 122.241 269.040,121.706 274.530,121.234 280.800 C 120.268 293.611,118.926 306.195,118.397 307.400 C 118.203 307.840,117.934 309.010,117.798 310.000 C 117.164 314.627,115.868 320.777,115.170 322.474 C 114.747 323.505,114.400 324.658,114.400 325.036 C 114.400 325.414,113.966 326.640,113.436 327.761 C 111.876 331.061,110.837 334.030,111.049 334.582 C 111.157 334.865,110.966 335.204,110.623 335.336 C 110.280 335.467,110.000 335.851,110.000 336.187 C 110.000 336.524,109.809 336.800,109.576 336.800 C 109.343 336.800,109.264 336.980,109.400 337.200 C 109.536 337.420,109.494 337.600,109.307 337.600 C 109.119 337.600,108.261 339.175,107.400 341.100 C 106.538 343.025,105.692 344.659,105.520 344.732 C 105.348 344.805,104.448 346.425,103.520 348.332 C 102.592 350.239,101.593 352.046,101.299 352.346 C 101.005 352.646,100.239 353.934,99.596 355.208 C 98.953 356.482,98.196 357.602,97.913 357.697 C 97.343 357.889,98.165 359.200,98.856 359.200 C 99.053 359.200,100.516 359.988,102.107 360.952 C 104.974 362.688,111.487 366.084,116.296 368.351 L 118.792 369.527 121.396 366.405 C 122.828 364.688,124.000 363.168,124.000 363.028 C 124.000 362.888,124.636 362.138,125.412 361.361 C 126.189 360.584,127.127 359.251,127.496 358.399 C 127.865 357.547,128.508 356.761,128.924 356.652 C 129.340 356.543,129.574 356.281,129.444 356.071 C 129.313 355.860,130.012 354.813,130.996 353.744 C 132.184 352.453,132.711 351.565,132.566 351.100 C 132.422 350.642,132.558 350.400,132.960 350.400 C 133.342 350.400,133.488 350.173,133.345 349.800 C 133.200 349.423,133.349 349.200,133.745 349.200 C 134.141 349.200,134.289 348.977,134.145 348.600 C 133.999 348.220,134.150 348.000,134.557 348.000 C 134.911 348.000,135.200 347.724,135.200 347.387 C 135.200 347.051,135.455 346.677,135.767 346.557 C 136.079 346.437,137.015 344.958,137.847 343.270 C 138.678 341.581,139.562 339.993,139.811 339.739 C 140.397 339.144,141.957 334.695,143.789 328.400 C 144.589 325.650,145.406 323.040,145.604 322.600 C 146.069 321.569,147.945 313.423,148.828 308.600 C 149.111 307.060,149.471 305.620,149.629 305.400 C 149.788 305.180,150.586 300.950,151.403 296.000 C 152.220 291.050,153.042 286.640,153.230 286.200 C 153.587 285.363,155.082 275.225,156.208 266.000 C 156.571 263.030,157.026 260.240,157.220 259.800 C 157.560 259.025,159.055 246.121,160.057 235.300 C 160.351 232.121,160.718 230.000,160.974 230.001 C 161.353 230.001,170.439 248.031,175.688 259.200 C 176.774 261.510,178.105 264.267,178.646 265.326 C 179.187 266.386,180.164 268.600,180.818 270.246 C 181.472 271.892,182.267 273.636,182.584 274.120 C 182.901 274.604,183.631 276.250,184.206 277.779 C 184.782 279.307,185.673 281.467,186.187 282.579 C 187.545 285.517,188.800 288.684,188.800 289.173 C 188.800 289.407,189.328 290.723,189.973 292.099 C 191.612 295.595,193.200 302.032,193.200 305.182 C 193.200 308.771,191.171 318.624,189.999 320.725 C 189.517 321.590,188.000 326.889,188.000 327.710 C 188.000 328.053,187.821 328.393,187.601 328.467 C 187.382 328.540,186.713 330.850,186.116 333.600 C 185.518 336.350,184.919 338.690,184.784 338.800 C 184.219 339.262,182.198 353.434,181.762 360.000 C 181.609 362.310,181.338 364.295,181.161 364.412 C 180.342 364.950,179.214 435.458,179.205 486.700 L 179.200 513.600 181.600 513.600 C 182.920 513.600,184.000 513.746,184.000 513.925 C 184.000 514.312,195.594 515.208,203.200 515.408 C 206.170 515.486,213.100 515.830,218.600 516.171 C 224.100 516.512,229.894 516.793,231.476 516.796 C 233.058 516.798,234.464 516.980,234.600 517.200 C 234.736 517.420,236.412 517.599,238.324 517.598 C 240.236 517.597,246.804 517.803,252.921 518.057 C 261.288 518.404,264.156 518.404,264.501 518.059 C 264.753 517.807,265.734 517.600,266.680 517.600 C 267.626 517.600,268.400 517.420,268.400 517.200 C 268.400 516.980,268.916 516.800,269.548 516.800 C 271.989 516.800,287.584 513.756,288.000 513.198 C 288.110 513.051,289.730 512.533,291.600 512.048 C 293.470 511.562,296.080 510.883,297.400 510.539 C 298.720 510.195,299.980 509.774,300.200 509.603 C 300.420 509.432,302.760 508.624,305.400 507.809 C 308.040 506.993,310.740 506.074,311.400 505.767 C 313.904 504.602,319.329 502.875,319.853 503.076 C 320.154 503.191,320.400 503.107,320.400 502.889 C 320.400 502.672,320.805 502.404,321.300 502.294 C 323.280 501.857,330.592 499.066,331.107 498.550 C 331.410 498.248,331.908 498.000,332.215 498.000 C 332.522 498.000,333.364 497.748,334.086 497.440 C 334.809 497.133,336.210 496.553,337.200 496.151 C 338.190 495.750,339.090 495.319,339.200 495.193 C 339.310 495.067,340.930 494.372,342.800 493.647 C 344.670 492.923,346.740 492.021,347.400 491.642 C 348.060 491.263,350.294 490.269,352.364 489.433 C 354.434 488.597,356.490 487.574,356.934 487.161 L 357.740 486.410 356.391 480.105 C 355.649 476.637,354.934 473.710,354.802 473.600 C 354.670 473.490,353.863 470.250,353.009 466.400 C 352.155 462.550,351.283 459.283,351.070 459.140 C 350.857 458.998,350.794 458.593,350.929 458.240 C 351.064 457.888,351.032 457.600,350.858 457.600 C 350.684 457.600,349.847 454.495,348.999 450.700 C 348.151 446.905,347.325 443.710,347.165 443.599 C 347.004 443.488,346.193 440.428,345.361 436.799 C 344.530 433.170,343.727 430.110,343.576 430.000 C 343.340 429.827,342.692 427.328,340.307 417.400 C 340.042 416.300,339.697 415.307,339.540 415.193 C 339.382 415.079,338.586 412.289,337.770 408.993 C 336.954 405.697,336.155 402.910,335.994 402.800 C 335.833 402.690,335.052 400.080,334.257 397.000 C 332.317 389.478,332.355 389.600,331.953 389.600 C 331.759 389.600,331.600 389.317,331.600 388.970 C 331.600 388.009,328.788 378.243,328.444 378.007 C 328.277 377.893,327.908 376.900,327.623 375.800 C 326.584 371.783,324.701 365.795,324.416 365.600 C 324.255 365.490,323.446 363.240,322.620 360.600 C 321.793 357.960,320.990 355.710,320.836 355.600 C 320.681 355.490,319.868 353.420,319.028 351.000 C 318.189 348.580,317.254 346.316,316.951 345.969 C 316.648 345.621,316.400 345.200,316.400 345.033 C 316.400 344.505,313.546 338.214,313.211 338.002 C 313.034 337.891,312.610 337.170,312.268 336.400 C 311.427 334.507,309.940 331.969,309.162 331.097 C 308.811 330.704,308.001 329.375,307.362 328.144 C 306.723 326.913,305.975 325.818,305.700 325.710 C 305.425 325.603,305.200 325.347,305.200 325.141 C 305.200 324.936,304.570 323.833,303.800 322.690 C 303.030 321.546,302.400 320.403,302.400 320.148 C 302.400 319.894,302.169 319.597,301.886 319.489 C 301.604 319.380,300.941 318.451,300.413 317.424 C 299.884 316.398,299.036 315.108,298.526 314.558 C 298.017 314.009,297.600 313.466,297.600 313.353 C 297.600 313.239,297.150 312.557,296.600 311.836 C 296.050 311.114,295.600 310.316,295.600 310.062 C 295.600 309.808,295.420 309.600,295.200 309.600 C 294.980 309.600,294.800 309.429,294.800 309.221 C 294.800 309.012,294.350 308.356,293.800 307.762 C 293.250 307.169,292.800 306.480,292.800 306.231 C 292.800 305.982,292.270 305.198,291.623 304.489 C 290.975 303.780,290.570 303.197,290.723 303.194 C 290.875 303.191,290.815 303.056,290.588 302.894 C 290.148 302.580,287.200 298.516,287.200 298.224 C 287.200 298.128,286.660 297.458,286.000 296.736 C 285.340 296.013,284.800 295.226,284.800 294.987 C 284.800 294.748,284.287 294.023,283.661 293.376 C 283.034 292.729,282.038 291.429,281.447 290.486 C 280.856 289.544,280.061 288.461,279.681 288.081 C 279.300 287.700,278.587 286.825,278.096 286.134 L 277.202 284.880 278.075 273.940 C 278.556 267.923,279.062 262.910,279.201 262.800 C 279.409 262.636,281.982 232.115,282.709 221.200 C 282.819 219.550,283.039 218.110,283.198 218.000 C 283.357 217.890,283.647 215.754,283.844 213.254 L 284.200 208.707 286.800 212.367 C 288.230 214.380,289.984 216.696,290.698 217.514 C 291.412 218.331,291.997 219.190,291.998 219.422 C 291.999 219.654,292.630 220.531,293.400 221.372 C 294.170 222.213,294.800 222.984,294.800 223.085 C 294.800 223.361,297.302 226.854,298.066 227.644 C 298.432 228.022,299.375 229.337,300.161 230.566 C 300.947 231.795,301.739 232.800,301.921 232.800 C 302.104 232.800,302.637 233.475,303.107 234.300 C 303.577 235.125,304.453 236.323,305.054 236.961 C 305.655 237.600,306.730 238.972,307.444 240.009 C 308.158 241.047,309.223 242.414,309.811 243.048 C 310.399 243.682,311.330 244.965,311.878 245.900 C 312.427 246.835,313.029 247.600,313.217 247.600 C 313.404 247.600,314.203 248.573,314.993 249.763 C 315.782 250.952,316.696 252.028,317.024 252.154 C 317.351 252.279,317.750 252.732,317.910 253.160 C 318.069 253.588,318.920 254.787,319.800 255.823 C 320.680 256.860,321.895 258.292,322.500 259.007 C 323.105 259.721,323.600 260.403,323.600 260.522 C 323.600 260.641,324.095 261.247,324.700 261.869 C 325.305 262.491,326.250 263.592,326.800 264.316 C 327.350 265.039,328.483 266.389,329.318 267.316 C 330.153 268.242,331.593 269.860,332.518 270.912 C 333.443 271.964,335.640 274.308,337.400 276.122 C 339.160 277.936,341.104 280.091,341.720 280.910 C 342.337 281.730,343.035 282.400,343.272 282.400 C 343.509 282.400,344.455 283.165,345.373 284.100 C 360.610 299.612,374.956 295.990,375.873 276.400 C 376.172 270.014,374.658 258.400,373.527 258.400 C 373.347 258.400,373.200 258.108,373.200 257.751 C 373.200 256.896,370.362 248.258,369.996 248.000 C 369.840 247.890,369.303 246.630,368.804 245.200 C 366.926 239.827,366.332 238.400,365.971 238.400 C 365.767 238.400,365.600 238.136,365.600 237.814 C 365.600 237.491,365.343 236.636,365.028 235.914 C 364.713 235.191,364.040 233.520,363.532 232.200 C 363.023 230.880,362.473 229.700,362.308 229.579 C 361.939 229.307,359.200 222.390,359.200 221.731 C 359.200 221.471,358.975 221.019,358.700 220.729 C 358.201 220.201,357.478 218.416,355.858 213.705 C 354.823 210.697,354.723 210.684,351.446 213.165 C 350.018 214.246,348.434 215.262,347.926 215.423 C 347.419 215.585,346.822 215.961,346.602 216.261 C 345.856 217.271,340.529 218.100,336.600 217.817 C 331.627 217.459,331.502 217.344,330.642 212.341 C 329.712 206.927,328.785 203.200,328.369 203.200 C 328.185 203.200,327.308 201.955,326.420 200.434 C 325.531 198.913,324.658 197.608,324.479 197.534 C 324.299 197.460,323.541 196.320,322.793 195.000 C 322.046 193.680,320.841 191.821,320.117 190.869 C 319.393 189.918,318.800 188.945,318.800 188.707 C 318.800 188.470,318.305 187.630,317.700 186.842 C 316.561 185.356,316.423 185.132,314.608 181.800 C 314.008 180.700,313.386 179.710,313.224 179.600 C 313.062 179.490,312.232 178.050,311.379 176.400 C 310.527 174.750,309.713 173.310,309.570 173.200 C 309.428 173.090,309.012 172.415,308.646 171.700 C 308.279 170.985,307.793 170.400,307.566 170.400 C 307.339 170.400,307.257 170.232,307.384 170.026 C 307.631 169.626,306.009 165.892,305.489 165.663 C 305.318 165.588,304.820 164.823,304.381 163.963 C 303.943 163.103,303.400 162.400,303.174 162.400 C 302.949 162.400,302.808 162.175,302.861 161.900 C 303.002 161.162,302.403 159.600,301.978 159.600 C 301.776 159.600,301.342 159.015,301.013 158.300 C 300.684 157.585,300.061 156.390,299.627 155.644 L 298.840 154.287 298.040 155.244 " stroke="none" fill="#44bc94" fill-rule="evenodd"></path><path id="path3" d="M212.600 41.200 C 212.259 41.860,212.069 42.400,212.179 42.400 C 212.289 42.400,212.659 41.860,213.000 41.200 C 213.341 40.540,213.531 40.000,213.421 40.000 C 213.311 40.000,212.941 40.540,212.600 41.200 M212.487 116.600 C 212.491 117.040,212.632 117.940,212.800 118.600 C 213.074 119.678,213.106 119.698,213.113 118.800 C 213.117 118.250,212.976 117.350,212.800 116.800 C 212.549 116.016,212.481 115.973,212.487 116.600 M212.832 134.074 C 212.814 134.665,212.621 135.620,212.401 136.197 C 212.156 136.843,212.150 137.155,212.386 137.009 C 212.864 136.713,213.354 134.224,213.072 133.521 C 212.957 133.235,212.849 133.483,212.832 134.074 M244.700 148.682 C 245.195 148.778,246.005 148.778,246.500 148.682 C 246.995 148.587,246.590 148.509,245.600 148.509 C 244.610 148.509,244.205 148.587,244.700 148.682 M241.700 149.076 C 242.085 149.176,242.715 149.176,243.100 149.076 C 243.485 148.975,243.170 148.893,242.400 148.893 C 241.630 148.893,241.315 148.975,241.700 149.076 M205.934 156.499 C 206.007 157.875,206.187 159.127,206.334 159.282 C 206.480 159.437,206.540 158.312,206.467 156.782 C 206.394 155.252,206.214 154.000,206.067 153.999 C 205.920 153.999,205.860 155.124,205.934 156.499 M296.175 156.668 C 295.559 157.476,295.259 158.011,295.509 157.856 C 296.021 157.540,297.753 155.200,297.475 155.200 C 297.376 155.200,296.791 155.861,296.175 156.668 M136.000 176.600 C 136.550 176.914,137.180 177.172,137.400 177.172 C 137.620 177.172,137.350 176.914,136.800 176.600 C 136.250 176.286,135.620 176.028,135.400 176.028 C 135.180 176.028,135.450 176.286,136.000 176.600 M142.000 179.396 C 142.000 179.670,144.449 180.884,144.632 180.701 C 144.719 180.614,144.162 180.244,143.395 179.878 C 142.628 179.512,142.000 179.295,142.000 179.396 M268.385 183.629 L 267.000 184.858 268.500 183.781 C 269.826 182.830,270.257 182.400,269.885 182.400 C 269.822 182.400,269.147 182.953,268.385 183.629 M149.600 182.996 C 149.600 183.270,152.049 184.484,152.232 184.301 C 152.319 184.214,151.762 183.844,150.995 183.478 C 150.228 183.112,149.600 182.895,149.600 182.996 M159.233 187.335 C 159.619 187.647,162.800 188.777,162.800 188.602 C 162.800 188.363,160.051 187.200,159.484 187.200 C 159.255 187.200,159.142 187.261,159.233 187.335 M168.215 190.824 C 168.447 191.199,171.185 192.148,171.405 191.929 C 171.488 191.846,170.760 191.492,169.787 191.142 C 168.814 190.792,168.107 190.649,168.215 190.824 M179.834 194.772 C 180.220 195.134,183.144 195.841,182.800 195.489 C 182.690 195.376,181.895 195.091,181.034 194.856 C 180.173 194.621,179.633 194.583,179.834 194.772 M246.400 195.400 C 245.122 196.130,245.396 196.134,247.400 195.412 C 248.280 195.095,248.640 194.834,248.200 194.832 C 247.760 194.830,246.950 195.086,246.400 195.400 M236.528 198.739 C 235.169 199.102,233.940 199.518,233.799 199.663 C 233.419 200.050,238.534 198.749,238.980 198.344 C 239.189 198.155,239.279 198.017,239.180 198.039 C 239.081 198.060,237.888 198.375,236.528 198.739 M194.600 198.800 C 195.260 198.968,196.250 199.105,196.800 199.105 C 197.692 199.105,197.670 199.072,196.600 198.800 C 195.940 198.632,194.950 198.495,194.400 198.495 C 193.508 198.495,193.530 198.528,194.600 198.800 M198.000 199.356 C 198.000 199.442,198.617 199.585,199.372 199.673 C 200.127 199.761,200.656 199.690,200.548 199.516 C 200.355 199.203,198.000 199.055,198.000 199.356 M329.458 206.000 C 329.775 207.725,330.002 208.051,329.994 206.767 C 329.991 206.235,329.811 205.530,329.594 205.200 C 329.318 204.778,329.277 205.015,329.458 206.000 M335.700 217.746 C 337.227 217.943,339.573 217.943,341.100 217.746 C 343.530 217.434,343.260 217.399,338.400 217.399 C 333.540 217.399,333.270 217.434,335.700 217.746 M106.800 364.200 C 107.350 364.514,107.980 364.772,108.200 364.772 C 108.420 364.772,108.150 364.514,107.600 364.200 C 107.050 363.886,106.420 363.628,106.200 363.628 C 105.980 363.628,106.250 363.886,106.800 364.200 M112.800 366.984 C 112.800 367.094,113.520 367.551,114.400 368.000 C 115.280 368.449,116.000 368.726,116.000 368.616 C 116.000 368.506,115.280 368.049,114.400 367.600 C 113.520 367.151,112.800 366.874,112.800 366.984 M316.929 503.730 C 314.884 504.486,314.890 504.857,316.936 504.160 C 317.961 503.811,318.800 503.452,318.800 503.362 C 318.800 503.119,318.337 503.210,316.929 503.730 M304.900 508.012 C 303.515 508.569,303.834 508.814,305.300 508.320 C 306.015 508.079,306.675 507.818,306.767 507.741 C 307.092 507.466,305.786 507.656,304.900 508.012 M293.800 511.485 C 293.360 511.591,292.835 511.834,292.634 512.025 C 292.433 512.216,292.973 512.179,293.834 511.944 C 296.155 511.310,296.127 510.926,293.800 511.485 M282.600 514.628 C 281.500 514.934,280.206 515.188,279.724 515.192 C 279.242 515.197,278.737 515.378,278.603 515.595 C 278.468 515.813,278.593 515.920,278.879 515.833 C 279.166 515.746,280.530 515.453,281.912 515.180 C 283.293 514.908,284.519 514.531,284.635 514.343 C 284.752 514.154,284.792 514.016,284.724 514.036 C 284.656 514.055,283.700 514.322,282.600 514.628 M202.400 515.423 C 203.886 515.747,205.926 515.803,205.748 515.516 C 205.641 515.342,204.708 515.221,203.676 515.246 C 202.644 515.272,202.070 515.352,202.400 515.423 M202.209 670.761 C 202.424 670.971,203.140 671.271,203.800 671.428 C 205.348 671.795,205.000 671.454,203.209 670.849 C 202.444 670.590,201.994 670.550,202.209 670.761 " stroke="none" fill="#cca07c" fill-rule="evenodd"></path><path id="path4" d="M229.800 28.214 C 229.140 28.517,228.881 28.772,229.224 28.782 C 229.566 28.792,230.196 28.536,230.624 28.213 C 231.572 27.496,231.369 27.496,229.800 28.214 M240.000 27.779 C 240.000 27.889,240.540 28.259,241.200 28.600 C 241.860 28.941,242.400 29.131,242.400 29.021 C 242.400 28.911,241.860 28.541,241.200 28.200 C 240.540 27.859,240.000 27.669,240.000 27.779 M219.857 59.200 C 220.108 59.530,220.402 60.160,220.511 60.600 C 220.697 61.360,220.710 61.357,220.754 60.549 C 220.779 60.081,220.485 59.451,220.100 59.149 C 219.491 58.672,219.460 58.678,219.857 59.200 M220.352 63.913 C 220.221 64.707,220.279 65.081,220.501 64.859 C 220.703 64.657,220.801 64.067,220.719 63.546 C 220.593 62.745,220.537 62.802,220.352 63.913 M255.375 116.100 L 254.200 117.400 255.500 116.225 C 256.215 115.579,256.800 114.994,256.800 114.925 C 256.800 114.616,256.470 114.888,255.375 116.100 M213.309 121.600 C 213.309 122.590,213.387 122.995,213.482 122.500 C 213.578 122.005,213.578 121.195,213.482 120.700 C 213.387 120.205,213.309 120.610,213.309 121.600 M330.000 121.200 C 329.530 121.860,329.236 122.400,329.346 122.400 C 329.456 122.400,329.930 121.860,330.400 121.200 C 330.870 120.540,331.164 120.000,331.054 120.000 C 330.944 120.000,330.470 120.540,330.000 121.200 M213.180 131.490 C 213.071 132.419,213.133 133.027,213.320 132.840 C 213.506 132.654,213.596 131.894,213.519 131.151 C 213.383 129.833,213.375 129.842,213.180 131.490 M273.721 145.898 C 275.877 145.971,279.297 145.970,281.321 145.898 C 283.344 145.825,281.580 145.766,277.400 145.767 C 273.220 145.767,271.564 145.826,273.721 145.898 M237.300 149.212 C 235.961 149.751,236.211 150.024,237.600 149.540 C 238.260 149.310,238.800 149.049,238.800 148.961 C 238.800 148.724,238.313 148.805,237.300 149.212 M294.549 159.084 C 293.477 160.340,292.809 161.239,293.064 161.083 C 293.623 160.739,296.954 156.800,296.686 156.800 C 296.582 156.800,295.620 157.828,294.549 159.084 M290.800 163.400 C 289.828 164.390,289.123 165.200,289.233 165.200 C 289.343 165.200,290.228 164.390,291.200 163.400 C 292.172 162.410,292.877 161.600,292.767 161.600 C 292.657 161.600,291.772 162.410,290.800 163.400 M287.578 167.100 L 286.200 168.600 287.700 167.222 C 289.096 165.938,289.384 165.600,289.078 165.600 C 289.012 165.600,288.337 166.275,287.578 167.100 M158.000 168.000 L 156.600 168.295 157.876 168.347 C 158.578 168.376,159.264 168.220,159.400 168.000 C 159.536 167.780,159.592 167.624,159.524 167.653 C 159.456 167.682,158.770 167.838,158.000 168.000 M217.806 168.010 C 217.906 168.172,218.435 168.390,218.982 168.494 C 219.529 168.599,219.894 168.552,219.794 168.390 C 219.694 168.228,219.165 168.010,218.618 167.906 C 218.071 167.801,217.706 167.848,217.806 168.010 M283.578 171.100 L 282.200 172.600 283.700 171.222 C 285.096 169.938,285.384 169.600,285.078 169.600 C 285.012 169.600,284.337 170.275,283.578 171.100 M279.176 175.231 L 277.000 177.261 279.300 175.354 C 281.411 173.604,281.819 173.200,281.476 173.200 C 281.408 173.200,280.373 174.114,279.176 175.231 M275.178 178.700 L 273.800 180.200 275.300 178.822 C 276.696 177.538,276.984 177.200,276.678 177.200 C 276.612 177.200,275.937 177.875,275.178 178.700 M138.686 178.046 C 139.203 178.563,142.400 180.057,142.400 179.781 C 142.400 179.683,141.462 179.149,140.315 178.596 C 139.169 178.043,138.436 177.796,138.686 178.046 M146.600 181.956 C 146.820 182.177,147.720 182.657,148.600 183.021 C 150.690 183.887,150.113 183.301,147.905 182.315 C 146.967 181.896,146.380 181.735,146.600 181.956 M264.200 186.612 C 262.635 187.895,263.057 187.886,264.800 186.600 C 265.545 186.050,265.985 185.606,265.778 185.614 C 265.570 185.622,264.860 186.071,264.200 186.612 M164.601 189.601 C 164.711 189.779,165.640 190.211,166.665 190.560 C 167.690 190.909,168.401 191.068,168.246 190.913 C 167.804 190.471,164.376 189.238,164.601 189.601 M251.089 193.694 C 249.818 194.144,248.849 194.583,248.936 194.669 C 249.151 194.884,252.908 193.609,253.380 193.161 C 253.852 192.713,253.888 192.704,251.089 193.694 M176.000 193.686 C 176.311 193.994,180.000 195.175,180.000 194.966 C 180.000 194.864,179.542 194.606,178.982 194.393 C 177.644 193.884,175.746 193.434,176.000 193.686 M187.834 197.183 C 188.035 197.378,188.920 197.642,189.800 197.769 C 191.612 198.032,191.335 197.839,189.034 197.238 C 188.173 197.012,187.633 196.988,187.834 197.183 M240.800 197.667 C 240.030 197.885,239.239 198.219,239.042 198.410 C 238.743 198.699,241.646 197.977,243.000 197.426 C 243.794 197.103,242.168 197.281,240.800 197.667 M206.363 200.923 C 206.872 201.432,222.817 201.741,226.200 201.307 C 228.267 201.043,226.904 200.991,221.000 201.110 C 216.600 201.199,211.425 201.112,209.501 200.917 C 207.416 200.705,206.148 200.708,206.363 200.923 M330.064 208.400 C 330.016 211.326,331.408 216.507,332.400 217.095 C 333.347 217.656,333.358 217.653,332.600 217.032 C 332.013 216.550,331.571 215.181,330.940 211.888 C 330.468 209.420,330.073 207.850,330.064 208.400 M126.131 211.800 C 126.133 213.340,126.205 213.921,126.292 213.091 C 126.379 212.261,126.377 211.001,126.289 210.291 C 126.200 209.581,126.129 210.260,126.131 211.800 M345.000 216.646 C 343.411 217.205,343.409 217.207,344.788 216.997 C 345.551 216.880,346.352 216.608,346.568 216.393 C 347.031 215.929,347.048 215.926,345.000 216.646 M160.520 232.000 C 160.520 233.210,160.595 233.705,160.687 233.100 C 160.778 232.495,160.778 231.505,160.687 230.900 C 160.595 230.295,160.520 230.790,160.520 232.000 M156.958 260.166 C 156.838 260.478,156.805 261.243,156.884 261.866 C 157.002 262.791,157.064 262.687,157.225 261.300 C 157.427 259.551,157.338 259.175,156.958 260.166 M122.396 265.682 C 122.288 267.377,122.344 268.619,122.520 268.442 C 122.695 268.265,122.784 266.879,122.716 265.360 L 122.592 262.600 122.396 265.682 M156.501 264.600 C 156.505 265.480,156.587 265.793,156.683 265.295 C 156.779 264.798,156.775 264.078,156.675 263.695 C 156.575 263.313,156.496 263.720,156.501 264.600 M152.956 286.571 C 152.835 286.885,152.804 287.560,152.886 288.071 C 152.995 288.754,153.088 288.604,153.237 287.500 C 153.447 285.947,153.336 285.581,152.956 286.571 M118.501 305.800 C 118.505 306.680,118.587 306.993,118.683 306.495 C 118.779 305.998,118.775 305.278,118.675 304.895 C 118.575 304.513,118.496 304.920,118.501 305.800 M149.354 305.777 C 149.232 306.094,149.203 306.679,149.289 307.077 C 149.387 307.528,149.524 307.312,149.654 306.500 C 149.871 305.138,149.730 304.796,149.354 305.777 M102.000 361.164 C 102.550 361.614,103.180 361.983,103.400 361.985 C 103.828 361.988,103.105 361.434,101.800 360.760 C 101.269 360.485,101.336 360.621,102.000 361.164 M108.400 364.596 C 108.400 364.870,110.849 366.084,111.032 365.901 C 111.119 365.814,110.562 365.444,109.795 365.078 C 109.028 364.712,108.400 364.495,108.400 364.596 M115.774 368.358 C 115.897 368.558,116.580 368.924,117.290 369.171 C 118.788 369.694,118.335 369.179,116.675 368.473 C 116.056 368.209,115.650 368.158,115.774 368.358 M313.727 504.748 C 311.374 505.683,311.092 506.124,313.335 505.360 C 314.360 505.011,315.300 504.562,315.423 504.363 C 315.546 504.163,315.592 504.019,315.524 504.041 C 315.456 504.064,314.647 504.382,313.727 504.748 M302.328 508.731 C 301.299 509.099,300.325 509.534,300.164 509.698 C 299.763 510.106,303.706 508.780,304.180 508.347 C 304.661 507.908,304.589 507.923,302.328 508.731 M290.200 512.415 C 288.880 512.812,288.035 513.150,288.323 513.168 C 289.212 513.222,292.401 512.321,292.630 511.951 C 292.750 511.758,292.792 511.621,292.724 511.647 C 292.656 511.673,291.520 512.019,290.200 512.415 M205.914 515.655 C 206.071 515.802,211.870 516.215,218.800 516.572 C 225.730 516.930,232.157 517.263,233.081 517.313 C 234.006 517.362,234.636 517.295,234.481 517.163 C 234.327 517.031,229.430 516.699,223.600 516.425 C 217.770 516.151,211.341 515.806,209.314 515.658 C 207.287 515.510,205.757 515.508,205.914 515.655 M275.400 516.000 C 274.330 516.272,274.308 516.305,275.200 516.305 C 275.750 516.305,276.740 516.168,277.400 516.000 C 278.470 515.728,278.492 515.695,277.600 515.695 C 277.050 515.695,276.060 515.832,275.400 516.000 M270.000 516.800 C 268.351 517.056,268.317 517.083,269.600 517.117 C 270.370 517.137,271.720 517.005,272.600 516.823 C 274.666 516.396,272.712 516.378,270.000 516.800 M289.806 674.410 C 289.906 674.572,290.435 674.790,290.982 674.894 C 291.529 674.999,291.894 674.952,291.794 674.790 C 291.694 674.628,291.165 674.410,290.618 674.306 C 290.071 674.201,289.706 674.248,289.806 674.410 " stroke="none" fill="#749c7c" fill-rule="evenodd"></path><path id="path5" d="" stroke="none" fill="#44c07c" fill-rule="evenodd"></path><path id="path6" d="" stroke="none" fill="#44c07c" fill-rule="evenodd"></path><path id="path7" d="" stroke="none" fill="#44c07c" fill-rule="evenodd"></path><path id="path8" d="" stroke="none" fill="#44c07c" fill-rule="evenodd"></path></g></svg>