<svg width="100%" height="100%" fill="none" id="svg" version="1.1" xmlns="http://www.w3.org/2000/svg" xmlns:xlink="http://www.w3.org/1999/xlink" viewBox="0, 0, 400,856.4102564102564"><g id="svgg"><path id="path0" d="M303.584 70.460 C 303.326 71.417,302.855 73.446,302.538 74.970 C 301.435 80.260,300.389 84.604,300.027 85.400 C 299.615 86.307,298.674 90.391,295.836 103.600 C 295.292 106.130,294.618 109.370,294.337 110.800 C 294.056 112.230,293.719 113.490,293.589 113.600 C 293.340 113.809,292.793 116.299,291.973 120.956 C 291.228 125.192,292.398 136.000,293.603 136.000 C 293.771 136.000,294.214 136.945,294.589 138.100 C 294.963 139.255,295.794 141.058,296.435 142.106 C 297.076 143.154,297.605 144.144,297.611 144.306 C 297.632 144.883,299.834 147.145,301.800 148.608 C 302.900 149.427,303.897 150.249,304.015 150.435 C 304.491 151.182,309.329 152.076,311.560 151.829 C 315.340 151.411,318.800 150.672,318.800 150.284 C 318.800 150.081,319.070 150.018,319.400 150.145 C 319.730 150.271,320.000 150.229,320.000 150.051 C 320.000 149.872,320.765 149.503,321.700 149.229 C 322.635 148.955,323.760 148.508,324.200 148.236 C 326.130 147.040,326.287 147.130,326.118 149.336 C 325.934 151.737,325.261 154.898,324.870 155.195 C 324.722 155.308,324.150 156.294,323.600 157.387 C 323.050 158.479,322.222 159.829,321.759 160.387 C 319.505 163.104,319.507 163.106,324.753 162.890 C 339.936 162.264,349.855 165.585,357.628 173.894 L 360.125 176.562 359.834 174.381 C 356.605 150.189,357.608 134.329,362.904 125.802 C 363.177 125.363,363.711 124.530,364.092 123.952 L 364.784 122.900 363.092 122.645 C 359.407 122.091,354.579 121.079,354.200 120.782 C 353.980 120.609,352.270 120.081,350.400 119.608 C 341.378 117.326,341.002 116.962,346.100 115.442 C 347.915 114.901,350.480 114.235,351.800 113.963 C 355.922 113.112,358.500 111.306,359.727 108.411 C 359.962 107.855,360.409 107.094,360.720 106.721 C 361.061 106.312,361.369 104.713,361.494 102.703 C 361.859 96.854,359.492 95.814,350.600 97.914 C 340.698 100.253,336.055 99.765,336.013 96.380 C 336.006 95.819,335.775 95.122,335.500 94.830 C 335.100 94.406,335.100 94.263,335.500 94.117 C 335.775 94.016,336.000 93.495,336.000 92.959 C 336.000 91.424,338.518 84.742,342.041 76.927 C 343.399 73.915,341.108 72.574,332.933 71.593 C 330.770 71.333,328.640 70.967,328.200 70.780 C 327.487 70.476,322.148 70.055,310.400 69.374 C 308.310 69.253,306.027 69.056,305.326 68.937 C 304.106 68.730,304.032 68.795,303.584 70.460 M195.497 107.577 C 189.909 109.084,181.600 116.441,181.600 119.881 C 181.600 120.167,181.453 120.400,181.274 120.400 C 181.094 120.400,180.444 121.525,179.828 122.900 C 177.338 128.464,176.038 131.465,175.582 132.700 C 175.319 133.415,174.972 134.000,174.812 134.000 C 174.652 134.000,174.204 134.765,173.815 135.700 C 173.427 136.635,172.500 138.758,171.755 140.418 C 170.201 143.879,170.119 144.400,171.130 144.400 C 172.224 144.400,173.600 146.087,173.600 147.428 C 173.600 151.889,169.918 156.228,166.383 155.934 L 164.772 155.800 163.699 158.200 C 163.109 159.520,162.513 160.690,162.374 160.800 C 161.161 161.758,158.911 168.400,159.800 168.400 C 162.153 168.400,162.803 173.152,160.978 177.010 C 159.287 180.585,155.195 183.498,153.032 182.668 C 152.621 182.510,151.888 183.605,150.451 186.524 C 147.883 191.738,147.885 191.726,149.600 191.987 C 152.272 192.393,153.112 196.450,151.577 201.532 L 151.054 203.264 147.227 202.974 C 132.642 201.868,129.988 202.875,125.248 211.314 C 123.207 214.948,124.970 216.712,130.170 216.241 C 132.894 215.994,133.068 216.032,134.402 217.145 L 135.793 218.306 135.072 219.818 L 134.351 221.331 135.396 222.165 C 140.095 225.919,134.287 238.797,127.894 238.799 C 126.543 238.800,126.315 238.955,125.694 240.300 C 125.312 241.125,124.892 241.890,124.760 242.000 C 124.430 242.276,121.495 248.844,121.664 248.930 C 123.855 250.049,124.386 251.054,124.394 254.096 C 124.409 259.883,119.749 266.147,115.187 266.473 L 113.408 266.600 111.353 270.800 C 108.444 276.747,108.433 276.800,110.140 276.800 C 114.480 276.800,114.349 285.965,109.938 290.976 C 107.135 294.160,103.539 295.255,101.995 293.394 C 101.410 292.689,100.800 292.979,100.800 293.962 C 100.800 294.356,100.471 295.057,100.069 295.520 C 99.667 295.984,99.019 297.136,98.629 298.082 C 98.238 299.027,97.682 300.361,97.391 301.047 L 96.863 302.295 98.574 302.102 C 105.782 301.289,101.594 318.039,94.244 319.418 C 92.781 319.693,90.800 318.871,90.800 317.991 C 90.800 316.925,89.713 317.815,89.053 319.420 C 88.642 320.420,88.102 321.454,87.853 321.719 C 86.845 322.790,84.802 328.086,85.517 327.775 C 90.661 325.537,93.368 331.118,90.231 337.498 C 89.664 338.652,89.200 339.760,89.200 339.961 C 89.200 340.825,85.590 343.971,84.079 344.423 C 81.858 345.089,80.644 344.678,79.590 342.903 L 78.697 341.400 78.083 342.800 C 77.745 343.570,76.263 346.720,74.790 349.800 C 73.316 352.880,71.975 355.850,71.810 356.400 C 69.547 363.941,56.766 362.561,55.095 354.595 C 54.618 352.318,55.432 347.398,56.384 346.810 C 56.763 346.576,58.490 340.757,58.251 340.518 C 58.175 340.442,57.459 341.177,56.661 342.152 C 50.237 349.991,41.282 345.400,41.540 334.400 C 41.924 317.998,60.556 314.260,60.828 330.531 L 60.856 332.200 61.468 330.200 C 61.805 329.100,62.223 328.110,62.396 328.000 C 62.568 327.890,63.447 325.280,64.348 322.200 C 68.064 309.493,68.464 308.207,68.762 308.008 C 68.933 307.894,69.728 305.550,70.529 302.800 C 73.806 291.542,74.478 289.356,75.014 288.205 C 75.517 287.125,77.026 282.309,79.589 273.600 C 80.074 271.950,80.723 270.060,81.030 269.400 C 81.337 268.740,82.022 266.749,82.551 264.976 C 83.502 261.788,86.987 254.400,87.539 254.400 C 87.697 254.400,88.864 253.050,90.134 251.400 C 91.405 249.750,92.605 248.400,92.801 248.400 C 93.164 248.400,96.786 245.485,99.055 243.366 C 99.742 242.725,101.180 241.525,102.252 240.699 C 103.323 239.874,104.830 238.637,105.600 237.951 C 106.370 237.265,107.585 236.254,108.300 235.704 C 111.186 233.486,113.840 233.600,59.200 233.600 C 31.480 233.600,8.800 233.743,8.800 233.919 C 8.800 234.094,11.414 236.810,14.609 239.954 C 20.204 245.460,22.869 248.745,23.975 251.500 C 24.262 252.215,24.638 252.800,24.809 252.800 C 24.981 252.800,25.335 253.385,25.595 254.100 C 28.074 260.912,28.583 267.619,27.243 275.800 C 26.775 278.660,26.085 282.890,25.711 285.200 C 25.337 287.510,24.919 289.490,24.783 289.600 C 24.542 289.795,24.121 292.339,20.816 313.600 C 19.943 319.210,19.044 324.350,18.817 325.021 C 18.591 325.693,17.945 329.293,17.382 333.021 C 15.150 347.813,13.539 358.764,13.120 362.000 C 12.878 363.870,12.544 365.490,12.378 365.600 C 12.052 365.816,9.921 382.231,9.148 390.478 C 8.466 397.756,10.115 407.356,12.364 409.200 C 12.872 409.617,14.800 412.802,14.800 413.225 C 14.800 415.475,25.143 422.898,30.433 424.444 C 31.405 424.729,32.290 425.082,32.400 425.230 C 33.519 426.733,51.400 426.738,52.391 425.236 C 52.506 425.062,53.779 424.529,55.220 424.053 C 63.250 421.401,73.743 410.690,79.568 399.200 C 80.293 397.770,81.022 396.510,81.188 396.400 C 81.523 396.178,85.600 387.679,85.600 387.203 C 85.600 386.769,87.266 383.038,87.566 382.800 C 87.704 382.690,88.602 380.260,89.561 377.400 C 90.520 374.540,91.641 371.532,92.052 370.716 C 92.463 369.900,92.800 368.968,92.800 368.645 C 92.800 368.321,93.082 367.776,93.426 367.431 C 93.770 367.087,94.777 365.049,95.663 362.903 C 96.549 360.756,97.830 357.650,98.509 356.000 C 99.188 354.350,99.953 352.790,100.209 352.534 C 100.465 352.278,100.905 351.468,101.186 350.734 C 101.467 350.000,102.295 347.960,103.025 346.200 C 103.756 344.440,104.544 342.493,104.777 341.873 C 105.079 341.069,105.401 340.806,105.900 340.956 C 109.026 341.894,149.087 342.361,149.855 341.469 C 149.887 341.431,150.044 337.335,150.204 332.366 L 150.494 323.333 146.256 322.637 C 140.651 321.717,133.591 319.843,130.853 318.548 C 129.640 317.974,127.665 317.166,126.464 316.753 C 124.106 315.942,119.604 313.546,118.656 312.599 C 118.092 312.034,118.188 310.400,118.786 310.400 C 118.947 310.400,119.397 309.635,119.786 308.700 C 120.174 307.765,121.171 305.380,122.000 303.400 C 122.829 301.420,123.826 299.035,124.214 298.100 C 124.603 297.165,125.074 296.400,125.261 296.400 C 125.447 296.400,125.600 296.226,125.600 296.013 C 125.600 295.660,127.200 291.707,129.895 285.400 C 130.459 284.080,131.068 282.903,131.248 282.784 C 131.429 282.665,131.839 281.855,132.159 280.984 C 132.479 280.113,133.584 277.420,134.614 275.000 C 135.644 272.580,136.692 270.060,136.943 269.400 C 137.195 268.740,137.586 268.001,137.813 267.759 C 138.040 267.516,138.523 266.616,138.887 265.759 C 139.251 264.901,140.280 262.490,141.174 260.399 C 142.068 258.309,142.800 256.387,142.800 256.128 C 142.800 255.869,143.082 255.375,143.427 255.030 C 143.988 254.469,145.521 251.020,148.681 243.207 C 149.258 241.780,149.942 240.401,150.202 240.141 C 150.462 239.881,150.901 239.068,151.178 238.334 C 151.455 237.600,152.096 236.010,152.603 234.800 C 153.109 233.590,154.098 231.205,154.799 229.500 C 155.501 227.795,156.215 226.400,156.387 226.400 C 156.559 226.400,156.804 225.882,156.930 225.248 C 157.299 223.403,158.240 222.743,160.308 222.880 C 162.513 223.026,162.397 222.820,164.223 229.800 C 165.954 236.416,165.779 236.156,168.024 235.443 C 172.252 234.100,179.828 231.144,180.330 230.641 C 181.033 229.939,177.243 219.757,174.880 216.000 C 174.396 215.230,173.429 213.455,172.732 212.056 C 171.430 209.444,170.128 207.878,167.496 205.756 L 165.991 204.543 167.296 201.371 C 168.013 199.627,168.797 197.990,169.037 197.734 C 169.278 197.478,169.708 196.668,169.993 195.934 C 170.441 194.781,171.388 192.486,174.297 185.500 C 174.640 184.675,175.074 184.000,175.261 184.000 C 175.447 184.000,175.600 183.826,175.600 183.613 C 175.600 183.255,177.397 178.821,179.899 173.007 C 180.465 171.692,181.169 170.374,181.464 170.079 C 181.759 169.784,182.000 169.361,182.000 169.138 C 182.000 168.916,182.518 167.534,183.152 166.067 C 183.785 164.600,184.986 161.780,185.820 159.800 C 186.655 157.820,187.456 156.110,187.600 156.000 C 187.744 155.890,188.542 154.180,189.373 152.200 C 190.204 150.220,191.315 147.633,191.842 146.452 C 192.369 145.270,192.800 144.068,192.800 143.780 C 192.800 143.493,193.082 142.976,193.426 142.631 C 193.770 142.287,194.777 140.249,195.663 138.103 C 196.549 135.956,197.828 132.855,198.504 131.211 C 199.181 129.567,200.334 127.605,201.067 126.850 C 201.800 126.095,202.400 125.334,202.400 125.158 C 202.400 124.394,206.033 122.444,208.631 121.813 L 211.462 121.125 220.831 122.966 C 225.984 123.979,230.560 124.980,231.000 125.192 C 231.440 125.404,236.030 126.396,241.200 127.398 C 246.370 128.399,251.261 129.372,252.068 129.559 C 253.220 129.826,253.492 129.785,253.333 129.370 C 253.116 128.805,254.367 126.400,254.878 126.400 C 255.046 126.400,255.572 125.635,256.047 124.700 C 256.521 123.765,257.420 122.255,258.044 121.344 L 259.178 119.688 258.289 119.449 C 257.800 119.318,257.010 119.208,256.533 119.205 C 256.057 119.202,255.607 119.043,255.533 118.850 C 255.460 118.658,252.790 117.933,249.600 117.239 C 246.410 116.545,242.630 115.717,241.200 115.399 C 239.770 115.081,236.350 114.337,233.600 113.746 C 230.850 113.156,228.510 112.544,228.400 112.386 C 228.290 112.229,227.570 111.976,226.800 111.824 C 225.583 111.584,221.726 110.753,209.800 108.163 C 208.260 107.828,206.245 107.385,205.323 107.177 C 202.745 106.597,198.487 106.771,195.497 107.577 M65.894 288.642 C 69.670 291.632,71.105 299.593,68.880 305.219 C 64.009 317.542,50.990 315.218,51.004 302.028 C 51.016 291.210,59.501 283.582,65.894 288.642 M50.561 352.543 C 51.352 353.147,52.000 353.902,52.000 354.220 C 52.000 354.539,52.180 354.800,52.400 354.800 C 52.620 354.800,52.800 354.993,52.800 355.229 C 52.800 355.464,53.057 355.914,53.371 356.228 C 54.738 357.595,54.671 365.447,53.268 368.232 C 52.834 369.094,52.175 370.465,51.804 371.278 C 48.734 378.004,39.971 379.189,36.544 373.341 C 30.598 363.195,42.118 346.103,50.561 352.543 " stroke="none" fill="#f48c42" fill-rule="evenodd"></path><path id="path1" d="M342.213 164.725 C 342.774 165.218,346.037 166.096,346.306 165.828 C 346.431 165.702,346.368 165.598,346.167 165.596 C 345.965 165.593,344.906 165.320,343.813 164.989 C 342.720 164.657,342.000 164.539,342.213 164.725 M217.000 378.203 C 217.914 378.521,220.329 378.609,220.148 378.316 C 220.041 378.142,219.198 378.014,218.276 378.032 C 217.354 378.049,216.780 378.126,217.000 378.203 M241.869 382.015 C 242.051 382.189,243.280 382.429,244.600 382.549 C 247.249 382.788,246.924 382.618,243.669 382.062 C 242.497 381.862,241.687 381.841,241.869 382.015 M249.800 383.420 C 251.340 383.712,253.050 383.942,253.600 383.931 C 254.150 383.919,253.340 383.672,251.800 383.380 C 250.260 383.088,248.550 382.858,248.000 382.869 C 247.450 382.881,248.260 383.128,249.800 383.420 M255.000 384.186 C 255.838 384.555,259.646 385.087,259.331 384.792 C 259.149 384.621,258.010 384.375,256.800 384.246 C 255.590 384.116,254.780 384.089,255.000 384.186 M278.200 388.690 C 281.466 389.496,289.586 391.032,289.324 390.795 C 288.958 390.463,278.869 388.375,277.978 388.446 C 277.660 388.472,277.760 388.582,278.200 388.690 M305.468 394.818 C 305.650 394.996,307.280 395.517,309.089 395.977 C 310.898 396.436,312.878 397.000,313.489 397.231 C 314.195 397.498,314.454 397.504,314.200 397.249 C 313.980 397.028,311.850 396.318,309.468 395.671 C 307.085 395.024,305.285 394.641,305.468 394.818 M324.200 400.714 C 324.420 400.915,325.950 401.568,327.600 402.165 C 329.250 402.762,330.420 403.087,330.200 402.886 C 329.980 402.685,328.450 402.032,326.800 401.435 C 325.150 400.838,323.980 400.513,324.200 400.714 M205.074 428.887 C 204.043 430.026,203.200 431.118,203.200 431.312 C 203.200 431.661,200.938 434.648,199.499 436.200 C 199.091 436.640,197.420 438.800,195.786 441.000 C 194.151 443.200,192.009 445.990,191.025 447.200 C 190.041 448.410,189.228 449.595,189.218 449.833 C 189.208 450.072,188.605 450.882,187.877 451.633 C 186.283 453.280,184.000 456.205,184.000 456.600 C 184.000 456.999,181.531 460.131,180.911 460.520 C 180.630 460.696,180.400 461.018,180.400 461.237 C 180.400 461.455,180.215 461.851,179.989 462.117 C 179.763 462.383,178.598 463.950,177.400 465.600 C 176.202 467.250,175.075 468.780,174.895 469.000 C 173.553 470.638,171.200 473.926,171.200 474.163 C 171.200 474.541,169.097 477.358,168.678 477.541 C 168.501 477.618,167.164 479.495,165.707 481.712 C 164.250 483.928,162.775 486.038,162.429 486.400 C 161.497 487.376,157.600 493.134,157.600 493.536 C 157.600 493.727,157.195 494.324,156.700 494.862 C 155.203 496.492,153.600 498.720,153.600 499.173 C 153.600 499.408,153.420 499.600,153.200 499.600 C 152.980 499.600,152.791 499.825,152.781 500.100 C 152.770 500.375,152.051 501.590,151.184 502.800 C 148.587 506.423,145.200 511.605,145.200 511.955 C 145.200 512.136,144.749 512.770,144.197 513.365 C 143.240 514.398,140.400 518.613,140.400 519.000 C 140.400 519.101,139.725 520.201,138.900 521.443 C 138.075 522.684,137.220 523.994,137.000 524.353 C 133.789 529.586,132.800 531.282,132.800 531.554 C 132.800 531.733,132.228 532.670,131.529 533.635 C 130.319 535.305,129.700 536.385,126.507 542.399 C 125.748 543.828,124.973 545.093,124.785 545.209 C 124.597 545.325,123.231 548.026,121.750 551.210 C 120.269 554.395,118.932 557.090,118.779 557.200 C 118.520 557.386,117.961 558.675,116.046 563.500 C 114.921 566.335,113.212 571.981,112.928 573.800 C 112.791 574.680,112.500 575.516,112.283 575.659 C 111.714 576.030,111.684 584.354,112.250 584.714 C 112.497 584.871,112.832 585.630,112.994 586.400 C 113.559 589.082,116.462 595.929,118.866 600.250 C 120.198 602.642,121.880 605.770,122.604 607.200 C 123.328 608.630,124.389 610.340,124.962 611.000 C 125.536 611.660,126.117 612.549,126.253 612.975 C 126.390 613.402,127.289 614.978,128.251 616.479 C 129.213 617.980,130.000 619.341,130.000 619.504 C 130.001 619.667,130.468 620.340,131.038 621.000 C 131.609 621.660,132.535 623.010,133.096 624.000 C 135.046 627.438,137.296 630.800,137.647 630.800 C 137.841 630.800,138.000 631.000,138.000 631.245 C 138.000 631.489,139.170 633.379,140.600 635.444 C 142.030 637.510,143.200 639.380,143.200 639.600 C 143.200 639.820,143.360 640.000,143.557 640.000 C 143.753 640.000,145.118 641.889,146.590 644.199 C 148.062 646.508,149.495 648.533,149.775 648.699 C 150.054 648.864,150.514 649.450,150.795 650.000 C 151.076 650.550,152.155 652.170,153.191 653.600 C 154.228 655.030,155.188 656.515,155.325 656.900 C 155.463 657.285,155.739 657.600,155.939 657.600 C 156.139 657.600,157.345 659.175,158.618 661.100 C 159.892 663.025,161.131 664.780,161.373 665.000 C 162.095 665.658,164.400 668.694,164.400 668.988 C 164.400 669.239,167.504 673.407,168.727 674.800 C 169.018 675.130,170.317 676.930,171.616 678.800 C 172.914 680.670,174.310 682.560,174.717 683.000 C 175.994 684.377,178.000 687.100,178.002 687.458 C 178.003 687.646,178.633 688.485,179.402 689.322 C 180.171 690.160,180.800 690.902,180.800 690.972 C 180.800 691.042,181.430 691.787,182.200 692.628 C 182.970 693.469,183.600 694.316,183.600 694.512 C 183.600 695.023,187.252 699.600,187.659 699.600 C 187.847 699.600,188.000 699.793,188.000 700.029 C 188.000 700.437,191.549 705.302,193.081 706.994 C 194.597 708.669,198.000 713.157,198.000 713.482 C 198.000 713.669,198.315 714.115,198.700 714.472 C 200.000 715.679,201.591 717.601,202.559 719.135 C 203.088 719.974,204.145 721.321,204.908 722.130 C 205.671 722.938,206.188 723.600,206.058 723.600 C 205.928 723.600,206.222 723.880,206.711 724.223 C 207.200 724.565,207.600 725.025,207.600 725.244 C 207.600 725.789,212.002 731.200,212.445 731.200 C 212.640 731.200,212.800 731.389,212.800 731.620 C 212.800 732.065,216.921 737.379,219.609 740.400 C 220.489 741.390,221.703 742.933,222.305 743.829 C 222.907 744.725,224.079 746.130,224.909 746.952 C 225.739 747.773,226.857 749.139,227.393 749.988 C 227.928 750.837,229.118 752.312,230.037 753.266 C 230.956 754.220,232.232 755.720,232.873 756.600 C 233.514 757.480,234.914 759.190,235.984 760.400 C 237.054 761.610,239.357 764.310,241.102 766.400 C 256.981 785.417,260.522 788.085,272.872 790.344 L 274.744 790.686 274.093 789.643 C 273.735 789.069,272.848 787.985,272.121 787.233 C 271.394 786.482,270.800 785.715,270.800 785.529 C 270.800 785.343,268.047 781.638,264.682 777.295 C 255.643 765.629,254.800 764.500,254.800 764.053 C 254.800 763.829,254.464 763.410,254.054 763.123 C 253.644 762.835,252.706 761.700,251.971 760.600 C 251.236 759.500,247.252 754.159,243.117 748.731 C 238.983 743.303,235.600 738.675,235.600 738.445 C 235.600 738.216,235.278 737.856,234.884 737.645 C 234.490 737.434,233.906 736.753,233.585 736.131 C 233.264 735.509,229.626 730.461,225.501 724.913 C 221.375 719.364,218.000 714.717,218.000 714.584 C 218.000 714.367,216.803 712.689,211.198 705.055 C 210.206 703.705,208.514 701.340,207.437 699.800 C 206.360 698.260,204.803 696.100,203.978 695.000 C 203.153 693.900,202.146 692.416,201.739 691.703 C 201.333 690.989,198.165 686.269,194.700 681.215 C 191.235 676.160,188.400 671.907,188.400 671.763 C 188.400 671.619,187.262 669.768,185.872 667.650 C 183.108 663.441,180.400 659.010,180.400 658.697 C 180.400 658.588,179.252 656.498,177.849 654.054 C 175.207 649.452,173.418 644.605,172.959 640.800 C 172.813 639.590,172.502 638.359,172.269 638.065 C 171.706 637.357,171.741 616.673,172.307 615.468 C 172.531 614.990,172.921 611.836,173.174 608.457 C 173.978 597.748,177.592 569.560,178.388 567.800 C 178.587 567.360,179.407 562.950,180.210 558.000 C 182.313 545.029,184.346 533.925,184.785 533.000 C 184.994 532.560,185.454 530.580,185.806 528.600 C 187.255 520.471,190.880 502.656,191.208 502.050 C 191.402 501.693,191.941 499.510,192.406 497.200 C 193.274 492.886,194.595 486.685,196.070 480.009 C 196.530 477.923,197.051 475.943,197.227 475.609 C 197.682 474.742,198.878 469.025,201.202 456.600 C 202.313 450.660,203.385 445.440,203.584 445.000 C 203.956 444.179,207.228 427.095,207.048 426.915 C 206.993 426.860,206.105 427.747,205.074 428.887 M292.800 810.934 C 292.800 811.037,293.381 811.324,294.091 811.572 C 294.801 811.819,295.206 811.857,294.991 811.656 C 294.535 811.229,292.800 810.658,292.800 810.934 M304.800 815.398 C 304.800 815.667,308.849 817.684,309.029 817.505 C 309.111 817.423,308.193 816.873,306.989 816.282 C 305.785 815.692,304.800 815.294,304.800 815.398 " stroke="none" fill="#ac5c44" fill-rule="evenodd"></path><path id="path2" d="M307.024 4.830 C 305.057 5.254,303.347 5.743,303.224 5.917 C 303.101 6.091,302.190 6.484,301.200 6.789 C 297.955 7.791,291.664 11.203,289.714 13.019 C 288.662 13.999,287.613 14.800,287.382 14.800 C 286.898 14.800,284.000 17.674,284.000 18.154 C 284.000 18.331,283.157 19.583,282.126 20.938 C 274.493 30.968,277.906 45.906,290.785 58.829 C 300.636 68.715,300.844 68.793,320.376 70.023 C 324.432 70.279,328.032 70.633,328.376 70.811 C 328.719 70.988,330.770 71.343,332.933 71.599 C 341.095 72.565,343.400 73.913,342.041 76.927 C 338.518 84.742,336.000 91.424,336.000 92.959 C 336.000 93.495,335.775 94.016,335.500 94.117 C 335.100 94.263,335.100 94.406,335.500 94.830 C 335.775 95.121,336.006 95.819,336.013 96.380 C 336.055 99.765,340.698 100.253,350.600 97.914 C 359.492 95.814,361.859 96.854,361.494 102.703 C 361.369 104.713,361.061 106.312,360.720 106.721 C 360.409 107.094,359.962 107.855,359.727 108.411 C 358.500 111.306,355.922 113.112,351.800 113.963 C 350.480 114.235,347.915 114.901,346.100 115.442 C 341.002 116.962,341.378 117.326,350.400 119.608 C 352.270 120.081,353.980 120.608,354.200 120.780 C 354.636 121.120,359.787 122.192,363.037 122.619 C 366.721 123.103,371.771 118.242,374.379 111.700 C 374.664 110.985,375.028 110.400,375.188 110.400 C 375.806 110.400,379.184 101.402,380.443 96.400 C 380.969 94.310,381.516 92.510,381.660 92.400 C 383.947 90.645,383.887 64.538,381.586 60.463 C 381.381 60.098,380.843 58.663,380.393 57.274 C 379.150 53.440,376.219 47.786,374.624 46.143 C 373.841 45.337,373.200 44.521,373.200 44.330 C 373.200 43.656,369.813 40.319,367.717 38.927 C 366.549 38.152,365.458 37.275,365.291 36.977 C 363.175 33.196,345.054 30.167,340.054 32.759 C 334.589 35.590,326.663 36.844,324.168 35.271 C 321.487 33.581,320.809 29.707,321.762 21.519 C 322.893 11.805,322.253 5.600,320.120 5.600 C 319.834 5.600,319.600 5.451,319.600 5.269 C 319.600 3.975,312.194 3.716,307.024 4.830 M347.248 166.154 C 347.749 166.711,352.084 169.184,351.656 168.668 C 351.413 168.375,350.266 167.627,349.107 167.006 C 347.948 166.385,347.112 166.002,347.248 166.154 M357.200 173.800 C 357.946 174.570,358.647 175.200,358.757 175.200 C 358.867 175.200,358.346 174.570,357.600 173.800 C 356.854 173.030,356.153 172.400,356.043 172.400 C 355.933 172.400,356.454 173.030,357.200 173.800 M167.866 235.474 C 166.803 235.800,166.003 236.136,166.089 236.222 C 166.319 236.452,169.337 235.586,169.780 235.163 C 170.225 234.738,170.331 234.721,167.866 235.474 M216.468 380.300 C 216.248 381.345,215.296 386.250,214.350 391.200 C 213.405 396.150,212.516 400.290,212.375 400.400 C 212.234 400.510,211.744 402.580,211.286 405.000 C 210.829 407.420,209.824 412.730,209.054 416.800 C 208.284 420.870,206.735 429.150,205.613 435.200 C 204.491 441.250,203.404 446.560,203.198 447.000 C 202.992 447.440,201.910 452.660,200.795 458.600 C 198.376 471.479,197.348 476.322,196.804 477.400 C 196.405 478.192,195.864 480.618,192.788 495.400 C 191.919 499.580,191.037 503.360,190.828 503.800 C 190.460 504.578,187.886 517.277,185.801 528.600 C 185.234 531.680,184.602 534.560,184.397 535.000 C 183.978 535.898,181.504 549.685,179.588 561.800 C 178.892 566.200,178.163 570.160,177.968 570.600 C 177.646 571.329,175.457 586.638,174.422 595.400 C 173.472 603.444,172.767 611.742,172.527 617.715 C 172.388 621.189,172.122 624.125,171.937 624.239 C 171.459 624.534,171.517 630.701,172.000 631.000 C 172.220 631.136,172.400 632.484,172.400 633.995 C 172.400 641.067,174.551 649.185,177.594 653.600 C 177.973 654.150,179.143 656.220,180.195 658.200 C 181.247 660.180,183.703 664.272,185.653 667.294 C 187.604 670.316,189.200 672.971,189.200 673.194 C 189.200 673.417,189.380 673.600,189.600 673.600 C 189.820 673.600,190.000 673.771,190.000 673.979 C 190.000 674.188,190.450 674.844,191.000 675.438 C 191.550 676.031,192.000 676.691,192.000 676.904 C 192.000 677.118,194.340 680.698,197.200 684.860 C 200.060 689.023,202.400 692.503,202.400 692.594 C 202.400 692.685,202.848 693.242,203.396 693.834 C 203.944 694.425,204.807 695.649,205.315 696.554 C 205.822 697.459,209.154 702.207,212.718 707.104 C 216.283 712.002,219.200 716.107,219.200 716.227 C 219.200 716.421,225.580 725.063,233.871 736.099 C 235.482 738.243,236.800 740.099,236.800 740.222 C 236.800 740.346,241.120 746.099,246.400 753.008 C 251.680 759.917,256.000 765.686,256.000 765.827 C 256.000 765.969,257.136 767.551,258.524 769.343 C 265.344 778.143,274.644 790.283,275.000 790.850 C 276.793 793.705,279.416 797.300,280.587 798.505 C 281.364 799.305,282.000 800.079,282.000 800.225 C 282.000 802.001,289.869 809.988,292.186 810.564 C 292.838 810.726,294.098 811.182,294.986 811.578 C 295.874 811.974,298.130 812.810,300.000 813.437 C 301.870 814.063,306.002 815.880,309.181 817.473 C 312.361 819.067,315.016 820.318,315.081 820.253 C 315.278 820.055,313.141 815.016,312.758 814.777 C 312.561 814.654,311.967 813.484,311.437 812.177 C 308.952 806.045,306.762 801.021,306.487 800.820 C 306.193 800.606,303.200 793.867,303.200 793.419 C 303.200 793.295,302.188 791.080,300.952 788.497 C 298.967 784.350,296.930 779.690,294.876 774.600 C 294.521 773.720,294.095 772.904,293.930 772.786 C 293.766 772.668,293.339 771.858,292.983 770.986 C 288.787 760.723,287.891 758.661,287.504 758.377 C 287.337 758.254,286.769 757.084,286.241 755.777 C 282.832 747.337,281.974 745.391,281.610 745.270 C 281.384 745.195,281.200 744.955,281.200 744.736 C 281.200 744.518,280.551 742.778,279.758 740.869 C 278.965 738.961,277.971 736.547,277.549 735.504 C 277.127 734.462,275.886 731.724,274.791 729.419 C 273.696 727.115,272.800 725.066,272.800 724.867 C 272.800 724.345,270.581 719.079,268.979 715.800 C 268.226 714.260,266.603 710.407,265.371 707.237 C 264.139 704.068,262.877 701.220,262.566 700.909 C 262.255 700.597,262.001 700.131,262.002 699.871 C 262.003 699.612,261.479 698.050,260.837 696.400 C 260.195 694.750,259.183 692.050,258.587 690.400 C 257.991 688.750,257.172 686.680,256.766 685.800 C 256.360 684.920,254.835 680.600,253.376 676.200 C 251.918 671.800,250.499 667.840,250.224 667.400 C 249.949 666.960,249.342 665.494,248.876 664.141 C 248.411 662.789,247.556 660.449,246.976 658.941 C 246.397 657.434,245.547 655.210,245.086 654.000 C 244.626 652.790,244.126 651.710,243.975 651.600 C 243.725 651.419,242.231 647.908,240.401 643.200 C 240.016 642.210,239.347 640.590,238.915 639.600 L 238.129 637.800 240.873 629.400 C 242.383 624.780,243.946 620.280,244.348 619.400 C 244.750 618.520,246.122 614.574,247.399 610.630 C 248.675 606.687,249.957 603.003,250.247 602.444 C 250.537 601.885,251.980 597.731,253.453 593.214 C 254.926 588.696,256.336 584.730,256.586 584.400 C 256.836 584.070,258.281 580.020,259.796 575.400 C 261.311 570.780,262.677 566.910,262.831 566.800 C 262.986 566.690,264.346 562.910,265.853 558.400 C 267.360 553.890,268.712 550.110,268.857 550.000 C 269.090 549.823,272.254 540.906,273.611 536.600 C 273.889 535.720,274.515 534.100,275.004 533.000 C 276.048 530.648,277.287 527.271,279.626 520.400 C 280.562 517.650,281.461 515.310,281.623 515.200 C 281.786 515.090,282.821 512.390,283.923 509.200 C 286.622 501.390,287.353 499.436,287.660 499.200 C 287.803 499.090,288.555 497.200,289.331 495.000 C 292.600 485.730,293.571 483.115,293.911 482.670 C 294.108 482.412,295.389 479.140,296.758 475.400 C 298.126 471.660,299.612 467.905,300.060 467.056 C 300.833 465.590,301.288 464.444,304.024 457.053 C 304.665 455.322,305.799 452.622,306.544 451.053 C 307.289 449.484,308.934 445.590,310.199 442.400 C 311.464 439.210,312.630 436.510,312.790 436.400 C 312.949 436.290,313.583 435.030,314.198 433.600 C 316.961 427.177,318.552 423.754,319.038 423.189 C 319.326 422.853,320.051 421.503,320.648 420.189 C 321.244 418.875,322.423 416.657,323.266 415.259 C 324.110 413.862,324.800 412.557,324.800 412.359 C 324.800 412.162,324.963 412.000,325.162 412.000 C 325.688 412.000,327.763 408.324,327.702 407.500 C 327.673 407.115,327.864 406.798,328.125 406.796 C 328.508 406.793,329.780 404.435,330.001 403.320 C 330.029 403.177,328.916 402.635,327.526 402.114 C 326.137 401.594,324.280 400.827,323.400 400.410 C 321.821 399.662,313.457 397.088,308.400 395.794 C 306.970 395.428,305.620 394.982,305.400 394.803 C 304.954 394.440,293.898 391.918,284.400 390.011 C 280.990 389.327,277.840 388.603,277.400 388.402 C 276.960 388.202,274.530 387.668,272.000 387.216 C 262.993 385.608,253.718 384.044,248.200 383.204 C 245.120 382.735,242.240 382.187,241.800 381.987 C 240.997 381.622,219.360 378.396,217.733 378.399 C 217.022 378.400,216.795 378.741,216.468 380.300 " stroke="none" fill="#c46c54" fill-rule="evenodd"></path><path id="path3" d="M257.873 122.100 C 253.489 128.302,253.107 129.647,255.506 130.429 C 256.328 130.697,257.091 131.055,257.203 131.225 C 257.620 131.859,265.110 133.715,268.002 133.899 C 270.885 134.084,275.940 132.514,276.472 131.269 C 277.164 129.648,282.685 127.681,287.101 127.481 C 291.789 127.270,292.159 126.717,288.158 125.902 C 286.861 125.638,285.710 125.309,285.600 125.171 C 285.400 124.920,261.025 119.585,260.120 119.595 C 259.856 119.598,258.845 120.725,257.873 122.100 M319.638 163.219 C 318.009 163.423,314.769 163.954,312.438 164.399 C 309.324 164.992,306.025 165.248,300.000 165.362 C 291.951 165.514,288.697 165.899,282.266 167.461 C 280.763 167.826,279.323 168.334,279.066 168.591 C 278.809 168.848,277.700 169.391,276.600 169.798 C 274.313 170.644,271.373 172.215,270.200 173.216 C 269.760 173.591,269.194 173.966,268.942 174.049 C 268.356 174.242,263.200 180.628,263.200 181.160 C 263.200 181.380,262.959 181.704,262.664 181.880 C 262.000 182.277,259.800 185.749,258.027 189.200 C 257.292 190.630,256.570 191.890,256.424 192.000 C 256.142 192.211,253.749 197.369,251.598 202.400 C 250.893 204.050,250.186 205.490,250.027 205.600 C 249.751 205.791,245.373 217.394,244.414 220.474 C 244.161 221.285,243.809 222.005,243.631 222.074 C 243.373 222.174,239.517 233.720,238.178 238.400 C 238.021 238.950,237.747 239.494,237.570 239.609 C 237.292 239.789,233.571 252.177,231.986 258.200 C 231.696 259.300,231.329 260.290,231.169 260.400 C 230.883 260.598,228.355 269.891,226.165 278.800 C 225.543 281.330,224.908 283.490,224.754 283.601 C 224.600 283.711,224.347 284.476,224.192 285.301 C 224.038 286.125,223.786 286.800,223.633 286.800 C 223.283 286.800,219.817 282.045,219.477 281.100 C 219.338 280.715,219.074 280.400,218.890 280.400 C 218.494 280.400,214.800 275.453,214.800 274.923 C 214.800 274.722,213.907 273.578,212.815 272.379 C 211.724 271.181,210.601 269.750,210.321 269.200 C 209.598 267.783,206.760 264.000,206.420 264.000 C 206.263 264.000,205.880 263.508,205.568 262.907 C 204.759 261.350,201.019 256.011,199.788 254.657 C 199.216 254.029,197.753 252.003,196.537 250.156 C 195.320 248.309,194.099 246.663,193.823 246.499 C 193.547 246.335,192.803 245.390,192.169 244.400 C 191.004 242.582,187.989 238.370,187.587 238.000 C 187.158 237.605,183.321 232.173,182.852 231.296 C 182.249 230.170,181.949 230.177,179.426 231.371 C 178.297 231.904,176.840 232.472,176.187 232.632 C 175.534 232.792,174.910 233.058,174.800 233.223 C 174.485 233.696,169.705 235.371,164.300 236.903 C 162.483 237.418,162.436 237.865,163.843 241.274 C 165.330 244.878,167.016 249.107,167.799 251.199 C 168.170 252.188,168.616 253.088,168.791 253.199 C 168.966 253.309,169.955 255.560,170.989 258.200 C 173.781 265.332,174.472 266.979,174.769 267.200 C 175.008 267.379,178.825 276.915,180.289 280.996 C 180.604 281.873,180.988 282.683,181.142 282.796 C 181.470 283.035,182.213 284.783,184.204 290.000 C 187.064 297.494,187.354 298.203,187.644 298.404 C 187.806 298.517,188.200 299.327,188.519 300.204 C 188.839 301.082,190.020 304.230,191.145 307.200 C 192.269 310.170,193.192 312.825,193.195 313.100 C 193.198 313.375,193.362 313.600,193.561 313.600 C 193.759 313.600,194.103 314.120,194.325 314.756 L 194.727 315.911 189.264 317.224 C 186.259 317.946,183.710 318.657,183.600 318.804 C 183.198 319.340,168.388 322.400,162.200 323.226 C 160.079 323.508,156.941 323.605,154.563 323.460 L 150.525 323.215 150.264 330.108 C 150.120 333.898,150.002 338.020,150.001 339.266 L 150.000 341.532 152.900 341.760 C 154.495 341.885,158.590 342.175,162.000 342.404 C 171.980 343.074,178.584 343.723,178.814 344.057 C 178.931 344.228,180.731 344.420,182.814 344.484 C 184.896 344.548,186.701 344.736,186.825 344.902 C 186.948 345.068,188.522 345.248,190.321 345.302 C 192.120 345.356,193.594 345.506,193.596 345.635 C 193.602 345.999,204.671 347.327,205.163 347.023 C 205.404 346.874,205.600 346.943,205.600 347.176 C 205.600 347.409,206.128 347.600,206.773 347.600 C 208.016 347.600,208.700 348.346,210.217 351.353 C 210.648 352.207,211.451 353.377,212.003 353.953 C 212.554 354.529,213.724 355.957,214.603 357.126 C 215.481 358.295,217.100 359.802,218.200 360.474 C 219.300 361.146,220.266 361.755,220.346 361.827 C 220.561 362.020,219.064 369.365,218.762 369.600 C 218.621 369.710,218.158 371.600,217.732 373.800 L 216.959 377.800 219.380 378.105 C 220.711 378.273,222.160 378.578,222.600 378.783 C 223.040 378.988,224.390 379.271,225.600 379.412 C 233.339 380.317,260.122 384.630,261.400 385.178 C 261.840 385.366,264.000 385.815,266.200 386.175 C 273.134 387.309,290.982 390.874,291.400 391.208 C 291.620 391.384,293.240 391.823,295.000 392.184 C 302.688 393.758,313.750 396.660,315.800 397.640 C 316.240 397.851,318.220 398.537,320.200 399.166 C 322.180 399.794,325.308 400.859,327.150 401.532 C 331.238 403.026,330.698 403.470,334.363 395.596 C 335.942 392.202,337.362 389.330,337.518 389.213 C 337.913 388.916,340.225 383.381,342.870 376.400 C 343.161 375.630,343.521 374.908,343.668 374.796 C 344.097 374.470,346.112 369.161,348.677 361.600 C 349.237 359.950,349.894 358.352,350.138 358.050 C 350.573 357.510,353.092 349.923,355.069 343.203 C 355.618 341.334,356.210 339.714,356.383 339.603 C 356.685 339.408,359.366 330.327,361.226 323.200 C 361.714 321.330,362.270 319.599,362.462 319.353 C 362.846 318.859,366.190 304.833,367.647 297.600 C 368.157 295.070,368.704 292.906,368.863 292.791 C 369.594 292.263,373.452 268.100,374.455 257.768 C 374.731 254.926,375.081 252.510,375.234 252.400 C 376.675 251.361,376.638 216.207,375.195 215.200 C 375.037 215.090,374.694 213.740,374.433 212.200 C 373.404 206.141,369.624 192.518,368.831 192.013 C 368.648 191.896,367.930 190.464,367.237 188.832 C 364.261 181.819,363.086 180.046,357.600 174.293 C 353.314 169.798,349.404 167.146,345.086 165.806 C 343.279 165.245,341.440 164.613,341.000 164.401 C 338.601 163.245,325.296 162.509,319.638 163.219 M255.750 788.698 C 254.237 790.374,252.507 792.387,251.904 793.172 C 251.302 793.958,250.137 795.350,249.317 796.266 C 248.496 797.182,247.546 798.450,247.206 799.084 C 246.276 800.818,243.867 804.570,243.527 804.815 C 241.889 805.992,240.685 813.443,241.788 815.576 C 243.387 818.668,249.642 818.203,254.400 814.638 C 255.754 813.624,263.200 806.418,263.200 806.122 C 263.200 806.042,264.201 804.796,265.424 803.354 C 266.647 801.913,267.846 800.298,268.088 799.767 C 268.330 799.235,268.653 798.800,268.805 798.800 C 269.122 798.800,272.800 794.203,272.800 793.807 C 272.800 793.664,273.270 792.931,273.844 792.178 C 275.010 790.649,275.132 790.759,271.433 789.999 C 268.975 789.494,264.092 787.916,260.550 786.481 L 258.500 785.651 255.750 788.698 M283.926 814.576 C 274.213 824.455,263.747 836.265,263.080 838.100 C 262.940 838.485,262.652 838.800,262.442 838.800 C 261.530 838.800,259.200 843.490,259.200 845.325 C 259.200 848.250,260.572 848.983,265.985 848.950 C 272.697 848.909,283.840 846.032,285.200 843.988 C 285.310 843.823,286.210 843.276,287.200 842.773 C 288.190 842.271,290.121 840.991,291.491 839.930 C 292.862 838.868,294.167 838.000,294.391 838.000 C 294.616 838.000,294.800 837.849,294.800 837.664 C 294.800 837.276,299.439 833.600,299.929 833.600 C 300.109 833.600,301.086 832.806,302.099 831.835 C 303.112 830.864,304.990 829.357,306.271 828.487 C 307.552 827.616,309.344 826.205,310.254 825.352 C 311.163 824.498,312.648 823.293,313.554 822.674 C 315.834 821.115,315.666 820.742,311.900 818.998 C 310.085 818.158,306.980 816.673,305.000 815.699 C 301.506 813.979,293.683 811.201,292.333 811.200 C 291.967 811.200,291.607 811.046,291.533 810.857 C 291.460 810.669,290.737 810.393,289.926 810.244 C 288.467 809.976,288.404 810.022,283.926 814.576 " stroke="none" fill="#443c64" fill-rule="evenodd"></path><path id="path4" d="M168.394 145.142 C 165.379 146.748,163.126 153.469,164.980 155.323 C 166.527 156.870,169.802 155.683,171.754 152.867 C 175.392 147.617,173.202 142.582,168.394 145.142 M157.459 168.598 C 157.130 168.928,156.396 169.373,155.828 169.589 C 151.362 171.287,149.387 182.343,153.480 182.734 C 159.634 183.322,165.494 170.375,159.949 168.442 C 158.318 167.874,158.175 167.883,157.459 168.598 M146.090 192.404 C 145.380 192.835,144.800 193.375,144.800 193.604 C 144.800 193.833,144.384 194.178,143.877 194.371 C 142.070 195.058,139.113 202.140,140.456 202.562 C 140.755 202.656,143.266 202.840,146.036 202.970 L 151.072 203.206 151.571 201.538 C 152.705 197.755,152.478 193.587,151.080 192.487 C 150.003 191.639,147.418 191.596,146.090 192.404 M131.000 221.979 C 128.803 222.971,127.302 224.653,125.991 227.594 C 125.748 228.141,125.245 229.221,124.874 229.994 C 124.126 231.555,123.930 236.636,124.600 237.115 C 124.820 237.272,125.197 237.755,125.437 238.189 C 126.512 240.132,131.336 238.509,133.728 235.400 C 139.313 228.141,137.467 219.059,131.000 221.979 M118.516 249.186 C 116.765 249.931,112.807 254.975,112.802 256.467 C 112.801 256.833,112.578 257.207,112.306 257.298 C 111.986 257.405,111.761 258.589,111.667 260.654 C 111.411 266.289,114.497 268.159,118.817 264.988 C 126.369 259.444,126.112 245.953,118.516 249.186 M107.109 277.349 C 101.063 280.030,98.478 293.228,103.803 294.227 C 107.942 295.003,113.111 288.475,113.296 282.239 C 113.434 277.587,110.968 275.637,107.109 277.349 M58.400 287.816 C 50.203 291.495,48.192 306.587,55.188 311.923 C 58.601 314.526,63.718 313.265,66.813 309.057 C 74.031 299.242,67.829 283.583,58.400 287.816 M97.200 302.285 C 91.202 304.501,87.430 314.793,91.257 318.500 C 93.184 320.367,95.478 319.719,98.524 316.449 C 104.288 310.260,103.331 300.019,97.200 302.285 M48.226 321.266 C 38.611 327.635,39.296 345.613,49.157 345.706 C 56.690 345.777,62.373 336.497,60.423 327.309 C 59.040 320.793,53.262 317.930,48.226 321.266 M85.503 327.751 C 84.175 328.340,81.600 330.771,81.600 331.436 C 81.600 331.699,81.348 332.011,81.039 332.130 C 77.965 333.309,78.334 343.866,81.477 344.655 C 83.616 345.192,89.200 341.798,89.200 339.961 C 89.200 339.760,89.658 338.652,90.217 337.498 C 93.359 331.017,90.672 325.460,85.503 327.751 M43.000 351.928 C 33.118 356.590,32.304 376.178,41.954 377.105 C 45.852 377.480,50.128 374.950,51.804 371.278 C 52.175 370.465,52.834 369.094,53.268 368.232 C 54.671 365.447,54.738 357.595,53.371 356.228 C 53.057 355.914,52.800 355.464,52.800 355.229 C 52.800 354.993,52.620 354.800,52.400 354.800 C 52.180 354.800,52.000 354.539,52.000 354.220 C 52.000 351.953,46.121 350.456,43.000 351.928 " stroke="none" fill="#f4bc84" fill-rule="evenodd"></path><path id="path5" d="" stroke="none" fill="#60805c" fill-rule="evenodd"></path><path id="path6" d="" stroke="none" fill="#d45470" fill-rule="evenodd"></path><path id="path7" d="" stroke="none" fill="#e05444" fill-rule="evenodd"></path><path id="path8" d="M253.853 127.700 L 253.133 129.000 253.958 128.000 C 254.689 127.113,255.014 126.400,254.686 126.400 C 254.624 126.400,254.249 126.985,253.853 127.700 M178.093 569.200 C 178.093 569.970,178.175 570.285,178.276 569.900 C 178.376 569.515,178.376 568.885,178.276 568.500 C 178.175 568.115,178.093 568.430,178.093 569.200 M172.150 619.800 C 172.151 622.220,172.216 623.158,172.296 621.885 C 172.376 620.612,172.375 618.632,172.294 617.485 C 172.214 616.338,172.149 617.380,172.150 619.800 M171.928 634.318 C 171.999 636.233,172.179 637.927,172.328 638.082 C 172.478 638.237,172.542 636.797,172.472 634.882 C 172.401 632.967,172.221 631.273,172.072 631.118 C 171.922 630.963,171.858 632.403,171.928 634.318 M203.164 693.933 C 203.380 694.336,203.871 694.921,204.255 695.233 C 204.687 695.584,204.590 695.304,204.001 694.500 C 202.951 693.065,202.557 692.798,203.164 693.933 " stroke="none" fill="#bc7044" fill-rule="evenodd"></path></g></svg>