<svg width="100%" height="100%" viewBox="0 0 321 494" fill="none" xmlns="http://www.w3.org/2000/svg">
<path fill-rule="evenodd" clip-rule="evenodd" d="M166.441 201.671C166.441 202.09 167.97 204.211 169.037 205.272C171.051 207.273 172.808 207.876 177.073 208.029C181.866 208.2 182.716 208.823 182.073 211.693C180.445 218.957 170.437 223.838 156.228 224.297C141.096 224.785 139.971 225.565 129.871 242.579C124.316 251.935 123.358 253.411 120.56 256.923C112.246 267.36 100.682 274.413 89.4819 275.878L87.087 276.192L86.6479 277.412C86.2613 278.486 85.2527 279.679 84.5132 279.935C84.3622 279.987 84.9556 283.709 85.9954 289.225C91.6798 319.399 92.0163 323.479 90.1467 339.654C89.8028 342.636 89.2972 347.01 89.0231 349.374C87.5786 361.871 87.2117 372.862 87.879 383.652C89.6312 412.004 96.5705 463.201 98.9875 465.618C100.891 467.522 110.524 467.019 111.521 464.965C112.675 462.588 115.858 417.18 118.531 364.994C122.336 290.678 132.701 254.231 152.138 246.822C165.573 241.7 195.399 239.709 215.482 242.59C222.687 243.624 227.543 245.264 228.457 246.971C229.704 249.302 225.217 260.917 206.751 303.159C196.308 327.049 193.419 334.048 193.419 335.473C193.419 337.258 204.48 339.713 205.874 338.238C210.012 333.86 251.707 266.225 256.946 255.394C263.75 241.326 262.682 233.442 252.551 222.942C244.006 214.086 231.17 210.27 193.924 205.514C177.443 203.41 168.652 202.132 166.881 201.583C166.639 201.507 166.441 201.547 166.441 201.671Z" fill="#504F68"/>
<path fill-rule="evenodd" clip-rule="evenodd" d="M103.977 0.267686C92.608 1.87713 84.7545 10.2387 84.3097 21.2061C84.0421 27.7891 84.8522 30.1651 91.9744 43.6849C92.3561 44.4096 92.9897 44.6041 97.122 45.2656L99.0581 45.5759L98.5796 44.1593L98.1011 42.7427L97.0941 42.8387C93.2523 43.2056 91.0716 38.8394 91.8062 32.2514C93.0053 21.49 99.0368 21.0493 103.437 31.4003C104.029 32.7922 104.541 33.9716 104.577 34.0225C104.611 34.0734 106.886 32.4746 109.632 30.4704C112.378 28.4662 114.773 26.7402 114.956 26.6352C115.137 26.5293 114.881 27.2482 114.385 28.2331C113.889 29.2172 113.526 30.0223 113.577 30.0223C113.628 30.0223 114.225 29.4675 114.904 28.7896C117.721 25.9761 119.731 26.6836 123.061 31.6637C127.381 38.1245 129.593 38.6448 132.583 33.9027C132.968 33.2921 133.458 32.7364 133.671 32.6683C133.884 32.5994 134.607 31.9871 135.277 31.3075L136.495 30.0707L137.653 30.9555C142.921 34.9762 153.488 37.6148 156.297 35.6114C159.134 33.5883 158.927 27.4034 155.916 24.1845C154.583 22.7597 154.048 22.5668 150.468 22.2213C145.618 21.7535 145.427 21.3538 147.794 16.5886C150.337 11.4649 149.989 8.94933 146.353 6.17609C143.993 4.37542 142.346 4.83174 138.579 8.32886C137.192 9.61658 135.393 11.1054 134.582 11.638L133.108 12.6065L132.151 11.4173C125.773 3.48247 114.045 -1.15792 103.977 0.267686ZM307.514 96.9853C301.042 102.273 294.315 105.01 288.105 104.883L285.841 104.836L284.134 111.189L282.426 117.541L284.716 122.508C285.976 125.24 287.14 127.606 287.302 127.764C287.734 128.189 298.921 132.2 299.002 131.959C300.524 127.393 310.009 121.46 319.68 119.027C320.96 118.705 320.986 118.539 320.253 115.456C318.586 108.444 314.944 101.201 310.865 96.7826L309.532 95.3381L307.514 96.9853ZM306.219 104.927C307.112 105.629 307.133 106.952 306.265 107.82C304.656 109.429 302.149 107.5 303.202 105.463C303.818 104.273 305.099 104.045 306.219 104.927ZM300.31 108.095C301.91 110.128 299.385 112.577 297.565 110.757C296.187 109.378 296.919 107.43 298.815 107.43C299.565 107.43 299.907 107.582 300.31 108.095ZM294.283 111.151C295.335 112.489 294.475 114.238 292.764 114.238C291.019 114.238 290.078 112.161 291.314 111.036C292.366 110.079 293.473 110.122 294.283 111.151ZM311.217 115.163C311.88 115.763 311.827 117.354 311.123 118.011C310.064 118.997 307.95 118.39 307.863 117.074C307.72 114.88 309.674 113.766 311.217 115.163ZM304.959 118.039C305.852 118.74 305.872 120.063 305.005 120.932C303.996 121.94 302.583 121.734 301.938 120.484C300.912 118.502 303.197 116.652 304.959 118.039ZM298.953 121.161C300.52 122.727 298.848 125.173 296.792 124.321C294.84 123.512 295.439 120.542 297.555 120.542C298.046 120.542 298.563 120.77 298.953 121.161ZM137.894 152.955C128.602 154.402 122.908 158.722 117.144 168.701C111.319 178.783 107.418 181.666 99.6219 181.651C95.332 181.644 92.6827 181.079 83.6112 178.237C71.5326 174.454 65.1145 174.166 56.8498 177.032C53.8189 178.084 46.8238 181.843 47.2366 182.2C47.5108 182.436 61.3983 190.057 63.1874 190.954C71.0795 194.905 81.5545 198.128 90.855 199.467C95.7563 200.173 97.5225 199.809 104.917 196.575C110.857 193.976 114.964 192.873 118.922 192.815C121.741 192.772 121.941 192.888 124.419 196.001C127.06 199.318 126.554 199.157 130.036 197.799C131.684 197.157 133.071 196.595 133.121 196.55C133.17 196.505 131.667 193.681 129.78 190.275C127.893 186.87 126.35 183.978 126.35 183.851C126.35 183.517 141.539 175.716 141.74 175.947C141.833 176.052 142.747 177.926 143.773 180.11C144.799 182.295 145.711 184.054 145.802 184.018C149.621 182.545 168.179 173.04 168.058 172.619C167.803 171.728 164.68 165.354 163.853 164.036C158.563 155.609 148.484 151.306 137.894 152.955ZM145.737 216.362C126.502 235.787 125.699 236.528 123.869 236.528C121.003 236.528 120.606 235.99 115.122 224.676C112.534 219.338 110.286 214.837 110.126 214.676C109.655 214.201 93.2621 211.331 92.9076 211.66C92.8895 211.678 94.7895 215.719 97.1302 220.642C101.548 229.935 101.651 230.239 100.698 231.296C99.1517 233.012 98.4532 232.051 93.3155 221.146C90.8 215.808 88.6538 211.349 88.5471 211.239C88.4404 211.128 78.0951 209.573 65.5585 207.783C53.0211 205.993 40.5715 204.184 37.8927 203.761C35.2138 203.338 32.9264 202.993 32.8115 202.993C32.6958 202.993 32.3536 203.807 32.0516 204.803C20.2167 243.766 59.6821 286.208 96.5787 274.199C110.136 269.786 118.349 261.986 129.871 242.579C139.971 225.565 141.096 224.786 156.228 224.297C170.437 223.838 180.445 218.958 182.073 211.693C182.716 208.823 181.866 208.2 177.073 208.029C170.531 207.794 166.865 204.903 165.413 198.832C165.246 198.139 165.029 197.48 164.929 197.368C164.829 197.255 156.192 205.803 145.737 216.362ZM89.9612 238.057C93.0955 239.244 92.938 243.748 89.7322 244.611C87.5326 245.204 85.5055 243.649 85.503 241.369C85.5014 238.825 87.6919 237.197 89.9612 238.057ZM77.4418 249.517C78.9372 250.29 79.5314 253.008 78.5096 254.403C75.866 258.013 70.3598 254.234 72.8113 250.493C73.6632 249.191 75.9005 248.72 77.4418 249.517ZM101.388 252.665C103.732 252.665 104.625 256.887 102.636 258.562C99.7057 261.027 95.7005 257.617 97.4815 254.172C97.9846 253.2 99.7303 252.294 100.589 252.561C100.773 252.618 101.133 252.665 101.388 252.665Z" fill="#443C64"/>
<path fill-rule="evenodd" clip-rule="evenodd" d="M127.769 59.208C125.973 64.1348 123.951 67.3389 122.637 67.3389C122.113 67.3389 122.031 67.4341 122.143 67.9069C122.218 68.2188 122.691 70.5726 123.195 73.1382C129.983 107.736 139.539 134.474 152.125 154.084C152.261 154.296 152.899 154.688 153.543 154.955C154.187 155.221 155.763 156.14 157.044 156.997C159.873 158.888 159.996 159.782 155.912 148.781C142.628 113.006 133.816 83.65 128.87 58.7032C128.517 56.9231 128.618 56.8771 127.769 59.208ZM303.916 104.573C303.74 104.644 303.418 105.045 303.202 105.462C302.149 107.5 304.656 109.429 306.265 107.82C307.882 106.203 306.074 103.704 303.916 104.573ZM297.321 108.095C295.728 110.119 298.747 112.66 300.391 110.679C301.453 109.4 300.497 107.43 298.815 107.43C298.065 107.43 297.724 107.582 297.321 108.095ZM292.25 110.407C290.843 110.838 290.355 112.412 291.27 113.574C292.346 114.941 294.781 114.091 294.781 112.347C294.781 111.177 293.34 110.072 292.25 110.407ZM308.578 115.034C307.146 116.321 307.877 118.524 309.736 118.524C310.913 118.524 311.675 117.744 311.675 116.537C311.675 114.821 309.818 113.921 308.578 115.034ZM302.396 118.027C301.636 118.735 301.476 119.592 301.937 120.483C302.909 122.363 305.623 121.592 305.623 119.437C305.623 117.81 303.584 116.92 302.396 118.027ZM296.156 121.161C294.734 122.583 296.166 124.934 298.152 124.435C300.308 123.894 299.794 120.542 297.555 120.542C297.063 120.542 296.547 120.77 296.156 121.161ZM271.521 122.703C270.669 123.165 270.605 122.793 272.059 125.873C272.736 127.309 273.867 129.708 274.573 131.205L275.856 133.926L276.62 133.53C277.039 133.314 277.383 133.01 277.383 132.857C277.383 132.468 272.54 122.304 272.36 122.317C272.28 122.322 271.902 122.496 271.521 122.703ZM261.813 127.405C261.07 127.763 261.074 127.781 262.284 129.245C262.855 129.936 263.729 131.207 264.225 132.07C264.721 132.932 265.158 133.608 265.194 133.571C265.302 133.463 263.64 128.818 263.172 127.917C262.708 127.023 262.65 127.002 261.813 127.405ZM251.98 132.196C251.668 132.346 251.413 132.551 251.413 132.651C251.413 133.56 252.781 135.585 254.417 137.094C255.445 138.044 256.239 138.694 256.182 138.542C255.561 136.89 253.03 131.892 252.82 131.905C252.67 131.914 252.292 132.045 251.98 132.196ZM247.196 133.282C247.047 133.694 246.841 134.241 246.737 134.498C246.557 134.944 246.584 134.946 247.346 134.552C247.973 134.228 248.095 134.048 247.921 133.707C247.798 133.47 247.646 133.108 247.582 132.903C247.508 132.663 247.372 132.796 247.196 133.282ZM242.611 137.164C242.415 137.287 242.102 137.33 241.917 137.259C241.731 137.188 241.579 137.206 241.579 137.299C241.579 137.685 246.712 148.277 246.9 148.277C248.76 148.277 248.723 148.049 245.877 141.999C243.537 137.022 243.326 136.71 242.611 137.164ZM232.438 141.742C232.196 141.883 231.998 142.134 231.998 142.299C231.998 142.535 236.908 153.115 237.222 153.555C237.264 153.614 237.691 153.476 238.17 153.247L239.042 152.831L236.888 148.348C235.705 145.882 234.503 143.326 234.218 142.667C233.691 141.447 233.296 141.242 232.438 141.742ZM222.857 146.404C221.944 146.899 221.803 146.445 224.802 152.689C226.253 155.71 227.48 158.302 227.53 158.448C227.645 158.797 229.223 158.162 229.227 157.765C229.23 157.405 223.847 146.014 223.676 146.022C223.607 146.025 223.239 146.198 222.857 146.404ZM213.15 151.183C212.134 151.614 211.875 150.774 215.101 157.501C216.625 160.679 217.906 163.379 217.949 163.503C218.034 163.749 219.642 162.995 219.642 162.708C219.642 162.495 214.337 151.256 214.119 151.006C214.036 150.912 213.6 150.991 213.15 151.183ZM203.442 155.917C203.061 156.068 202.749 156.322 202.749 156.483C202.749 156.815 207.992 167.95 208.312 168.296C208.663 168.676 210.111 167.939 209.939 167.468C209.556 166.422 204.373 155.611 204.262 155.626C204.192 155.636 203.824 155.766 203.442 155.917ZM193.609 160.708C192.711 161.063 192.516 160.46 195.709 167.208C198.939 174.032 198.683 173.651 199.685 173.133L200.461 172.732L199.375 170.401C196.74 164.744 194.591 160.382 194.453 160.407C194.37 160.422 193.99 160.557 193.609 160.708ZM58.836 163.279C57.7641 168.141 55.988 177.092 56.0783 177.182C56.1382 177.242 56.7981 177.07 57.5441 176.798C58.2902 176.528 59.2455 176.236 59.6674 176.151C60.3822 176.006 60.4709 175.859 61.0051 173.924L61.5772 171.853L60.3453 166.936L59.1142 162.019L58.836 163.279ZM181.002 166.828C180.62 167.035 180.308 167.275 180.308 167.362C180.308 167.495 186.078 179.763 186.253 180.002C186.353 180.14 187.872 179.29 187.875 179.096C187.879 178.798 181.964 166.431 181.823 166.442C181.753 166.447 181.383 166.621 181.002 166.828ZM169.151 172.636C168.77 172.838 168.457 173.099 168.457 173.216C168.457 173.396 173.599 184.363 174.292 185.659C174.55 186.142 176.022 185.644 176.022 185.073C176.022 184.769 170.293 172.702 170.027 172.445C169.926 172.348 169.532 172.434 169.151 172.636ZM133.918 179.681C129.83 181.809 126.448 183.659 126.404 183.793C126.36 183.926 127.873 186.833 129.766 190.251C131.661 193.67 133.17 196.505 133.121 196.55C133.071 196.595 131.783 197.114 130.258 197.701C126.463 199.164 126.45 199.384 130.078 200.714C134.385 202.293 133.872 205.555 129.081 207.061C127.453 207.572 127.066 207.822 125.845 209.146C121.259 214.12 117.534 215.688 112.258 214.866C111.234 214.706 110.367 214.608 110.332 214.646C110.154 214.843 119.924 234.486 120.504 235.098C121.868 236.537 124.075 236.932 125.792 236.043C126.328 235.766 134.865 227.341 145.765 216.334L164.802 197.107V194.125C164.802 192.485 164.767 191.142 164.726 191.142C164.684 191.142 164.303 191.321 163.877 191.541C162.894 192.05 163.218 192.547 159.763 185.217C158.129 181.749 156.762 178.876 156.723 178.831C156.614 178.703 155.094 179.535 155.094 179.723C155.094 179.815 156.456 182.76 158.119 186.266C159.784 189.772 161.143 192.729 161.14 192.837C161.135 193.03 152.047 197.762 151.925 197.636C151.649 197.352 145.51 184.418 145.502 184.107C145.489 183.578 141.825 175.911 141.558 175.855C141.445 175.831 138.006 177.553 133.918 179.681ZM87.9077 237.972C84.8349 238.753 84.6084 243.323 87.5868 244.461C89.0256 245.011 90.475 244.674 91.3991 243.575C93.5962 240.964 91.2095 237.133 87.9077 237.972ZM73.8766 249.512C71.0672 251.039 72.0669 255.451 75.312 255.848C78.0262 256.181 79.9097 253.242 78.6032 250.715C77.8489 249.257 75.4631 248.65 73.8766 249.512ZM99.6072 252.651C95.4814 253.902 96.7699 260.158 100.991 259.367C104.386 258.73 104.746 252.665 101.388 252.665C101.133 252.665 100.773 252.618 100.589 252.56C100.404 252.503 99.9625 252.544 99.6072 252.651ZM75.5377 277.01C76.7147 279.671 77.1226 279.88 81.3107 279.961C84.9416 280.032 85.4652 279.818 86.4378 277.863C87.2692 276.192 87.3135 276.222 84.221 276.328C81.7851 276.411 78.453 276.162 75.7216 275.693L74.8918 275.55L75.5377 277.01ZM188.542 346.147C188.16 346.767 188.095 348.775 188.44 349.299C188.973 350.109 191.315 351.188 197.018 353.25C202.961 355.399 204.883 356.253 207.984 358.123C213.72 361.582 217.998 362.358 223.132 360.87C226.335 359.942 226.702 359.647 226.702 358.013C226.702 354.691 224.111 352.665 218.515 351.615C217.278 351.383 216.102 352.847 214.185 357.004C214.166 357.046 213.315 356.523 212.295 355.84C206.705 352.099 200.102 349.117 192.703 346.995C188.82 345.881 188.718 345.861 188.542 346.147ZM206.967 382.203C206.438 389.445 203.188 449.103 203.316 449.23C203.447 449.362 281.212 461.185 281.329 461.091C281.405 461.031 284.092 386.676 284.022 386.579C283.946 386.473 209.216 380.265 207.892 380.255L207.11 380.249L206.967 382.203ZM98.7512 479.503C99.2715 484.205 98.7413 483.802 110.843 488.67C114.726 490.232 118.654 491.887 119.573 492.347C126.531 495.833 133.305 492.189 130.436 486.505C129.587 484.822 126.458 481.358 125.788 481.358C124.506 481.358 119.008 484.038 117.204 485.543L116.505 486.125L114.557 485.284C113.485 484.822 109.601 483.115 105.926 481.494C102.251 479.871 99.1024 478.485 98.9301 478.412C98.6945 478.313 98.6502 478.585 98.7512 479.503Z" fill="#E8BEAC"/>
<path fill-rule="evenodd" clip-rule="evenodd" d="M95.346 24.2692C89.4244 28.2809 90.8517 43.4348 97.0941 42.839L98.1011 42.7429L98.5796 44.1595L99.0581 45.5761L96.9267 45.2347C95.7547 45.0467 94.3242 44.7874 93.7488 44.6577C92.4578 44.368 92.4373 44.3885 92.8321 45.5753C93.7579 48.3575 92.4685 55.424 89.7511 62.4593C88.5971 65.4475 87.8847 66.2879 83.9814 69.2647C81.2574 71.342 81.2779 71.017 83.644 74.6208C91.2038 86.1331 99.4488 95.6708 102.63 96.5826C105.886 97.5166 110.268 91.1707 114.837 78.9058C117.344 72.1767 118.65 67.6602 118.237 67.1555C117.941 66.7943 117.975 66.7681 118.533 66.9232C118.879 67.0192 120.071 67.1645 121.181 67.2457L123.197 67.3935L123.994 66.5473C127.536 62.7859 132.489 45.9282 133.281 34.9395L133.444 32.6702L132.577 33.9341C129.36 38.6286 127.406 38.1625 123.061 31.664C119.731 26.6838 117.721 25.9763 114.904 28.7898C114.225 29.4677 113.628 30.0225 113.577 30.0225C113.526 30.0225 113.889 29.2174 114.385 28.2333C114.881 27.2485 115.137 26.5295 114.956 26.6354C114.773 26.7404 112.378 28.4664 109.632 30.4706C106.886 32.4748 104.611 34.0736 104.577 34.0227C104.541 33.9718 104.029 32.7925 103.437 31.4005C100.911 25.4585 97.7294 22.654 95.346 24.2692ZM158.246 112.262C155.115 114.161 149.254 117.021 146.881 117.807L145.098 118.398L147.046 124.072C149.775 132.022 152.271 138.976 155.922 148.799C157.652 153.455 159.147 157.623 159.244 158.062C159.34 158.502 159.688 159.073 160.018 159.333C161.313 160.351 164.773 165.084 165.234 166.469C165.366 166.865 174.818 166.754 178.761 166.31C180.753 166.085 182.446 165.964 182.522 166.041C182.599 166.117 182.529 166.18 182.368 166.18C182.206 166.18 182.073 166.298 182.073 166.443C182.073 166.697 187.756 178.754 187.982 178.981C188.072 179.071 198.383 173.907 198.655 173.636C198.696 173.595 197.421 170.804 195.823 167.434C192.623 160.69 192.737 160.995 193.356 160.817C193.599 160.747 193.978 160.615 194.199 160.524C194.523 160.389 195.159 161.532 197.446 166.357C199.01 169.658 200.361 172.436 200.448 172.532C200.534 172.627 202.392 171.769 204.574 170.624C206.962 169.372 208.454 168.449 208.323 168.307C208 167.96 202.749 156.826 202.749 156.49C202.749 156.254 204.292 155.469 204.383 155.657C204.399 155.69 205.645 158.326 207.153 161.515C208.66 164.704 209.973 167.406 210.069 167.519C210.28 167.767 217.865 163.89 217.869 163.532C217.871 163.394 216.621 160.671 215.092 157.484C212.574 152.23 212.353 151.658 212.739 151.376C213.35 150.929 213.004 150.865 209.053 150.696C196.039 150.137 173.906 145.564 169.611 142.546C168.452 141.732 168.786 142.901 163.885 122.496C162.327 116.012 160.988 110.714 160.91 110.72C160.832 110.728 159.633 111.421 158.246 112.262ZM277.554 119.79C275.082 121.02 272.927 122.069 272.766 122.124C272.579 122.185 273.109 123.559 274.207 125.857C275.161 127.857 276.298 130.293 276.733 131.271L277.524 133.05L282.492 130.498C285.507 128.95 287.372 127.854 287.235 127.711C287.111 127.581 285.991 125.267 284.745 122.568C283.499 119.869 282.383 117.637 282.264 117.608C282.145 117.579 280.026 118.561 277.554 119.79ZM267.025 124.944C265.003 125.951 263.201 126.824 263.02 126.885C262.764 126.97 262.792 127.186 263.145 127.865C263.621 128.781 265.306 133.459 265.199 133.566C265.165 133.601 264.637 132.782 264.027 131.747C261.836 128.03 258.759 125.703 259.023 127.961C259.154 129.086 257.227 130.189 256.061 129.658C255.239 129.283 254.86 129.507 255.048 130.256C255.174 130.76 255.044 130.895 254.082 131.263L252.971 131.688L254.587 135.098C255.476 136.973 256.203 138.56 256.203 138.625C256.203 139.177 252.446 135.144 251.973 134.083C251.261 132.493 251.351 132.569 250.587 132.917C250.042 133.165 249.79 133.111 248.853 132.55C248.25 132.189 247.857 131.892 247.979 131.891C249.75 131.871 254.438 130.801 254.438 130.415C254.438 129.87 248.898 128.106 247.187 128.106H246.335L244.209 132.489C241.851 137.351 241.783 137.561 242.715 137.137C243.508 136.776 243.151 136.222 245.966 142.193C248.728 148.053 248.763 148.278 246.9 148.278C246.79 148.278 245.588 145.923 244.231 143.046C242.874 140.168 241.682 137.722 241.582 137.611C241.483 137.5 239.557 138.323 237.304 139.439C235.049 140.556 233.317 141.47 233.453 141.47C233.589 141.47 233.933 142.009 234.218 142.667C234.503 143.326 235.704 145.882 236.888 148.347L239.04 152.829L241.381 151.651C243.461 150.604 243.99 150.447 246.117 150.254C252.095 149.712 256.94 148.567 257.98 147.45C258.911 146.451 259.589 144.695 259.533 143.426C259.484 142.289 259.776 141.82 260.064 142.573C260.678 144.172 263.397 143.22 263.374 141.416C263.359 140.274 263.789 139.631 264.162 140.235C264.759 141.201 267.297 140.782 267.297 139.717C267.297 138.874 267.638 139.141 268.265 140.476C269.175 142.417 270.836 142.967 271.978 141.704C272.534 141.091 272.367 139.728 271.504 137.844L270.867 136.453L273.355 135.176L275.843 133.898L274.626 131.317C273.957 129.897 272.8 127.471 272.056 125.925L270.701 123.114L267.025 124.944ZM247.921 133.707C248.095 134.048 247.973 134.228 247.346 134.553C246.584 134.947 246.557 134.944 246.737 134.498C246.841 134.242 247.047 133.694 247.196 133.282C247.372 132.796 247.508 132.663 247.582 132.904C247.646 133.108 247.798 133.47 247.921 133.707ZM143.867 140.461C144.347 142.826 145.373 146.711 146.306 149.695L147.341 153.004L149.39 153.566C150.516 153.876 151.654 154.192 151.919 154.269C152.323 154.386 152.279 154.233 151.64 153.297C150.134 151.094 148.063 147.574 146.016 143.739C143.644 139.294 143.624 139.264 143.867 140.461ZM227.9 144.02C225.716 145.115 223.932 146.096 223.934 146.199C223.937 146.302 225.163 148.951 226.659 152.086L229.38 157.784L233.51 155.716C235.783 154.578 237.535 153.602 237.404 153.547C237.203 153.462 232.209 143.165 231.957 142.316C231.906 142.144 230.274 142.829 227.9 144.02ZM218.061 148.816L214.111 150.794L214.58 151.868C214.838 152.459 216 154.928 217.163 157.355C218.327 159.782 219.388 162.002 219.523 162.288C219.758 162.787 219.935 162.723 223.726 160.767L227.683 158.723L224.847 152.781L222.01 146.838L218.061 148.816ZM14.4002 155.549C4.7263 178.466 -1.13532 195.578 0.354293 196.554C3.39016 198.543 29.1462 202.774 88.0234 210.955C96.87 212.184 105.371 213.505 107.817 214.03C117.022 216.006 120.351 215.105 125.845 209.147C127.066 207.822 127.453 207.573 129.081 207.061C133.88 205.553 134.385 202.392 130.093 200.727C127.789 199.832 126.847 199.051 124.458 196.05C121.937 192.884 121.747 192.773 118.922 192.815C114.964 192.873 110.857 193.977 104.917 196.575C96.4515 200.278 95.2696 200.411 86.2589 198.677C73.513 196.224 62.6901 191.498 43.7723 180.125C38.7093 177.081 38.6888 177.062 39.0909 175.719C39.4906 174.385 41.952 169.466 44.4954 164.919L46.3995 161.515L45.3383 161.321C34.4079 159.316 27.27 157.096 18.1419 152.865L15.9604 151.854L14.4002 155.549ZM175.097 169.744L170.011 172.221L173.016 178.515C174.669 181.977 176.022 184.93 176.022 185.076C176.022 185.408 186.093 180.265 186.101 179.929C186.106 179.75 180.365 167.442 180.207 167.291C180.193 167.277 177.894 168.381 175.097 169.744ZM162.59 175.854C159.437 177.377 156.859 178.726 156.859 178.853C156.859 179.121 162.645 191.419 162.916 191.728C163.103 191.941 165.333 190.884 171.147 187.827L174.467 186.08L172.943 182.875C172.104 181.112 170.721 178.188 169.87 176.378L168.32 173.087L162.59 175.854ZM150.307 181.838C147.754 183.081 145.613 184.149 145.549 184.214C145.386 184.376 151.883 197.72 152.084 197.638C153.198 197.181 161.139 192.986 161.141 192.852C161.144 192.695 159.555 189.279 155.868 181.515L154.949 179.579L150.307 181.838Z" fill="#E8BEAC"/>
<path fill-rule="evenodd" clip-rule="evenodd" d="M80.9635 280.853C80.9635 283.862 79.6693 321.25 78.9413 339.276C76.9018 389.764 74.3936 426.163 72.0111 439.844C71.5974 442.22 72.1391 441.785 68.2308 442.889C54.3064 446.824 37.9682 457.002 32.8468 464.932C28.3295 471.928 31.1332 476.513 40.8079 477.949C56.6503 480.301 66.669 469.738 72.6225 444.406L72.9221 443.131L76.5012 442.448C81.4666 441.499 85.4603 440.886 90.0539 440.367L93.9753 439.924L93.8703 439.209C93.8128 438.816 93.6873 438.494 93.5904 438.494C92.1903 438.494 80.1477 440.233 76.0868 441.021C74.6784 441.295 73.4621 441.519 73.385 441.519C73.307 441.52 73.4473 440.187 73.6952 438.558C76.6695 419.037 79.8326 364.59 81.8351 298.428C82.0412 291.634 82.2685 284.74 82.3407 283.111L82.472 280.148H81.7178C81.0604 280.148 80.9635 280.239 80.9635 280.853ZM226.702 358.273C226.702 361.17 218.847 362.588 213.41 360.673L211.59 360.032L201.948 363.774C196.646 365.832 192.529 367.538 192.8 367.565C193.071 367.592 216.59 369.008 245.064 370.713C273.537 372.417 296.943 373.879 297.076 373.961C297.228 374.055 296.612 392.622 295.409 424.142C294.361 451.659 293.535 474.772 293.574 475.505L293.647 476.837L302.472 469.629L311.296 462.42L311.492 459.219C311.737 455.218 314.509 360.811 314.385 360.687C314.308 360.61 229.293 357.304 227.384 357.304C226.761 357.304 226.702 357.388 226.702 358.273ZM117.993 436.901L114.302 436.994L114.187 437.78L114.072 438.565L118.257 438.407C133.225 437.841 153.997 438.005 177.913 438.879C183.46 439.08 188.254 439.247 188.566 439.249C189.022 439.25 189.133 439.11 189.133 438.531V437.81L183.523 437.629C180.437 437.529 175.303 437.34 172.113 437.208C166.216 436.965 124.73 436.728 117.993 436.901ZM70.4582 446.863C64.9586 467.539 57.1108 476.82 45.1282 476.82C37.0399 476.82 31.5936 473.931 32.2042 469.964C33.0906 464.211 42.9122 455.757 56.7579 448.828C60.4561 446.977 69.4652 443.679 71.1739 443.55C71.2675 443.543 70.9449 445.034 70.4582 446.863Z" fill="#342454"/>
<path fill-rule="evenodd" clip-rule="evenodd" d="M129.27 60.7205C129.325 60.9634 129.888 63.488 130.521 66.331C133.089 77.8507 137.434 94.1068 140.995 105.512C144.04 115.269 145.083 118.272 145.422 118.272C147.33 118.272 160.893 111.284 160.893 110.301C160.893 108.609 151.434 72.7959 150.276 70.1047C148.678 66.3909 142.378 63.0801 132.779 60.9109C129.436 60.155 129.139 60.1386 129.27 60.7205ZM118.237 67.1566C119.153 68.2687 112.951 84.8646 109.279 91.1284C105.238 98.0192 103 98.254 97.3411 92.3784C92.7065 87.5665 81.7203 72.8238 81.7203 71.417C81.7203 70.7687 73.2274 75.6323 66.7822 79.9706C64.8051 81.3019 61.1455 83.7271 58.6488 85.3612C50.1633 90.915 44.9747 94.7634 43.5245 96.5805C38.2423 103.197 29.6649 120.1 18.5317 145.836L15.9341 151.841L18.1288 152.859C25.8288 156.427 33.3417 158.943 40.8727 160.473C44.8541 161.282 46.672 161.518 46.672 161.226C46.672 160.703 55.2272 146.681 55.3372 147.023C55.4029 147.228 57.0205 153.692 58.932 161.388C60.8435 169.085 62.4258 175.415 62.448 175.453C62.4701 175.492 63.6397 175.416 65.0456 175.283C70.473 174.773 74.694 175.445 83.6112 178.237C103.556 184.484 108.904 182.963 117.144 168.701C119.953 163.838 120.891 162.515 123.056 160.365C128.469 154.989 136.165 152.171 144.039 152.681L146.737 152.856L146.362 151.26C146.155 150.382 145.425 147.224 144.739 144.243C143.637 139.454 143.298 138.4 141.834 135.198C134.756 119.727 127.774 96.4812 123.195 73.1381C122.691 70.5725 122.222 68.2334 122.152 67.9388C122.047 67.4997 121.771 67.3741 120.605 67.2371C119.823 67.1452 118.896 66.9982 118.544 66.9104C117.977 66.7701 117.941 66.7988 118.237 67.1566ZM88.7325 211.481C88.8671 211.736 90.983 216.198 93.4337 221.399C95.8844 226.599 98.1217 231.052 98.4056 231.295C99.4717 232.206 100.91 231.664 101.241 230.223C101.533 228.958 93.0766 211.74 92.0606 211.532C89.5393 211.016 88.4781 211 88.7325 211.481ZM191.84 338.582C190.468 341.232 188.517 345.693 188.676 345.82C188.719 345.856 190.451 346.366 192.525 346.954C200.016 349.078 206.639 352.054 212.294 355.84C213.315 356.523 214.166 357.046 214.185 357.003C215.687 353.748 217.226 351.505 217.961 351.505C218.112 351.505 217.827 351.296 217.328 351.042C215.39 350.054 211.268 345.883 207.122 340.718L205.648 338.882L203.505 338.781C201.054 338.665 197.342 337.725 194.967 336.619C194.085 336.208 193.337 335.871 193.304 335.871C193.271 335.871 192.613 337.092 191.84 338.582ZM192.309 368.209C192.11 369.222 188.094 460.231 188.241 460.38C188.387 460.525 293.326 477.118 293.394 477.007C293.526 476.788 297.283 374.094 297.163 373.974C297.012 373.823 196.537 367.675 193.866 367.653C192.563 367.643 192.409 367.698 192.309 368.209ZM246.312 383.37C267.013 385.081 283.982 386.524 284.022 386.579C284.092 386.676 281.405 461.03 281.329 461.091C281.212 461.185 203.447 449.362 203.316 449.23C203.188 449.103 206.438 389.445 206.967 382.203L207.11 380.249L207.892 380.255C208.322 380.259 225.612 381.661 246.312 383.37ZM111.473 465.06C110.643 466.794 102.153 467.467 99.4381 466.014C98.7864 465.665 98.6182 467.238 98.6157 473.69L98.6141 478.252L99.3068 478.574C100.185 478.981 111.961 484.162 114.557 485.284L116.505 486.125L117.204 485.547C118.495 484.48 121.596 482.788 123.738 481.982L125.862 481.183L124.278 479.803C123.407 479.044 121.559 477.529 120.172 476.436C113.64 471.292 112.598 469.915 112.038 465.682L111.852 464.27L111.473 465.06Z" fill="#443C64"/>
</svg>
