<svg id="svg" version="1.1" xmlns="http://www.w3.org/2000/svg" xmlns:xlink="http://www.w3.org/1999/xlink" width="400" height="848.048048048048" viewBox="0, 0, 400,848.048048048048"><g id="svgg"><path id="path0" d="M351.000 3.072 C 345.320 4.647,342.046 12.811,341.697 26.271 L 341.498 33.943 335.876 38.034 C 313.854 54.060,280.085 72.697,235.480 93.442 C 223.358 99.080,223.223 99.136,223.980 98.224 C 227.022 94.559,217.886 93.288,205.000 95.585 C 199.237 96.612,198.762 96.889,192.797 102.705 C 190.374 105.067,188.394 106.856,188.396 106.680 C 188.408 105.643,189.955 103.747,192.402 101.770 C 198.095 97.171,194.456 94.676,188.106 98.825 C 182.582 102.434,180.575 105.923,180.994 111.186 C 181.523 117.821,181.717 117.132,179.000 118.262 C 171.014 121.584,151.017 129.600,150.715 129.600 C 150.517 129.600,149.970 128.655,149.498 127.500 C 146.210 119.449,140.033 109.040,135.888 104.563 L 133.631 102.127 134.024 97.363 C 136.539 66.867,116.330 57.356,91.995 77.583 L 88.268 80.681 82.234 77.945 C 75.287 74.795,75.702 74.875,73.492 76.261 C 53.685 88.685,40.056 114.297,39.502 140.133 L 39.400 144.867 45.893 147.933 L 52.387 151.000 52.144 154.800 C 50.498 180.501,66.880 191.232,87.448 177.926 L 90.200 176.145 90.058 184.173 C 89.979 188.588,89.778 192.290,89.611 192.400 C 88.779 192.946,93.441 215.416,96.021 223.297 C 98.150 229.802,101.243 237.032,101.603 236.347 C 101.761 236.046,103.560 232.065,105.601 227.500 C 107.641 222.935,109.538 219.200,109.815 219.200 C 110.093 219.200,114.040 221.738,118.587 224.839 C 123.134 227.941,126.977 230.356,127.127 230.206 C 127.277 230.056,127.400 223.514,127.400 215.667 C 127.400 200.010,127.241 198.655,124.863 193.970 C 123.969 192.210,123.810 191.536,124.108 190.770 C 124.315 190.237,125.195 187.190,126.063 184.000 C 130.836 166.459,131.020 166.000,133.293 166.000 C 136.367 166.000,142.703 164.254,146.714 162.301 C 155.116 158.209,157.011 151.999,153.606 139.718 L 152.889 137.133 161.344 132.992 C 169.028 129.229,182.814 123.072,183.032 123.305 C 183.081 123.357,183.531 125.380,184.032 127.800 L 184.942 132.200 183.653 140.385 C 182.168 149.818,182.494 148.975,180.538 148.431 C 177.042 147.461,177.054 147.451,175.241 152.872 C 174.344 155.552,173.653 157.768,173.705 157.796 C 174.119 158.024,197.245 162.879,197.336 162.758 C 197.740 162.221,200.035 153.468,199.879 153.061 C 199.774 152.788,198.479 152.324,197.000 152.030 L 194.312 151.496 194.548 150.048 C 194.677 149.252,194.999 146.877,195.262 144.771 L 195.740 140.943 197.840 142.207 C 203.006 145.318,208.514 145.786,215.200 143.684 C 217.880 142.841,219.075 142.623,219.254 142.944 C 219.815 143.954,220.800 149.292,220.800 151.329 C 220.800 156.252,221.990 157.914,229.312 163.217 L 235.087 167.400 237.974 173.852 L 240.862 180.305 239.795 182.409 C 239.068 183.844,238.836 184.734,239.064 185.205 C 239.560 186.223,244.557 192.757,244.859 192.780 C 245.115 192.800,253.851 179.253,254.247 178.221 C 254.454 177.682,248.911 169.540,247.561 168.400 C 247.170 168.070,245.056 164.470,242.862 160.400 L 238.874 153.000 238.399 145.200 C 238.137 140.910,237.846 137.274,237.751 137.121 C 237.582 136.847,240.356 135.935,255.200 131.387 C 272.546 126.072,275.527 120.746,272.169 101.071 C 271.010 94.281,270.838 92.624,271.266 92.359 C 271.832 92.009,284.751 88.802,293.600 86.814 C 310.226 83.080,337.557 78.829,349.200 78.166 C 351.950 78.010,354.822 77.668,355.583 77.406 L 356.967 76.931 359.100 79.430 C 371.227 93.636,382.379 86.742,383.094 64.600 C 384.066 34.449,365.589 -0.975,351.000 3.072 M264.000 94.540 C 264.000 94.617,264.629 98.352,265.399 102.840 C 267.459 114.863,266.599 118.571,261.000 121.808 C 259.183 122.859,248.488 126.222,248.124 125.857 C 247.842 125.575,240.342 101.517,240.495 101.388 C 240.667 101.242,255.930 96.502,259.600 95.454 C 262.995 94.484,264.000 94.276,264.000 94.540 M239.768 115.000 C 241.668 121.160,243.317 126.504,243.431 126.876 C 243.601 127.428,242.932 127.770,239.764 128.751 L 235.889 129.951 233.402 127.726 L 230.915 125.502 228.018 116.123 C 226.425 110.965,225.213 106.653,225.325 106.542 C 226.056 105.811,235.805 102.867,236.043 103.305 C 236.190 103.577,237.867 108.840,239.768 115.000 M224.107 119.028 L 225.091 122.257 222.846 121.506 C 220.657 120.774,217.696 120.717,215.794 121.368 C 215.077 121.614,211.444 111.908,212.072 111.424 C 212.142 111.370,214.090 110.597,216.400 109.708 L 220.600 108.091 221.861 111.945 C 222.555 114.065,223.566 117.253,224.107 119.028 M86.003 116.500 C 86.900 120.011,88.990 124.346,92.601 130.180 C 96.066 135.779,96.805 139.496,95.152 143.013 C 93.043 147.500,89.709 148.333,80.000 146.800 C 71.423 145.446,69.273 145.953,68.610 149.486 C 68.084 152.292,67.463 149.864,67.728 146.037 C 68.309 137.654,72.778 128.813,81.547 118.700 C 85.425 114.228,85.423 114.229,86.003 116.500 M212.174 128.000 C 213.418 132.070,214.508 135.612,214.595 135.871 C 214.816 136.531,210.261 138.000,207.995 138.000 C 205.017 138.000,202.403 136.997,200.300 135.048 C 197.827 132.756,197.722 133.020,202.754 128.856 C 206.528 125.733,208.800 123.405,208.800 122.664 C 208.800 122.206,209.631 120.298,209.767 120.445 C 209.846 120.530,210.929 123.930,212.174 128.000 M340.161 798.379 C 339.479 799.850,335.046 804.515,333.245 805.657 C 328.716 808.530,321.262 805.515,319.978 800.290 C 319.781 799.492,319.746 800.067,319.885 801.800 C 320.875 814.140,327.987 817.813,351.800 818.283 C 372.994 818.701,380.400 817.469,380.400 813.527 C 380.400 811.602,375.669 808.800,372.419 808.800 C 369.346 808.800,356.593 804.528,346.219 800.023 C 339.671 797.180,340.600 797.433,340.161 798.379 M153.800 808.496 C 148.598 813.359,140.771 814.443,134.276 811.200 L 131.951 810.039 129.376 811.892 C 127.959 812.911,126.800 813.892,126.800 814.073 C 126.800 814.253,126.573 814.400,126.296 814.400 C 126.019 814.400,124.624 815.476,123.196 816.790 C 121.768 818.105,120.420 819.190,120.200 819.202 C 119.008 819.264,109.060 829.190,107.244 832.128 C 102.318 840.099,114.002 841.475,131.455 834.979 C 148.085 828.789,157.970 817.965,155.728 808.400 L 155.400 807.000 153.800 808.496 " stroke="none" fill="#f19257" fill-rule="evenodd"></path><path id="path1" d="M84.070 115.726 C 83.591 116.235,83.200 116.820,83.200 117.026 C 83.200 117.232,82.570 117.903,81.800 118.517 C 81.030 119.131,80.400 119.806,80.400 120.017 C 80.400 120.228,79.680 121.120,78.800 122.000 C 77.920 122.880,77.200 123.870,77.200 124.200 C 77.200 124.530,77.020 124.800,76.800 124.800 C 76.580 124.800,76.400 125.070,76.400 125.400 C 76.400 125.730,76.220 126.000,76.000 126.000 C 75.780 126.000,75.600 126.270,75.600 126.600 C 75.600 126.930,75.420 127.200,75.200 127.200 C 74.980 127.200,74.800 127.451,74.800 127.757 C 74.800 128.064,74.554 128.409,74.252 128.525 C 73.951 128.640,72.931 130.324,71.986 132.267 C 71.041 134.210,70.104 136.135,69.903 136.544 C 68.428 139.554,67.079 148.740,67.899 150.204 C 68.243 150.820,68.351 150.674,68.588 149.269 C 69.170 145.828,71.143 145.401,80.000 146.800 C 87.957 148.057,90.258 147.814,93.106 145.417 C 97.040 142.108,96.873 137.083,92.601 130.180 C 88.990 124.346,86.900 120.011,86.003 116.500 C 85.504 114.546,85.267 114.451,84.070 115.726 M109.270 220.276 C 109.059 220.674,107.318 224.510,105.402 228.800 C 103.485 233.090,101.745 236.811,101.535 237.070 C 100.647 238.160,119.252 272.486,120.209 271.523 C 120.277 271.455,121.772 268.129,123.532 264.130 L 126.733 256.860 127.017 244.130 L 127.301 231.400 118.761 225.600 C 108.791 218.829,109.752 219.368,109.270 220.276 M193.436 418.489 C 193.335 418.990,192.871 425.070,192.405 432.000 C 191.417 446.713,185.801 486.281,182.995 498.300 C 182.847 498.935,182.966 499.200,183.401 499.200 C 188.457 499.200,205.143 513.194,214.644 525.403 C 239.438 557.264,294.906 660.732,308.457 700.400 C 313.018 713.752,316.232 727.428,318.186 741.800 C 320.006 755.186,320.159 758.046,320.213 779.600 C 320.271 802.999,320.150 801.946,323.069 804.353 C 327.780 808.236,331.835 807.523,336.994 801.905 C 340.717 797.850,340.416 798.880,343.750 778.785 C 359.249 685.379,363.397 631.173,356.987 605.800 C 349.502 576.174,323.318 526.766,295.187 489.184 C 290.430 482.829,290.444 482.841,282.482 478.864 C 270.192 472.724,251.904 462.485,245.000 457.877 C 233.234 450.024,215.378 436.129,197.910 421.235 C 193.993 417.895,193.605 417.657,193.436 418.489 M56.031 514.900 C 45.170 574.698,43.804 619.755,51.995 648.032 C 60.318 676.760,88.412 733.987,126.522 799.841 L 132.565 810.282 134.843 811.322 C 141.314 814.278,147.272 813.457,153.100 808.807 C 155.681 806.748,155.770 808.020,152.184 795.733 C 131.918 726.308,118.867 668.955,117.382 642.800 C 116.349 624.609,127.743 583.687,145.034 543.491 C 147.134 538.610,147.531 537.364,147.115 536.968 C 146.832 536.698,141.200 535.554,134.600 534.424 C 113.600 530.829,111.147 530.345,103.800 528.346 C 95.446 526.073,78.005 520.292,65.467 515.640 C 60.663 513.858,56.678 512.400,56.610 512.400 C 56.541 512.400,56.281 513.525,56.031 514.900 " stroke="none" fill="#443c64" fill-rule="evenodd"></path><path id="path2" d="M163.880 171.894 L 157.974 186.671 149.428 187.959 C 137.634 189.737,131.998 190.373,127.900 190.388 C 123.852 190.402,123.797 190.475,125.388 193.760 C 127.830 198.803,128.716 212.362,127.652 228.400 C 126.991 238.354,126.645 255.879,127.118 255.400 C 127.651 254.861,136.611 233.496,149.156 202.850 C 154.731 189.233,153.946 190.599,155.757 191.356 C 157.625 192.137,157.785 191.407,153.359 202.325 C 130.907 257.705,114.207 294.792,110.015 298.586 C 107.218 301.117,99.377 293.045,84.385 272.200 C 78.149 263.530,66.400 245.902,66.400 245.216 C 66.400 244.650,68.690 242.901,68.959 243.261 C 69.017 243.337,71.867 247.559,75.292 252.642 C 88.398 272.086,100.217 287.865,105.780 293.345 L 108.160 295.689 108.866 294.818 C 109.799 293.665,114.475 284.377,117.576 277.516 L 120.054 272.032 116.477 266.316 C 107.737 252.351,99.649 235.882,95.793 224.200 C 92.500 214.226,88.208 192.563,89.393 191.900 C 91.337 190.812,90.028 190.100,87.415 190.824 C 82.287 192.246,75.385 192.862,60.800 193.199 C 41.717 193.639,35.073 194.741,28.143 198.617 C 12.603 207.308,7.848 227.677,14.188 258.400 C 14.710 260.930,15.432 264.710,15.793 266.800 C 17.032 273.975,20.089 283.060,24.187 291.745 C 25.211 293.915,27.552 299.225,29.390 303.545 C 39.579 327.498,54.493 356.159,68.116 377.969 C 72.385 384.802,72.841 386.102,72.835 391.400 C 72.824 400.520,69.635 412.389,60.217 438.362 C 54.199 454.957,49.656 468.669,43.639 488.400 C 38.832 504.161,38.574 505.134,39.078 505.638 C 39.559 506.119,55.498 512.400,56.238 512.400 C 56.511 512.400,60.663 513.858,65.467 515.640 C 78.005 520.292,95.446 526.073,103.800 528.346 C 111.123 530.339,113.537 530.816,134.400 534.391 C 140.890 535.503,146.651 536.594,147.202 536.814 C 148.176 537.205,175.284 542.457,175.439 542.286 C 175.684 542.014,182.535 501.220,182.809 498.400 C 182.991 496.530,184.491 486.900,186.143 477.000 C 190.726 449.527,190.764 449.234,191.955 432.898 C 192.568 424.483,193.176 417.491,193.306 417.361 C 193.436 417.231,195.940 419.176,198.871 421.684 C 232.232 450.223,247.920 460.903,283.463 479.270 C 287.678 481.448,291.227 483.493,291.350 483.815 C 291.643 484.578,292.800 484.574,292.800 483.810 C 292.800 478.201,277.740 452.446,265.193 436.600 C 260.729 430.961,248.400 412.853,248.400 411.934 C 248.400 411.816,246.865 409.038,244.990 405.760 C 237.905 393.380,229.122 375.054,226.368 366.905 C 224.814 362.307,224.638 359.465,225.175 347.600 C 225.794 333.906,228.660 292.108,229.008 291.680 C 229.062 291.615,231.782 292.285,235.053 293.169 C 281.428 305.712,350.262 305.644,353.422 293.053 C 354.731 287.839,331.579 259.658,278.627 202.013 C 255.198 176.508,254.802 176.107,254.798 177.871 C 254.797 178.775,246.320 192.169,244.860 193.575 C 244.274 194.139,243.453 195.250,243.036 196.044 L 242.278 197.489 248.275 207.244 C 258.106 223.238,264.800 235.396,264.800 237.260 C 264.800 239.466,228.990 223.120,215.442 214.729 C 205.560 208.609,203.703 206.290,200.764 196.400 C 199.276 191.391,197.958 188.467,196.558 187.067 L 195.528 186.037 197.995 175.519 C 199.351 169.733,200.546 164.695,200.651 164.322 C 200.844 163.628,198.874 162.979,197.000 163.118 C 195.831 163.205,173.840 158.350,173.578 157.947 C 173.456 157.760,172.553 157.496,171.572 157.362 L 169.787 157.117 163.880 171.894 M194.484 197.815 C 193.917 205.538,185.623 238.513,177.184 266.600 C 175.399 272.540,173.693 278.300,173.393 279.400 C 173.093 280.500,171.288 286.170,169.380 292.000 C 152.042 345.003,135.950 378.861,125.740 383.819 C 115.440 388.821,89.525 375.105,62.000 350.084 L 59.800 348.085 60.770 347.042 C 62.195 345.510,62.482 345.637,67.346 349.948 C 88.981 369.123,110.078 381.600,120.863 381.600 C 129.153 381.600,140.718 360.874,156.839 317.128 C 171.253 278.015,188.393 218.488,190.621 199.800 C 191.077 195.972,191.270 195.671,193.068 195.973 C 194.569 196.226,194.598 196.263,194.484 197.815 " stroke="none" fill="#44bc94" fill-rule="evenodd"></path><path id="path3" d="M154.085 191.700 C 153.857 191.975,151.397 197.756,148.617 204.547 C 140.275 224.927,128.457 253.079,127.194 255.579 C 127.022 255.921,125.394 259.658,123.577 263.884 C 121.705 268.237,120.100 271.462,119.875 271.323 C 119.648 271.182,119.602 271.279,119.768 271.548 C 120.205 272.255,112.124 289.652,109.092 294.534 L 108.139 296.068 105.769 293.734 C 100.218 288.266,88.387 272.470,75.292 253.042 C 71.867 247.959,69.017 243.737,68.959 243.661 C 68.696 243.310,66.406 245.038,66.569 245.464 C 67.276 247.307,82.738 269.695,90.006 279.400 C 101.324 294.514,107.738 300.647,110.043 298.561 C 113.837 295.128,129.848 259.460,151.844 205.447 C 158.101 190.081,157.480 192.176,155.940 191.639 C 154.407 191.105,154.581 191.099,154.085 191.700 M191.451 196.714 C 191.345 197.092,191.138 198.390,190.991 199.600 C 188.603 219.310,163.779 303.844,154.402 324.200 C 153.997 325.080,151.946 330.073,149.845 335.295 C 136.889 367.498,128.001 381.600,120.663 381.600 C 109.667 381.600,88.758 369.280,66.946 349.948 C 61.970 345.538,62.109 345.603,60.770 347.042 L 59.800 348.085 62.000 350.084 C 89.054 374.676,115.232 388.729,125.095 383.954 C 137.920 377.745,159.327 327.805,180.199 255.400 C 187.207 231.089,195.304 197.421,194.334 196.625 C 193.636 196.052,191.620 196.115,191.451 196.714 " stroke="none" fill="#1c8c5c" fill-rule="evenodd"></path><path id="path4" d="M193.035 418.500 C 192.696 420.692,190.740 449.274,190.917 449.451 C 191.136 449.669,191.387 446.689,192.405 431.800 C 192.871 424.980,193.341 418.971,193.448 418.446 L 193.643 417.491 194.921 418.646 L 196.200 419.800 195.025 418.500 C 194.379 417.785,193.712 417.200,193.543 417.200 C 193.374 417.200,193.146 417.785,193.035 418.500 M196.400 419.725 C 196.400 419.794,196.985 420.379,197.700 421.025 L 199.000 422.200 197.825 420.900 C 196.730 419.688,196.400 419.416,196.400 419.725 M201.600 424.125 C 201.600 424.194,202.185 424.779,202.900 425.425 L 204.200 426.600 203.025 425.300 C 201.930 424.088,201.600 423.816,201.600 424.125 M189.029 459.629 C 188.187 464.911,187.578 469.311,187.674 469.407 C 187.770 469.503,188.537 465.261,189.379 459.979 C 190.220 454.697,190.830 450.296,190.733 450.200 C 190.637 450.103,189.870 454.346,189.029 459.629 M335.785 803.300 L 333.800 805.400 335.900 803.415 C 337.851 801.571,338.183 801.200,337.885 801.200 C 337.822 801.200,336.877 802.145,335.785 803.300 " stroke="none" fill="#5c58a0" fill-rule="evenodd"></path><path id="path5" d="M173.800 158.222 C 174.929 158.669,196.518 163.227,196.903 163.099 C 197.399 162.934,174.961 157.962,174.000 158.024 C 173.670 158.046,173.580 158.135,173.800 158.222 M249.683 185.600 C 247.023 189.780,244.998 193.200,245.182 193.200 C 245.502 193.200,254.199 179.788,254.663 178.581 C 255.264 177.015,254.120 178.627,249.683 185.600 M123.961 191.000 C 123.859 191.440,124.276 192.790,124.886 194.000 C 127.241 198.672,127.400 200.038,127.400 215.667 C 127.400 223.514,127.277 230.056,127.127 230.206 C 126.977 230.356,123.123 227.933,118.563 224.822 C 113.873 221.624,109.994 219.240,109.635 219.337 C 109.073 219.488,109.075 219.513,109.656 219.554 C 110.016 219.579,114.156 222.219,118.856 225.421 L 127.400 231.242 127.714 227.521 C 127.886 225.474,127.960 218.580,127.878 212.200 C 127.720 199.905,127.501 198.232,125.505 194.025 C 125.029 193.021,124.528 191.750,124.392 191.200 C 124.171 190.307,124.125 190.286,123.961 191.000 M89.283 191.949 C 88.254 192.585,92.665 214.686,95.619 223.697 C 97.414 229.175,100.730 237.200,101.198 237.200 C 101.376 237.200,100.726 235.391,99.753 233.180 C 95.903 224.431,92.811 213.142,90.408 199.060 C 89.636 194.535,89.436 192.517,89.741 192.322 C 89.981 192.169,90.087 191.953,89.977 191.843 C 89.867 191.733,89.554 191.781,89.283 191.949 M320.018 800.120 C 319.992 801.178,320.966 802.861,322.262 803.999 L 323.400 804.997 322.268 803.744 C 321.646 803.054,320.889 801.795,320.586 800.945 C 320.283 800.095,320.027 799.724,320.018 800.120 " stroke="none" fill="#74ac9c" fill-rule="evenodd"></path><path id="path6" d="" stroke="none" fill="#30acb8" fill-rule="evenodd"></path><path id="path7" d="" stroke="none" fill="#30d07c" fill-rule="evenodd"></path><path id="path8" d="M193.475 196.286 C 193.957 196.375,194.433 196.711,194.535 197.032 C 194.651 197.402,194.696 197.357,194.656 196.908 C 194.615 196.449,194.243 196.186,193.597 196.161 C 192.776 196.130,192.754 196.151,193.475 196.286 M190.893 198.400 C 190.893 199.170,190.975 199.485,191.076 199.100 C 191.176 198.715,191.176 198.085,191.076 197.700 C 190.975 197.315,190.893 197.630,190.893 198.400 M190.493 201.200 C 190.493 201.970,190.575 202.285,190.676 201.900 C 190.776 201.515,190.776 200.885,190.676 200.500 C 190.575 200.115,190.493 200.430,190.493 201.200 M67.400 244.000 C 65.836 245.036,66.392 245.037,68.090 244.001 C 68.811 243.562,69.220 243.204,69.000 243.204 C 68.780 243.205,68.060 243.563,67.400 244.000 M173.232 278.413 C 173.214 278.750,171.471 284.330,169.357 290.813 C 160.049 319.367,151.319 341.997,143.207 358.600 C 138.474 368.289,135.342 373.397,129.964 380.200 C 129.060 381.344,129.225 381.230,130.544 379.800 C 139.020 370.614,150.114 347.098,162.720 311.600 C 167.365 298.518,173.701 278.886,173.466 278.302 C 173.329 277.962,173.253 277.998,173.232 278.413 M102.800 290.600 C 103.546 291.370,104.247 292.000,104.357 292.000 C 104.467 292.000,103.946 291.370,103.200 290.600 C 102.454 289.830,101.753 289.200,101.643 289.200 C 101.533 289.200,102.054 289.830,102.800 290.600 M99.200 291.400 C 99.946 292.170,100.647 292.800,100.757 292.800 C 100.867 292.800,100.346 292.170,99.600 291.400 C 98.854 290.630,98.153 290.000,98.043 290.000 C 97.933 290.000,98.454 290.630,99.200 291.400 M104.400 292.526 C 104.400 292.636,105.300 293.479,106.400 294.400 C 107.500 295.321,108.400 295.984,108.400 295.874 C 108.400 295.764,107.500 294.921,106.400 294.000 C 105.300 293.079,104.400 292.416,104.400 292.526 M102.200 294.800 C 103.059 295.680,103.852 296.400,103.962 296.400 C 104.072 296.400,103.459 295.680,102.600 294.800 C 101.741 293.920,100.948 293.200,100.838 293.200 C 100.728 293.200,101.341 293.920,102.200 294.800 M62.800 346.125 C 62.800 346.194,63.385 346.779,64.100 347.425 L 65.400 348.600 64.225 347.300 C 63.130 346.088,62.800 345.816,62.800 346.125 M67.000 350.000 C 67.859 350.880,68.652 351.600,68.762 351.600 C 68.872 351.600,68.259 350.880,67.400 350.000 C 66.541 349.120,65.748 348.400,65.638 348.400 C 65.528 348.400,66.141 349.120,67.000 350.000 M69.200 351.725 C 69.200 351.794,69.785 352.379,70.500 353.025 L 71.800 354.200 70.625 352.900 C 69.530 351.688,69.200 351.416,69.200 351.725 " stroke="none" fill="#30c07c" fill-rule="evenodd"></path></g></svg>